<svg xmlns="http://www.w3.org/2000/svg" width="11.986" height="11.988" viewBox="0 0 11.986 11.988">
  <g id="Grupo_64483" data-name="Grupo 64483" transform="translate(-778.335 -2838.164)">
    <path id="Trazado_132837" data-name="Trazado 132837" d="M784.446,2850.152h-.468a.71.71,0,0,0-.091-.019,5.555,5.555,0,0,1-2.372-.686,5.885,5.885,0,0,1-3.169-5.037,5.487,5.487,0,0,1,.694-3.061,5.871,5.871,0,0,1,5.033-3.174,5.589,5.589,0,0,1,3.3.834,5.922,5.922,0,0,1,2.85,4.118c.042.224.063.453.093.68v.632c-.024.213-.048.425-.071.637a.458.458,0,0,1-.411.452.728.728,0,0,1-.316-.061,3.559,3.559,0,0,0-2.2-.145.18.18,0,0,1-.141-.039c-.356-.349-.709-.7-1.061-1.058a.2.2,0,0,1-.056-.107,1.634,1.634,0,0,0-1.248-1.507,8.357,8.357,0,0,0-1.912-.3c-.166-.01-.332-.016-.508-.024.014.256.021.5.04.738a7.655,7.655,0,0,0,.3,1.724,1.618,1.618,0,0,0,1.455,1.2.3.3,0,0,1,.16.077c.26.253.512.515.773.766a.131.131,0,0,1,.026.2,3.289,3.289,0,0,0-.465,1.8,8.137,8.137,0,0,0,.1.834.464.464,0,0,1-.25.485C784.505,2850.119,784.476,2850.136,784.446,2850.152Zm-3.855-7.116a.69.69,0,0,0,.017-1.379.69.69,0,1,0-.017,1.379Zm-.122,3.352a.691.691,0,0,0,.7-.684.691.691,0,0,0-1.381-.014A.686.686,0,0,0,780.469,2846.388Zm6.7-5.763a.689.689,0,1,0-.724.678A.689.689,0,0,0,787.167,2840.625Zm-3.326-.439a.687.687,0,1,0-1.374-.009.687.687,0,0,0,1.374.009Zm-.275,7.873a.69.69,0,1,0-.7.676A.689.689,0,0,0,783.566,2848.059Zm4.841-5.378a.69.69,0,1,0,0,1.38.69.69,0,0,0,0-1.38Z" fill="#d44f4a"/>
    <path id="Trazado_132838" data-name="Trazado 132838" d="M784.9,2845.867a1.757,1.757,0,0,0,1.078-1.081c.034.032.06.054.084.079q1.605,1.6,3.21,3.21a.767.767,0,0,1-.987,1.175c-.036-.03-.071-.061-.1-.094l-3.2-3.2C784.954,2845.93,784.932,2845.9,784.9,2845.867Z" fill="#d44f4a"/>
    <path id="Trazado_132839" data-name="Trazado 132839" d="M782.913,2842.794c.255.027.5.036.732.08a11.456,11.456,0,0,1,1.148.256,1.166,1.166,0,0,1,.66,1.634,1.228,1.228,0,0,1-1.944.37,1.243,1.243,0,0,1-.318-.577A7.563,7.563,0,0,1,782.913,2842.794Z" fill="#d44f4a"/>
  </g>
</svg>
