<svg id="Grupo_64479" data-name="Grupo 64479" xmlns="http://www.w3.org/2000/svg" width="90.087" height="90.087" viewBox="0 0 90.087 90.087">
  <circle id="Elipse_5369" data-name="Elipse 5369" cx="45.043" cy="45.043" r="45.043" fill="#d44f4a"/>
  <g id="Grupo_64478" data-name="Grupo 64478" transform="translate(21.827 13.676)">
    <path id="Trazado_132834" data-name="Trazado 132834" d="M538.527,3663.858c-1.3-.217-2.628-.349-3.908-.666a17.8,17.8,0,0,1-12.273-10.349,33.021,33.021,0,0,1-2.862-13.788,5.912,5.912,0,0,0-.241-1.614,47.7,47.7,0,0,1-2.128-14.775,26.235,26.235,0,0,1,2.681-12.011,17.191,17.191,0,0,1,10.486-8.978,13.175,13.175,0,0,1,8.472.313,4.613,4.613,0,0,0,3.23.081c5.952-2.106,11.073-.562,15.523,3.638a20.045,20.045,0,0,1,5.885,11.834,44.863,44.863,0,0,1-1.636,19.833,6.677,6.677,0,0,0-.262,1.794,30.473,30.473,0,0,1-4.237,16.122,17.313,17.313,0,0,1-13.3,8.334c-.585.072-1.168.155-1.751.232ZM561.92,3623.4l.152-.02c-.254-2.143-.384-4.31-.788-6.425a17.394,17.394,0,0,0-6.465-10.973c-3.7-2.843-7.724-3.718-12.189-2.064a6.47,6.47,0,0,1-4.607-.1,11.151,11.151,0,0,0-6.2-.524,14.611,14.611,0,0,0-8.472,5.452c-2.729,3.379-3.818,7.384-4.167,11.625a43.958,43.958,0,0,0,1.2,13.6,30.412,30.412,0,0,1,1.155,6.47,28.235,28.235,0,0,0,2.431,11.224,16.093,16.093,0,0,0,9.676,9.213,22.239,22.239,0,0,0,9.129.911c6.025-.5,10.6-3.273,13.49-8.63a30.118,30.118,0,0,0,3.26-14.531,4.282,4.282,0,0,1,.17-1.2A51.567,51.567,0,0,0,561.92,3623.4Z" transform="translate(-517.108 -3601.123)" fill="#fff"/>
    <path id="Trazado_132835" data-name="Trazado 132835" d="M540.7,3608.063a25.855,25.855,0,0,1,11.78,2.7,14.822,14.822,0,0,1,7.845,11,29.223,29.223,0,0,1-1.1,13.537,4.445,4.445,0,0,0-.179,1.2,28.776,28.776,0,0,1-2.705,12.571,15.723,15.723,0,0,1-9.938,8.483,19.717,19.717,0,0,1-13.315-.436c-4.415-1.734-7.2-5.077-9.017-9.328a27.99,27.99,0,0,1-2.146-11.341,3.929,3.929,0,0,0-.165-1.134,31.972,31.972,0,0,1-1.454-10.439,17.251,17.251,0,0,1,2.965-9.563,16.147,16.147,0,0,1,8.882-6.052A30.383,30.383,0,0,1,540.7,3608.063Zm-11.007,27.248c0,.007.01-.017,0-.031-.1-.176-.2-.351-.311-.524a9.5,9.5,0,0,1-1.392-6.148c.087-.793.686-1.247,1.34-.985.639.256.659.8.6,1.385a7.691,7.691,0,0,0,1.876,5.775,1.009,1.009,0,0,0,.89.384c1.364.006,2.73.049,4.093.118a45.357,45.357,0,0,0,4.632.264,54.7,54.7,0,0,1,7.138-.4.743.743,0,0,0,.5-.278,7.268,7.268,0,0,0,1.727-7.106c-1.052-3.572-3.67-5.5-7.136-6.446-.048-.013-.11.023-.187.042a15.932,15.932,0,0,0,.013,4.994,2.934,2.934,0,0,1-1.408,2.981,2.8,2.8,0,0,1-3.229-.042,2.943,2.943,0,0,1-1.337-3.011c.133-1.113.292-2.225.362-3.342a10.887,10.887,0,0,0-.162-1.734,11.84,11.84,0,0,0-4.376,1.992.97.97,0,1,1-1.2-1.52,12.971,12.971,0,0,1,6.018-2.546.927.927,0,0,1,1.136.691,6.664,6.664,0,0,1,.452,1.891c-.023,1.6-.214,3.2-.264,4.808a1.485,1.485,0,0,0,.449,1.091,1.384,1.384,0,0,0,1.118.041.94.94,0,0,0,.513-1.078c-.055-.508-.12-1.014-.155-1.523a12.655,12.655,0,0,1,.418-5.087,1,1,0,0,1,1.295-.8,13.309,13.309,0,0,1,5.529,2.337c4.425,3.259,5.878,8.97,2.725,13.615a.51.51,0,0,0-.059.2c1.663.383,3.29.755,4.916,1.136.626.147.8.02.85-.608a3.74,3.74,0,0,1,.168-.771,28.381,28.381,0,0,0,1.256-12.316c-.12-.85-.342-1.684-.539-2.63a3.284,3.284,0,0,1-4.272.556,26.706,26.706,0,0,1-2.341-1.446,15.527,15.527,0,0,0-7.066-2.718c-1.823-.171-3.667-.131-5.5-.152a14.524,14.524,0,0,0-7.493,1.934c-1.362.778-2.669,1.655-4.043,2.413a3.221,3.221,0,0,1-4.057-.427c-.017-.017-.072,0-.171.008-.133.573-.293,1.159-.4,1.755a25.868,25.868,0,0,0,.553,10.916c.232.969.546,1.92.746,2.894.114.555.274.75.82.622C526.365,3636.1,528.009,3635.708,529.694,3635.311ZM526.639,3638a16.053,16.053,0,0,1,3.567,5.693,37.133,37.133,0,0,0,1.748,3.629,8.052,8.052,0,0,0,5.556,4.334,22.059,22.059,0,0,0,4.381.219,7.845,7.845,0,0,0,6.692-3.885,30.652,30.652,0,0,0,2.063-4.011,17.442,17.442,0,0,1,3.552-5.866c.018-.017,0-.071,0-.153a28.706,28.706,0,0,0-9.813-.741,25.452,25.452,0,0,1-5.606.271c-1.4-.156-2.8-.323-4.2-.38A27.959,27.959,0,0,0,526.639,3638Zm-2.652.609a25.8,25.8,0,0,0,2.207,9.168,13.927,13.927,0,0,0,8.877,7.942,20.373,20.373,0,0,0,8.188.539,13.843,13.843,0,0,0,7.88-3.448,16.712,16.712,0,0,0,4.634-7.58,26.375,26.375,0,0,0,1.2-6.584,2.417,2.417,0,0,0-.647.274,16.553,16.553,0,0,0-1.611,1.578c-1.62,1.949-2.123,4.455-3.331,6.63.335.189.6.337.865.49.647.376.845.93.525,1.464-.3.507-.837.592-1.5.236-.282-.152-.561-.31-.8-.444-.086.046-.11.051-.12.065-.172.228-.342.456-.512.685a9.781,9.781,0,0,1-5.614,3.892,17.016,17.016,0,0,1-6.325.224,10.176,10.176,0,0,1-7.449-5.122c-.127-.2-.259-.4-.4-.62-.485.246-.914.478-1.355.684a.978.978,0,1,1-.886-1.734c.436-.243.88-.473,1.359-.73-.65-1.438-1.239-2.825-1.9-4.177a7.917,7.917,0,0,0-2.549-3.08A5.775,5.775,0,0,0,523.987,3638.613Zm26.4-22.223c.378.219.767.437,1.148.667,1.1.665,2.181,1.356,3.3,2a1.091,1.091,0,0,0,1.461-.078,1.739,1.739,0,0,0,.234-1.909,13.119,13.119,0,0,0-5.71-5.019,22.622,22.622,0,0,0-8.889-1.988,26.525,26.525,0,0,0-10.3,1.373,13.439,13.439,0,0,0-7.235,5.736,1.763,1.763,0,0,0,.249,1.759,1.013,1.013,0,0,0,1.391.175c1.533-.873,3.037-1.8,4.567-2.711-.131-.231-.236-.4-.33-.583a.991.991,0,0,1,.3-1.39.973.973,0,0,1,1.369.383c.168.25.32.511.489.783a19.518,19.518,0,0,1,7.022-1.22c.179-1.441.4-1.859,1.043-1.8,1.12.1.951,1.015,1,1.8a19.707,19.707,0,0,1,7,1.183c.816-1.25,1.156-1.47,1.753-1.168C550.814,3614.671,550.843,3615.043,550.387,3616.39Z" transform="translate(-517.108 -3601.123)" fill="#fff"/>
    <path id="Trazado_132836" data-name="Trazado 132836" d="M531.21,3625.152a.979.979,0,0,1-.983.962,1.006,1.006,0,0,1-.957-1,.983.983,0,0,1,1-.95A.949.949,0,0,1,531.21,3625.152Z" transform="translate(-517.108 -3601.123)" fill="#fff"/>
  </g>
  <rect id="Rectángulo_7853" data-name="Rectángulo 7853" width="90.087" height="90.087" fill="none"/>
</svg>
