<svg id="Grupo_64476" data-name="Grupo 64476" xmlns="http://www.w3.org/2000/svg" width="90.087" height="90.087" viewBox="0 0 90.087 90.087">
  <circle id="Elipse_5368" data-name="Elipse 5368" cx="45.043" cy="45.043" r="45.043" fill="#d44f4a"/>
  <g id="Grupo_64475" data-name="Grupo 64475" transform="translate(16.207 16.195)">
    <path id="Trazado_132826" data-name="Trazado 132826" d="M188.409,3617.625a36.449,36.449,0,0,1,.81-3.6,15.174,15.174,0,1,1-.707,6.564,4.816,4.816,0,0,0-.1-.486Zm15.235-10.59a11.829,11.829,0,1,0,11.809,11.837A11.848,11.848,0,0,0,203.644,3607.035Z" transform="translate(-188.409 -3603.642)" fill="#fff"/>
    <path id="Trazado_132827" data-name="Trazado 132827" d="M229.653,3661.339a28.376,28.376,0,0,1-3.867-.918c-5.809-2.244-9.286-6.473-9.979-12.675a15.09,15.09,0,0,1,12.924-16.677,15.214,15.214,0,1,1,4.282,30.126c-.294.045-.587.1-.881.144ZM230.9,3634.3a11.829,11.829,0,1,0,11.827,11.819A11.849,11.849,0,0,0,230.9,3634.3Z" transform="translate(-188.409 -3603.642)" fill="#fff"/>
    <path id="Trazado_132828" data-name="Trazado 132828" d="M203.634,3627.312a6.221,6.221,0,0,1-6.206-6.021,1.693,1.693,0,1,1,3.377-.128,2.817,2.817,0,0,0,5.632.025,1.695,1.695,0,1,1,3.376.135A6.214,6.214,0,0,1,203.634,3627.312Z" transform="translate(-188.409 -3603.642)" fill="#fff"/>
    <path id="Trazado_132829" data-name="Trazado 132829" d="M199.092,3612.669a1.688,1.688,0,1,1-1.666,1.7A1.707,1.707,0,0,1,199.092,3612.669Z" transform="translate(-188.409 -3603.642)" fill="#fff"/>
    <path id="Trazado_132830" data-name="Trazado 132830" d="M206.441,3614.361a1.688,1.688,0,1,1,1.678,1.684A1.706,1.706,0,0,1,206.441,3614.361Z" transform="translate(-188.409 -3603.642)" fill="#fff"/>
    <path id="Trazado_132831" data-name="Trazado 132831" d="M237.1,3651.567a1.743,1.743,0,0,1-1.624,1.882,1.7,1.7,0,0,1-1.772-1.716,2.817,2.817,0,0,0-5.633,0,1.692,1.692,0,1,1-3.378-.1,6.189,6.189,0,0,1,12.292-.9C237.033,3651.01,237.067,3651.289,237.1,3651.567Z" transform="translate(-188.409 -3603.642)" fill="#fff"/>
    <path id="Trazado_132832" data-name="Trazado 132832" d="M228.073,3641.6a1.689,1.689,0,1,1-1.7-1.662A1.71,1.71,0,0,1,228.073,3641.6Z" transform="translate(-188.409 -3603.642)" fill="#fff"/>
    <path id="Trazado_132833" data-name="Trazado 132833" d="M237.088,3641.643a1.688,1.688,0,1,1-1.653-1.709A1.708,1.708,0,0,1,237.088,3641.643Z" transform="translate(-188.409 -3603.642)" fill="#fff"/>
  </g>
  <rect id="Rectángulo_7852" data-name="Rectángulo 7852" width="90.087" height="90.087" fill="none"/>
</svg>
