<svg xmlns="http://www.w3.org/2000/svg" width="333.905" height="478.908" viewBox="0 0 333.905 478.908">
  <g id="Grupo_64932" data-name="Grupo 64932" transform="translate(-876.095 -1066)">
    <rect id="Rectángulo_7848" data-name="Rectángulo 7848" width="224.418" height="375.7" rx="14.042" transform="translate(876.095 1066)" fill="#dd726e"/>
    <rect id="Rectángulo_7849" data-name="Rectángulo 7849" width="224.418" height="375.7" rx="14.042" transform="translate(985.582 1169.208)" fill="#d44f4a"/>
    <g id="Grupo_64463" data-name="Grupo 64463" transform="translate(1108.734 1066.346)">
      <path id="Trazado_132812" data-name="Trazado 132812" d="M1079.771,2742.007a2.636,2.636,0,0,1-2.635-2.636v-68.723a17.508,17.508,0,0,0-17.487-17.487H985.594a2.636,2.636,0,0,1,0-5.271h74.054a22.784,22.784,0,0,1,22.759,22.759v68.723A2.636,2.636,0,0,1,1079.771,2742.007Z" transform="translate(-982.958 -2647.89)" fill="#6a2825"/>
    </g>
    <g id="Grupo_64464" data-name="Grupo 64464" transform="translate(876.095 1447.186)">
      <path id="Trazado_132813" data-name="Trazado 132813" d="M744.8,3042.075a2.635,2.635,0,0,1,2.636,2.635v68.723a17.507,17.507,0,0,0,17.488,17.487h74.053a2.636,2.636,0,1,1,0,5.271H764.926a22.784,22.784,0,0,1-22.759-22.758V3044.71A2.635,2.635,0,0,1,744.8,3042.075Z" transform="translate(-742.167 -3042.075)" fill="#6a2825"/>
    </g>
    <rect id="Rectángulo_7850" data-name="Rectángulo 7850" width="300.916" height="440.626" rx="12.363" transform="translate(892.59 1085.141)" fill="#fceeed"/>
    <path id="Trazado_133805" data-name="Trazado 133805" d="M10.76,12.24a7.616,7.616,0,0,1-2.54.44A4.026,4.026,0,0,1,3.9,8.28c0-3,1.88-4.46,4.3-4.46a6.583,6.583,0,0,1,2.56.5l.62-2.42a7.948,7.948,0,0,0-3.32-.6C3.98,1.3.7,3.86.7,8.46c0,3.84,2.4,6.74,7.06,6.74a8.688,8.688,0,0,0,3.46-.58ZM17.4,5a4.882,4.882,0,0,0-5.22,5.18,4.791,4.791,0,0,0,5.06,5.04A4.907,4.907,0,0,0,22.4,10,4.756,4.756,0,0,0,17.4,5Zm-.08,2.16c1.38,0,1.94,1.48,1.94,2.94,0,1.76-.76,2.94-1.94,2.94-1.3,0-2-1.26-2-2.94C15.32,8.66,15.86,7.16,17.32,7.16ZM24.28,15h3.04V9.36a2.089,2.089,0,0,1,.12-.76,1.623,1.623,0,0,1,1.54-1.14c1.1,0,1.54.86,1.54,2.12V15h3.04V9.2c0-2.88-1.5-4.2-3.5-4.2a3.58,3.58,0,0,0-3.02,1.56h-.06l-.14-1.34H24.2c.04.86.08,1.9.08,3.12ZM42.44.8V6.1H42.4A2.979,2.979,0,0,0,39.82,5c-2.34,0-4.4,1.9-4.38,5.2,0,3.04,1.86,5.02,4.18,5.02a3.414,3.414,0,0,0,3.06-1.66h.04L42.86,15h2.7c-.04-.66-.08-1.82-.08-2.92V.8Zm0,9.84a2.588,2.588,0,0,1-.08.7A1.78,1.78,0,0,1,40.6,12.8c-1.26,0-2.08-1.04-2.08-2.7,0-1.54.72-2.78,2.1-2.78a1.826,1.826,0,0,1,1.78,1.5,4.9,4.9,0,0,1,.04.54ZM50.96,15V5.22H47.92V15ZM49.44.96a1.486,1.486,0,0,0-1.6,1.54,1.486,1.486,0,0,0,1.58,1.52A1.533,1.533,0,1,0,49.44.96ZM60.38,12.52a4.69,4.69,0,0,1-1.74.3,2.545,2.545,0,0,1-2.68-2.74,2.531,2.531,0,0,1,2.62-2.74,4.159,4.159,0,0,1,1.7.3l.48-2.26A7.052,7.052,0,0,0,58.44,5c-3.64,0-5.6,2.34-5.6,5.2,0,3.08,2.02,5,5.18,5a7.416,7.416,0,0,0,2.72-.44ZM65.46,15V5.22H62.42V15ZM63.94.96a1.486,1.486,0,0,0-1.6,1.54,1.486,1.486,0,0,0,1.58,1.52A1.533,1.533,0,1,0,63.94.96ZM72.56,5a4.882,4.882,0,0,0-5.22,5.18,4.791,4.791,0,0,0,5.06,5.04A4.907,4.907,0,0,0,77.56,10,4.756,4.756,0,0,0,72.56,5Zm-.08,2.16c1.38,0,1.94,1.48,1.94,2.94,0,1.76-.76,2.94-1.94,2.94-1.3,0-2-1.26-2-2.94C70.48,8.66,71.02,7.16,72.48,7.16Zm.34-6.2L71.1,4h2.1L75.64.96ZM79.44,15h3.04V9.36a2.089,2.089,0,0,1,.12-.76,1.623,1.623,0,0,1,1.54-1.14c1.1,0,1.54.86,1.54,2.12V15h3.04V9.2c0-2.88-1.5-4.2-3.5-4.2A3.58,3.58,0,0,0,82.2,6.56h-.06L82,5.22H79.36c.04.86.08,1.9.08,3.12Zm24.6,0V12.5h-4.9v-.04l1.2-1c1.88-1.68,3.46-3.42,3.46-5.6,0-2.36-1.62-4.08-4.56-4.08a7.2,7.2,0,0,0-4.26,1.34l.86,2.18a4.711,4.711,0,0,1,2.78-1.08c1.5,0,2.14.84,2.14,1.9-.04,1.52-1.42,2.98-4.26,5.52l-1.68,1.52V15Z" transform="translate(907.768 1098.573)" fill="#6a2825"/>
    <path id="Trazado_133804" data-name="Trazado 133804" d="M1.52,15h7.5V13.54H3.26V1.52H1.52Zm16.34,0a13.629,13.629,0,0,1-.16-2.32V9.06c0-1.94-.72-3.96-3.68-3.96a6.008,6.008,0,0,0-3.18.86l.4,1.16a4.823,4.823,0,0,1,2.52-.72,2,2,0,0,1,2.2,2.24v.2c-3.74-.02-5.82,1.26-5.82,3.6a2.758,2.758,0,0,0,2.96,2.78,3.605,3.605,0,0,0,2.96-1.44h.06L16.26,15ZM16,11.74a1.837,1.837,0,0,1-.1.56,2.408,2.408,0,0,1-2.34,1.62,1.557,1.557,0,0,1-1.66-1.68c0-1.88,2.18-2.22,4.1-2.18Zm3.86,2.8a5.52,5.52,0,0,0,2.72.66c2.3,0,3.62-1.2,3.62-2.9,0-1.44-.86-2.28-2.54-2.92-1.26-.48-1.84-.84-1.84-1.64,0-.72.58-1.32,1.62-1.32a3.767,3.767,0,0,1,1.98.56l.44-1.28a4.832,4.832,0,0,0-2.38-.6c-2.08,0-3.34,1.28-3.34,2.84,0,1.16.82,2.12,2.56,2.74,1.3.48,1.8.94,1.8,1.78,0,.8-.6,1.44-1.88,1.44a4.613,4.613,0,0,1-2.32-.7ZM39.3,13.32a5,5,0,0,1-2.16.48,3.319,3.319,0,0,1-3.36-3.62A3.35,3.35,0,0,1,37.2,6.52a4.081,4.081,0,0,1,2.04.46l.4-1.36a5.883,5.883,0,0,0-2.44-.5A4.918,4.918,0,0,0,32,10.26a4.6,4.6,0,0,0,4.82,4.94,6.483,6.483,0,0,0,2.78-.56Zm10.46-8H48v5.94a2.574,2.574,0,0,1-.16.9,2.544,2.544,0,0,1-2.32,1.6c-1.6,0-2.16-1.24-2.16-3.08V5.32H41.6v5.66c0,3.4,1.82,4.24,3.34,4.24a3.642,3.642,0,0,0,3.2-1.8h.04l.1,1.58h1.56c-.06-.76-.08-1.64-.08-2.64ZM52.68,15h1.74V9.84a4.954,4.954,0,0,1,.08-.82,2.469,2.469,0,0,1,2.36-2.26,2.644,2.644,0,0,1,.6.06V5.16a1.9,1.9,0,0,0-.5-.06,2.9,2.9,0,0,0-2.68,2.12H54.2l-.06-1.9H52.6c.06.9.08,1.88.08,3.02Zm5.84-9.68L62.2,15h1.68l3.8-9.68H65.84l-1.88,5.44c-.32.88-.6,1.68-.82,2.48h-.06a24.894,24.894,0,0,0-.78-2.48L60.4,5.32ZM76.22,15a13.63,13.63,0,0,1-.16-2.32V9.06c0-1.94-.72-3.96-3.68-3.96a6.008,6.008,0,0,0-3.18.86l.4,1.16a4.823,4.823,0,0,1,2.52-.72,2,2,0,0,1,2.2,2.24v.2c-3.74-.02-5.82,1.26-5.82,3.6a2.758,2.758,0,0,0,2.96,2.78,3.605,3.605,0,0,0,2.96-1.44h.06L74.62,15Zm-1.86-3.26a1.837,1.837,0,0,1-.1.56,2.408,2.408,0,0,1-2.34,1.62,1.557,1.557,0,0,1-1.66-1.68c0-1.88,2.18-2.22,4.1-2.18Zm3.86,2.8a5.52,5.52,0,0,0,2.72.66c2.3,0,3.62-1.2,3.62-2.9,0-1.44-.86-2.28-2.54-2.92-1.26-.48-1.84-.84-1.84-1.64,0-.72.58-1.32,1.62-1.32a3.767,3.767,0,0,1,1.98.56l.44-1.28a4.832,4.832,0,0,0-2.38-.6c-2.08,0-3.34,1.28-3.34,2.84,0,1.16.82,2.12,2.56,2.74,1.3.48,1.8.94,1.8,1.78,0,.8-.6,1.44-1.88,1.44a4.613,4.613,0,0,1-2.32-.7ZM97.66.8V6.58h-.04A3.237,3.237,0,0,0,94.7,5.1c-2.36,0-4.36,1.98-4.34,5.2,0,2.94,1.8,4.92,4.14,4.92a3.581,3.581,0,0,0,3.3-1.9h.04L97.92,15H99.5c-.06-.66-.08-1.64-.08-2.5V.8Zm0,10.14a3.057,3.057,0,0,1-.08.76A2.646,2.646,0,0,1,95,13.8c-1.9,0-2.86-1.62-2.86-3.58,0-2.14,1.08-3.74,2.9-3.74a2.588,2.588,0,0,1,2.54,2.04,3.107,3.107,0,0,1,.08.74Zm12.46-.46a6.637,6.637,0,0,0,.06-.82c0-1.78-.84-4.56-4-4.56-2.82,0-4.54,2.3-4.54,5.22s1.78,4.88,4.76,4.88a7.84,7.84,0,0,0,3.22-.6l-.3-1.26a6.364,6.364,0,0,1-2.68.5,3.1,3.1,0,0,1-3.32-3.36Zm-6.78-1.26c.14-1.22.92-2.86,2.7-2.86,1.98,0,2.46,1.74,2.44,2.86ZM113.8,15l.08-1.6h.06a3.448,3.448,0,0,0,3.24,1.82c2.16,0,4.34-1.72,4.34-5.18.02-2.94-1.68-4.94-4.08-4.94a3.605,3.605,0,0,0-3.3,1.78h-.04V.8h-1.74V12.5c0,.86-.04,1.84-.08,2.5Zm.3-5.62a3.469,3.469,0,0,1,.1-.72,2.806,2.806,0,0,1,2.68-2.16c1.88,0,2.88,1.66,2.88,3.6,0,2.22-1.1,3.72-2.94,3.72a2.716,2.716,0,0,1-2.64-2.06,3.3,3.3,0,0,1-.08-.64Zm17.42,1.1a6.64,6.64,0,0,0,.06-.82c0-1.78-.84-4.56-4-4.56-2.82,0-4.54,2.3-4.54,5.22s1.78,4.88,4.76,4.88a7.84,7.84,0,0,0,3.22-.6l-.3-1.26a6.364,6.364,0,0,1-2.68.5,3.1,3.1,0,0,1-3.32-3.36Zm-6.78-1.26c.14-1.22.92-2.86,2.7-2.86,1.98,0,2.46,1.74,2.44,2.86ZM133.76,15h1.76V9.18a2.531,2.531,0,0,1,.12-.82A2.5,2.5,0,0,1,138,6.56c1.66,0,2.24,1.3,2.24,2.86V15H142V9.22c0-3.32-2.08-4.12-3.42-4.12a3.56,3.56,0,0,0-3.2,1.82h-.04l-.1-1.6h-1.56c.06.8.08,1.62.08,2.62Zm14.66-.46a5.52,5.52,0,0,0,2.72.66c2.3,0,3.62-1.2,3.62-2.9,0-1.44-.86-2.28-2.54-2.92-1.26-.48-1.84-.84-1.84-1.64,0-.72.58-1.32,1.62-1.32a3.767,3.767,0,0,1,1.98.56l.44-1.28a4.831,4.831,0,0,0-2.38-.6c-2.08,0-3.34,1.28-3.34,2.84,0,1.16.82,2.12,2.56,2.74,1.3.48,1.8.94,1.8,1.78,0,.8-.6,1.44-1.88,1.44a4.613,4.613,0,0,1-2.32-.7Zm16.38-4.06a6.64,6.64,0,0,0,.06-.82c0-1.78-.84-4.56-4-4.56-2.82,0-4.54,2.3-4.54,5.22s1.78,4.88,4.76,4.88a7.84,7.84,0,0,0,3.22-.6l-.3-1.26a6.364,6.364,0,0,1-2.68.5A3.1,3.1,0,0,1,158,10.48Zm-6.78-1.26c.14-1.22.92-2.86,2.7-2.86,1.98,0,2.46,1.74,2.44,2.86ZM167.04,15h1.74V9.84a4.954,4.954,0,0,1,.08-.82,2.469,2.469,0,0,1,2.36-2.26,2.644,2.644,0,0,1,.6.06V5.16a1.9,1.9,0,0,0-.5-.06,2.9,2.9,0,0,0-2.68,2.12h-.08l-.06-1.9h-1.54c.06.9.08,1.88.08,3.02Zm12.54,0V5.32h-1.76V15ZM178.7,1.5a1.072,1.072,0,0,0-1.1,1.1,1.09,1.09,0,0,0,2.18,0A1.045,1.045,0,0,0,178.7,1.5ZM182.5,15h1.76V9.18a2.531,2.531,0,0,1,.12-.82,2.5,2.5,0,0,1,2.36-1.8c1.66,0,2.24,1.3,2.24,2.86V15h1.76V9.22c0-3.32-2.08-4.12-3.42-4.12a3.56,3.56,0,0,0-3.2,1.82h-.04l-.1-1.6h-1.56c.06.8.08,1.62.08,2.62ZM193.92,3V5.32h-1.5V6.66h1.5v5.28a3.586,3.586,0,0,0,.68,2.52,2.439,2.439,0,0,0,1.9.74,4.308,4.308,0,0,0,1.56-.24l-.08-1.32a3.915,3.915,0,0,1-1.02.12c-.98,0-1.32-.68-1.32-1.88V6.66h2.52V5.32h-2.52V2.54Zm14.32,2.32h-1.76v5.94a2.574,2.574,0,0,1-.16.9,2.544,2.544,0,0,1-2.32,1.6c-1.6,0-2.16-1.24-2.16-3.08V5.32h-1.76v5.66c0,3.4,1.82,4.24,3.34,4.24a3.642,3.642,0,0,0,3.2-1.8h.04l.1,1.58h1.56c-.06-.76-.08-1.64-.08-2.64ZM212.92,15V5.32h-1.76V15Zm-.88-13.5a1.072,1.072,0,0,0-1.1,1.1,1.09,1.09,0,0,0,2.18,0A1.045,1.045,0,0,0,212.04,1.5Zm4.2,1.5V5.32h-1.5V6.66h1.5v5.28a3.586,3.586,0,0,0,.68,2.52,2.439,2.439,0,0,0,1.9.74,4.308,4.308,0,0,0,1.56-.24l-.08-1.32a3.915,3.915,0,0,1-1.02.12c-.98,0-1.32-.68-1.32-1.88V6.66h2.52V5.32h-2.52V2.54Zm7.98,12V5.32h-1.76V15Zm-.88-13.5a1.072,1.072,0,0,0-1.1,1.1,1.09,1.09,0,0,0,2.18,0A1.045,1.045,0,0,0,223.34,1.5Zm2.6,3.82L229.62,15h1.68l3.8-9.68h-1.84l-1.88,5.44c-.32.88-.6,1.68-.82,2.48h-.06a24.9,24.9,0,0,0-.78-2.48l-1.9-5.44ZM243.64,15a13.63,13.63,0,0,1-.16-2.32V9.06c0-1.94-.72-3.96-3.68-3.96a6.008,6.008,0,0,0-3.18.86l.4,1.16a4.823,4.823,0,0,1,2.52-.72,2,2,0,0,1,2.2,2.24v.2c-3.74-.02-5.82,1.26-5.82,3.6a2.758,2.758,0,0,0,2.96,2.78,3.605,3.605,0,0,0,2.96-1.44h.06l.14,1.22Zm-1.86-3.26a1.837,1.837,0,0,1-.1.56,2.408,2.408,0,0,1-2.34,1.62,1.557,1.557,0,0,1-1.66-1.68c0-1.88,2.18-2.22,4.1-2.18Zm3.86,2.8a5.52,5.52,0,0,0,2.72.66c2.3,0,3.62-1.2,3.62-2.9,0-1.44-.86-2.28-2.54-2.92-1.26-.48-1.84-.84-1.84-1.64,0-.72.58-1.32,1.62-1.32a3.767,3.767,0,0,1,1.98.56l.44-1.28a4.831,4.831,0,0,0-2.38-.6c-2.08,0-3.34,1.28-3.34,2.84,0,1.16.82,2.12,2.56,2.74,1.3.48,1.8.94,1.8,1.78,0,.8-.6,1.44-1.88,1.44a4.613,4.613,0,0,1-2.32-.7ZM9.24,34.48a6.638,6.638,0,0,0,.06-.82c0-1.78-.84-4.56-4-4.56C2.48,29.1.76,31.4.76,34.32S2.54,39.2,5.52,39.2a7.84,7.84,0,0,0,3.22-.6l-.3-1.26a6.364,6.364,0,0,1-2.68.5,3.1,3.1,0,0,1-3.32-3.36ZM2.46,33.22c.14-1.22.92-2.86,2.7-2.86,1.98,0,2.46,1.74,2.44,2.86ZM11.48,39h1.76V33.18a2.531,2.531,0,0,1,.12-.82,2.5,2.5,0,0,1,2.36-1.8c1.66,0,2.24,1.3,2.24,2.86V39h1.76V33.22c0-3.32-2.08-4.12-3.42-4.12a3.56,3.56,0,0,0-3.2,1.82h-.04l-.1-1.6H11.4c.06.8.08,1.62.08,2.62Zm14.66-.46a5.52,5.52,0,0,0,2.72.66c2.3,0,3.62-1.2,3.62-2.9,0-1.44-.86-2.28-2.54-2.92-1.26-.48-1.84-.84-1.84-1.64,0-.72.58-1.32,1.62-1.32a3.767,3.767,0,0,1,1.98.56l.44-1.28a4.832,4.832,0,0,0-2.38-.6c-2.08,0-3.34,1.28-3.34,2.84,0,1.16.82,2.12,2.56,2.74,1.3.48,1.8.94,1.8,1.78,0,.8-.6,1.44-1.88,1.44a4.613,4.613,0,0,1-2.32-.7Zm16.7-9.22H41.08v5.94a2.574,2.574,0,0,1-.16.9,2.544,2.544,0,0,1-2.32,1.6c-1.6,0-2.16-1.24-2.16-3.08V29.32H34.68v5.66c0,3.4,1.82,4.24,3.34,4.24a3.642,3.642,0,0,0,3.2-1.8h.04l.1,1.58h1.56c-.06-.76-.08-1.64-.08-2.64ZM51.92,39V30.66h2.34V29.32H51.92V28.8c0-1.48.38-2.8,1.88-2.8a2.628,2.628,0,0,1,1.12.22l.24-1.36a4.081,4.081,0,0,0-1.5-.28,3.368,3.368,0,0,0-2.36.9,4.563,4.563,0,0,0-1.12,3.38v.46H48.82v1.34h1.36V39Zm12.02-9.68H62.18v5.94a2.574,2.574,0,0,1-.16.9,2.544,2.544,0,0,1-2.32,1.6c-1.6,0-2.16-1.24-2.16-3.08V29.32H55.78v5.66c0,3.4,1.82,4.24,3.34,4.24a3.642,3.642,0,0,0,3.2-1.8h.04l.1,1.58h1.56c-.06-.76-.08-1.64-.08-2.64ZM66.86,39h1.76V33.18a2.531,2.531,0,0,1,.12-.82,2.5,2.5,0,0,1,2.36-1.8c1.66,0,2.24,1.3,2.24,2.86V39H75.1V33.22c0-3.32-2.08-4.12-3.42-4.12a3.56,3.56,0,0,0-3.2,1.82h-.04l-.1-1.6H66.78c.06.8.08,1.62.08,2.62Zm17.7-1.68a5,5,0,0,1-2.16.48,3.319,3.319,0,0,1-3.36-3.62,3.35,3.35,0,0,1,3.42-3.66,4.081,4.081,0,0,1,2.04.46l.4-1.36a5.883,5.883,0,0,0-2.44-.5,4.918,4.918,0,0,0-5.2,5.14,4.6,4.6,0,0,0,4.82,4.94,6.483,6.483,0,0,0,2.78-.56ZM88.68,39V29.32H86.92V39ZM87.8,25.5a1.072,1.072,0,0,0-1.1,1.1,1.09,1.09,0,1,0,1.1-1.1Zm7.9,3.6c-2.68,0-4.8,1.9-4.8,5.14,0,3.06,2.02,4.98,4.64,4.98,2.34,0,4.82-1.56,4.82-5.14C100.36,31.12,98.48,29.1,95.7,29.1Zm-.04,1.32c2.08,0,2.9,2.08,2.9,3.72,0,2.18-1.26,3.76-2.94,3.76-1.72,0-2.94-1.6-2.94-3.72C92.68,32.34,93.58,30.42,95.66,30.42ZM102.58,39h1.76V33.18a2.531,2.531,0,0,1,.12-.82,2.5,2.5,0,0,1,2.36-1.8c1.66,0,2.24,1.3,2.24,2.86V39h1.76V33.22c0-3.32-2.08-4.12-3.42-4.12a3.56,3.56,0,0,0-3.2,1.82h-.04l-.1-1.6H102.5c.06.8.08,1.62.08,2.62Zm18.06,0a13.63,13.63,0,0,1-.16-2.32V33.06c0-1.94-.72-3.96-3.68-3.96a6.008,6.008,0,0,0-3.18.86l.4,1.16a4.823,4.823,0,0,1,2.52-.72,2,2,0,0,1,2.2,2.24v.2c-3.74-.02-5.82,1.26-5.82,3.6a2.758,2.758,0,0,0,2.96,2.78,3.605,3.605,0,0,0,2.96-1.44h.06l.14,1.22Zm-1.86-3.26a1.837,1.837,0,0,1-.1.56,2.408,2.408,0,0,1-2.34,1.62,1.557,1.557,0,0,1-1.66-1.68c0-1.88,2.18-2.22,4.1-2.18ZM123.32,39h1.72V33.16a2.623,2.623,0,0,1,2.32-2.62c1.34,0,2.02,1.12,2.02,2.66V39h1.72V33.02a2.9,2.9,0,0,1,.14-.88,2.279,2.279,0,0,1,2.08-1.6c1.42,0,2.1,1.12,2.1,2.98V39h1.72V33.3c0-3.36-1.9-4.2-3.18-4.2a3.3,3.3,0,0,0-2.14.68,3.988,3.988,0,0,0-1.08,1.26h-.04a2.862,2.862,0,0,0-2.74-1.94,3.336,3.336,0,0,0-3.04,1.78h-.06l-.08-1.56h-1.54c.06.8.08,1.62.08,2.62Zm18.44,0V29.32H140V39Zm-.88-13.5a1.072,1.072,0,0,0-1.1,1.1,1.09,1.09,0,1,0,1.1-1.1Zm11.58,8.98a6.64,6.64,0,0,0,.06-.82c0-1.78-.84-4.56-4-4.56-2.82,0-4.54,2.3-4.54,5.22s1.78,4.88,4.76,4.88a7.84,7.84,0,0,0,3.22-.6l-.3-1.26a6.364,6.364,0,0,1-2.68.5,3.1,3.1,0,0,1-3.32-3.36Zm-6.78-1.26c.14-1.22.92-2.86,2.7-2.86,1.98,0,2.46,1.74,2.44,2.86ZM154.7,39h1.76V33.18a2.531,2.531,0,0,1,.12-.82,2.5,2.5,0,0,1,2.36-1.8c1.66,0,2.24,1.3,2.24,2.86V39h1.76V33.22c0-3.32-2.08-4.12-3.42-4.12a3.56,3.56,0,0,0-3.2,1.82h-.04l-.1-1.6h-1.56c.06.8.08,1.62.08,2.62Zm11.42-12v2.32h-1.5v1.34h1.5v5.28a3.586,3.586,0,0,0,.68,2.52,2.439,2.439,0,0,0,1.9.74,4.308,4.308,0,0,0,1.56-.24l-.08-1.32a3.915,3.915,0,0,1-1.02.12c-.98,0-1.32-.68-1.32-1.88V30.66h2.52V29.32h-2.52V26.54Zm10.2,2.1c-2.68,0-4.8,1.9-4.8,5.14,0,3.06,2.02,4.98,4.64,4.98,2.34,0,4.82-1.56,4.82-5.14C180.98,31.12,179.1,29.1,176.32,29.1Zm-.04,1.32c2.08,0,2.9,2.08,2.9,3.72,0,2.18-1.26,3.76-2.94,3.76-1.72,0-2.94-1.6-2.94-3.72C173.3,32.34,174.2,30.42,176.28,30.42Zm9.88-1.1,3.58,8.92a1.535,1.535,0,0,1,.12.46,1.263,1.263,0,0,1-.14.42,5.336,5.336,0,0,1-1.48,1.96,4.655,4.655,0,0,1-1.54.86l.44,1.48a4.769,4.769,0,0,0,2.16-1.14c1.2-1.04,2.06-2.74,3.32-6.06l2.64-6.9H193.4L191.48,35c-.24.7-.44,1.44-.62,2.02h-.04c-.16-.58-.4-1.34-.62-1.98l-2.12-5.72Zm-178.1,32a5,5,0,0,1-2.16.48,3.319,3.319,0,0,1-3.36-3.62,3.35,3.35,0,0,1,3.42-3.66A4.081,4.081,0,0,1,8,54.98l.4-1.36a5.883,5.883,0,0,0-2.44-.5,4.918,4.918,0,0,0-5.2,5.14A4.6,4.6,0,0,0,5.58,63.2a6.483,6.483,0,0,0,2.78-.56ZM14.4,53.1c-2.68,0-4.8,1.9-4.8,5.14,0,3.06,2.02,4.98,4.64,4.98,2.34,0,4.82-1.56,4.82-5.14C19.06,55.12,17.18,53.1,14.4,53.1Zm-.04,1.32c2.08,0,2.9,2.08,2.9,3.72,0,2.18-1.26,3.76-2.94,3.76-1.72,0-2.94-1.6-2.94-3.72C11.38,56.34,12.28,54.42,14.36,54.42ZM21.28,63h1.76V57.18a2.531,2.531,0,0,1,.12-.82,2.5,2.5,0,0,1,2.36-1.8c1.66,0,2.24,1.3,2.24,2.86V63h1.76V57.22c0-3.32-2.08-4.12-3.42-4.12a3.56,3.56,0,0,0-3.2,1.82h-.04l-.1-1.6H21.2c.06.8.08,1.62.08,2.62Zm10.42-.46a5.52,5.52,0,0,0,2.72.66c2.3,0,3.62-1.2,3.62-2.9,0-1.44-.86-2.28-2.54-2.92-1.26-.48-1.84-.84-1.84-1.64,0-.72.58-1.32,1.62-1.32a3.767,3.767,0,0,1,1.98.56l.44-1.28a4.831,4.831,0,0,0-2.38-.6c-2.08,0-3.34,1.28-3.34,2.84,0,1.16.82,2.12,2.56,2.74,1.3.48,1.8.94,1.8,1.78,0,.8-.6,1.44-1.88,1.44a4.613,4.613,0,0,1-2.32-.7Zm16.38-4.06a6.637,6.637,0,0,0,.06-.82c0-1.78-.84-4.56-4-4.56-2.82,0-4.54,2.3-4.54,5.22s1.78,4.88,4.76,4.88a7.84,7.84,0,0,0,3.22-.6l-.3-1.26a6.364,6.364,0,0,1-2.68.5,3.1,3.1,0,0,1-3.32-3.36ZM41.3,57.22c.14-1.22.92-2.86,2.7-2.86,1.98,0,2.46,1.74,2.44,2.86ZM50.32,63h1.74V57.84a4.954,4.954,0,0,1,.08-.82,2.469,2.469,0,0,1,2.36-2.26,2.644,2.644,0,0,1,.6.06V53.16a1.9,1.9,0,0,0-.5-.06,2.9,2.9,0,0,0-2.68,2.12h-.08l-.06-1.9H50.24c.06.9.08,1.88.08,3.02Zm5.84-9.68L59.84,63h1.68l3.8-9.68H63.48L61.6,58.76c-.32.88-.6,1.68-.82,2.48h-.06a24.894,24.894,0,0,0-.78-2.48l-1.9-5.44ZM73.86,63a13.63,13.63,0,0,1-.16-2.32V57.06c0-1.94-.72-3.96-3.68-3.96a6.008,6.008,0,0,0-3.18.86l.4,1.16a4.823,4.823,0,0,1,2.52-.72,2,2,0,0,1,2.2,2.24v.2c-3.74-.02-5.82,1.26-5.82,3.6a2.758,2.758,0,0,0,2.96,2.78,3.605,3.605,0,0,0,2.96-1.44h.06L72.26,63ZM72,59.74a1.837,1.837,0,0,1-.1.56,2.408,2.408,0,0,1-2.34,1.62,1.557,1.557,0,0,1-1.66-1.68c0-1.88,2.18-2.22,4.1-2.18ZM76.54,63h1.74V57.84a4.954,4.954,0,0,1,.08-.82,2.469,2.469,0,0,1,2.36-2.26,2.644,2.644,0,0,1,.6.06V53.16a1.9,1.9,0,0,0-.5-.06,2.9,2.9,0,0,0-2.68,2.12h-.08L78,53.32H76.46c.06.9.08,1.88.08,3.02Zm18.88-9.68H93.66v5.94a2.574,2.574,0,0,1-.16.9,2.544,2.544,0,0,1-2.32,1.6c-1.6,0-2.16-1.24-2.16-3.08V53.32H87.26v5.66c0,3.4,1.82,4.24,3.34,4.24a3.642,3.642,0,0,0,3.2-1.8h.04l.1,1.58H95.5c-.06-.76-.08-1.64-.08-2.64ZM98.34,63h1.76V57.18a2.531,2.531,0,0,1,.12-.82,2.5,2.5,0,0,1,2.36-1.8c1.66,0,2.24,1.3,2.24,2.86V63h1.76V57.22c0-3.32-2.08-4.12-3.42-4.12a3.56,3.56,0,0,0-3.2,1.82h-.04l-.1-1.6H98.26c.06.8.08,1.62.08,2.62Zm18.06,0a13.63,13.63,0,0,1-.16-2.32V57.06c0-1.94-.72-3.96-3.68-3.96a6.008,6.008,0,0,0-3.18.86l.4,1.16a4.823,4.823,0,0,1,2.52-.72,2,2,0,0,1,2.2,2.24v.2c-3.74-.02-5.82,1.26-5.82,3.6a2.758,2.758,0,0,0,2.96,2.78,3.605,3.605,0,0,0,2.96-1.44h.06L114.8,63Zm-1.86-3.26a1.837,1.837,0,0,1-.1.56,2.408,2.408,0,0,1-2.34,1.62,1.557,1.557,0,0,1-1.66-1.68c0-1.88,2.18-2.22,4.1-2.18Zm15.38,1.58a5,5,0,0,1-2.16.48,3.319,3.319,0,0,1-3.36-3.62,3.35,3.35,0,0,1,3.42-3.66,4.081,4.081,0,0,1,2.04.46l.4-1.36a5.883,5.883,0,0,0-2.44-.5,4.918,4.918,0,0,0-5.2,5.14,4.6,4.6,0,0,0,4.82,4.94,6.483,6.483,0,0,0,2.78-.56Zm6.34-8.22c-2.68,0-4.8,1.9-4.8,5.14,0,3.06,2.02,4.98,4.64,4.98,2.34,0,4.82-1.56,4.82-5.14C140.92,55.12,139.04,53.1,136.26,53.1Zm-.04,1.32c2.08,0,2.9,2.08,2.9,3.72,0,2.18-1.26,3.76-2.94,3.76-1.72,0-2.94-1.6-2.94-3.72C133.24,56.34,134.14,54.42,136.22,54.42ZM143.14,63h1.76V57.16a2.131,2.131,0,0,1,.12-.84,2.529,2.529,0,0,1,2.36-1.76c1.66,0,2.24,1.32,2.24,2.88V63h1.76V57.24c0-3.34-2.08-4.14-3.38-4.14a3.622,3.622,0,0,0-1.8.5,3.266,3.266,0,0,0-1.26,1.24h-.04V48.8h-1.76Zm18.88-4.52a6.64,6.64,0,0,0,.06-.82c0-1.78-.84-4.56-4-4.56-2.82,0-4.54,2.3-4.54,5.22s1.78,4.88,4.76,4.88a7.84,7.84,0,0,0,3.22-.6l-.3-1.26a6.364,6.364,0,0,1-2.68.5,3.1,3.1,0,0,1-3.32-3.36Zm-6.78-1.26c.14-1.22.92-2.86,2.7-2.86,1.98,0,2.46,1.74,2.44,2.86ZM164.26,63H166V57.84a4.954,4.954,0,0,1,.08-.82,2.469,2.469,0,0,1,2.36-2.26,2.644,2.644,0,0,1,.6.06V53.16a1.9,1.9,0,0,0-.5-.06,2.9,2.9,0,0,0-2.68,2.12h-.08l-.06-1.9h-1.54c.06.9.08,1.88.08,3.02Zm14.12-4.52a6.64,6.64,0,0,0,.06-.82c0-1.78-.84-4.56-4-4.56-2.82,0-4.54,2.3-4.54,5.22s1.78,4.88,4.76,4.88a7.84,7.84,0,0,0,3.22-.6l-.3-1.26a6.364,6.364,0,0,1-2.68.5,3.1,3.1,0,0,1-3.32-3.36Zm-6.78-1.26c.14-1.22.92-2.86,2.7-2.86,1.98,0,2.46,1.74,2.44,2.86ZM180.62,63h1.76V57.18a2.531,2.531,0,0,1,.12-.82,2.5,2.5,0,0,1,2.36-1.8c1.66,0,2.24,1.3,2.24,2.86V63h1.76V57.22c0-3.32-2.08-4.12-3.42-4.12a3.56,3.56,0,0,0-3.2,1.82h-.04l-.1-1.6h-1.56c.06.8.08,1.62.08,2.62Zm17.7-1.68a5,5,0,0,1-2.16.48,3.319,3.319,0,0,1-3.36-3.62,3.35,3.35,0,0,1,3.42-3.66,4.081,4.081,0,0,1,2.04.46l.4-1.36a5.883,5.883,0,0,0-2.44-.5,4.918,4.918,0,0,0-5.2,5.14,4.6,4.6,0,0,0,4.82,4.94,6.483,6.483,0,0,0,2.78-.56ZM202.44,63V53.32h-1.76V63Zm-.88-13.5a1.072,1.072,0,0,0-1.1,1.1,1.09,1.09,0,1,0,1.1-1.1ZM212.32,63a13.63,13.63,0,0,1-.16-2.32V57.06c0-1.94-.72-3.96-3.68-3.96a6.008,6.008,0,0,0-3.18.86l.4,1.16a4.823,4.823,0,0,1,2.52-.72,2,2,0,0,1,2.2,2.24v.2c-3.74-.02-5.82,1.26-5.82,3.6a2.758,2.758,0,0,0,2.96,2.78,3.605,3.605,0,0,0,2.96-1.44h.06l.14,1.22Zm-1.86-3.26a1.837,1.837,0,0,1-.1.56,2.408,2.408,0,0,1-2.34,1.62,1.557,1.557,0,0,1-1.66-1.68c0-1.88,2.18-2.22,4.1-2.18ZM9.24,82.48a6.638,6.638,0,0,0,.06-.82c0-1.78-.84-4.56-4-4.56C2.48,77.1.76,79.4.76,82.32S2.54,87.2,5.52,87.2a7.84,7.84,0,0,0,3.22-.6l-.3-1.26a6.364,6.364,0,0,1-2.68.5,3.1,3.1,0,0,1-3.32-3.36ZM2.46,81.22c.14-1.22.92-2.86,2.7-2.86,1.98,0,2.46,1.74,2.44,2.86ZM11.48,87h1.76V81.18a2.531,2.531,0,0,1,.12-.82,2.5,2.5,0,0,1,2.36-1.8c1.66,0,2.24,1.3,2.24,2.86V87h1.76V81.22c0-3.32-2.08-4.12-3.42-4.12a3.56,3.56,0,0,0-3.2,1.82h-.04l-.1-1.6H11.4c.06.8.08,1.62.08,2.62ZM22.9,75v2.32H21.4v1.34h1.5v5.28a3.586,3.586,0,0,0,.68,2.52,2.439,2.439,0,0,0,1.9.74,4.308,4.308,0,0,0,1.56-.24l-.08-1.32a3.915,3.915,0,0,1-1.02.12c-.98,0-1.32-.68-1.32-1.88V78.66h2.52V77.32H24.62V74.54Zm6.22,12h1.74V81.84a4.954,4.954,0,0,1,.08-.82,2.469,2.469,0,0,1,2.36-2.26,2.644,2.644,0,0,1,.6.06V77.16a1.9,1.9,0,0,0-.5-.06,2.9,2.9,0,0,0-2.68,2.12h-.08l-.06-1.9H29.04c.06.9.08,1.88.08,3.02Zm14.12-4.52a6.637,6.637,0,0,0,.06-.82c0-1.78-.84-4.56-4-4.56-2.82,0-4.54,2.3-4.54,5.22s1.78,4.88,4.76,4.88a7.84,7.84,0,0,0,3.22-.6l-.3-1.26a6.364,6.364,0,0,1-2.68.5,3.1,3.1,0,0,1-3.32-3.36Zm-6.78-1.26c.14-1.22.92-2.86,2.7-2.86,1.98,0,2.46,1.74,2.44,2.86ZM57.5,82.48a6.637,6.637,0,0,0,.06-.82c0-1.78-.84-4.56-4-4.56-2.82,0-4.54,2.3-4.54,5.22s1.78,4.88,4.76,4.88A7.84,7.84,0,0,0,57,86.6l-.3-1.26a6.364,6.364,0,0,1-2.68.5,3.1,3.1,0,0,1-3.32-3.36Zm-6.78-1.26c.14-1.22.92-2.86,2.7-2.86,1.98,0,2.46,1.74,2.44,2.86ZM59.74,87H61.5V72.8H59.74Zm4.72,0h1.76V72.8H64.46Zm11.68,0a13.63,13.63,0,0,1-.16-2.32V81.06c0-1.94-.72-3.96-3.68-3.96a6.008,6.008,0,0,0-3.18.86l.4,1.16a4.823,4.823,0,0,1,2.52-.72,2,2,0,0,1,2.2,2.24v.2c-3.74-.02-5.82,1.26-5.82,3.6a2.758,2.758,0,0,0,2.96,2.78,3.605,3.605,0,0,0,2.96-1.44h.06L74.54,87Zm-1.86-3.26a1.837,1.837,0,0,1-.1.56,2.408,2.408,0,0,1-2.34,1.62,1.557,1.557,0,0,1-1.66-1.68c0-1.88,2.18-2.22,4.1-2.18Zm3.86,2.8a5.52,5.52,0,0,0,2.72.66c2.3,0,3.62-1.2,3.62-2.9,0-1.44-.86-2.28-2.54-2.92-1.26-.48-1.84-.84-1.84-1.64,0-.72.58-1.32,1.62-1.32a3.767,3.767,0,0,1,1.98.56l.44-1.28a4.832,4.832,0,0,0-2.38-.6c-2.08,0-3.34,1.28-3.34,2.84,0,1.16.82,2.12,2.56,2.74,1.3.48,1.8.94,1.8,1.78,0,.8-.6,1.44-1.88,1.44a4.612,4.612,0,0,1-2.32-.7Zm9.14.68a1.262,1.262,0,1,0-1.18-1.26A1.171,1.171,0,0,0,87.28,87.22ZM8.5,127.24H3.26v-4.26H8.8v-1.46H1.52V135H9.1v-1.46H3.26v-4.86H8.5Zm2.12,7.3a5.52,5.52,0,0,0,2.72.66c2.3,0,3.62-1.2,3.62-2.9,0-1.44-.86-2.28-2.54-2.92-1.26-.48-1.84-.84-1.84-1.64,0-.72.58-1.32,1.62-1.32a3.767,3.767,0,0,1,1.98.56l.44-1.28a4.832,4.832,0,0,0-2.38-.6c-2.08,0-3.34,1.28-3.34,2.84,0,1.16.82,2.12,2.56,2.74,1.3.48,1.8.94,1.8,1.78,0,.8-.6,1.44-1.88,1.44a4.613,4.613,0,0,1-2.32-.7Zm9-11.54v2.32h-1.5v1.34h1.5v5.28a3.586,3.586,0,0,0,.68,2.52,2.439,2.439,0,0,0,1.9.74,4.308,4.308,0,0,0,1.56-.24l-.08-1.32a3.915,3.915,0,0,1-1.02.12c-.98,0-1.32-.68-1.32-1.88v-5.22h2.52v-1.34H21.34v-2.78ZM32.8,135a13.629,13.629,0,0,1-.16-2.32v-3.62c0-1.94-.72-3.96-3.68-3.96a6.008,6.008,0,0,0-3.18.86l.4,1.16a4.823,4.823,0,0,1,2.52-.72,2,2,0,0,1,2.2,2.24v.2c-3.74-.02-5.82,1.26-5.82,3.6a2.758,2.758,0,0,0,2.96,2.78A3.605,3.605,0,0,0,31,133.78h.06L31.2,135Zm-1.86-3.26a1.837,1.837,0,0,1-.1.56,2.408,2.408,0,0,1-2.34,1.62,1.557,1.557,0,0,1-1.66-1.68c0-1.88,2.18-2.22,4.1-2.18Zm8.1,2.8a5.52,5.52,0,0,0,2.72.66c2.3,0,3.62-1.2,3.62-2.9,0-1.44-.86-2.28-2.54-2.92-1.26-.48-1.84-.84-1.84-1.64,0-.72.58-1.32,1.62-1.32a3.767,3.767,0,0,1,1.98.56l.44-1.28a4.831,4.831,0,0,0-2.38-.6c-2.08,0-3.34,1.28-3.34,2.84,0,1.16.82,2.12,2.56,2.74,1.3.48,1.8.94,1.8,1.78,0,.8-.6,1.44-1.88,1.44a4.613,4.613,0,0,1-2.32-.7Zm16.38-4.06a6.637,6.637,0,0,0,.06-.82c0-1.78-.84-4.56-4-4.56-2.82,0-4.54,2.3-4.54,5.22s1.78,4.88,4.76,4.88a7.84,7.84,0,0,0,3.22-.6l-.3-1.26a6.364,6.364,0,0,1-2.68.5,3.1,3.1,0,0,1-3.32-3.36Zm-6.78-1.26c.14-1.22.92-2.86,2.7-2.86,1.98,0,2.46,1.74,2.44,2.86Zm19.86,4.1a5,5,0,0,1-2.16.48,3.649,3.649,0,0,1,.06-7.28,4.081,4.081,0,0,1,2.04.46l.4-1.36a5.883,5.883,0,0,0-2.44-.5,4.918,4.918,0,0,0-5.2,5.14,4.6,4.6,0,0,0,4.82,4.94,6.483,6.483,0,0,0,2.78-.56Zm6.34-8.22c-2.68,0-4.8,1.9-4.8,5.14,0,3.06,2.02,4.98,4.64,4.98,2.34,0,4.82-1.56,4.82-5.14C79.5,127.12,77.62,125.1,74.84,125.1Zm-.04,1.32c2.08,0,2.9,2.08,2.9,3.72,0,2.18-1.26,3.76-2.94,3.76-1.72,0-2.94-1.6-2.94-3.72C71.82,128.34,72.72,126.42,74.8,126.42ZM81.72,135h1.76v-5.82a2.531,2.531,0,0,1,.12-.82,2.5,2.5,0,0,1,2.36-1.8c1.66,0,2.24,1.3,2.24,2.86V135h1.76v-5.78c0-3.32-2.08-4.12-3.42-4.12a3.56,3.56,0,0,0-3.2,1.82H83.3l-.1-1.6H81.64c.06.8.08,1.62.08,2.62Zm10.42-.46a5.52,5.52,0,0,0,2.72.66c2.3,0,3.62-1.2,3.62-2.9,0-1.44-.86-2.28-2.54-2.92-1.26-.48-1.84-.84-1.84-1.64,0-.72.58-1.32,1.62-1.32a3.767,3.767,0,0,1,1.98.56l.44-1.28a4.832,4.832,0,0,0-2.38-.6c-2.08,0-3.34,1.28-3.34,2.84,0,1.16.82,2.12,2.56,2.74,1.3.48,1.8.94,1.8,1.78,0,.8-.6,1.44-1.88,1.44a4.613,4.613,0,0,1-2.32-.7Zm16.38-4.06a6.637,6.637,0,0,0,.06-.82c0-1.78-.84-4.56-4-4.56-2.82,0-4.54,2.3-4.54,5.22s1.78,4.88,4.76,4.88a7.84,7.84,0,0,0,3.22-.6l-.3-1.26a6.364,6.364,0,0,1-2.68.5,3.1,3.1,0,0,1-3.32-3.36Zm-6.78-1.26c.14-1.22.92-2.86,2.7-2.86,1.98,0,2.46,1.74,2.44,2.86Zm15.82-3.9-.08,1.46h-.04a3.22,3.22,0,0,0-3.02-1.68c-2.22,0-4.36,1.86-4.36,5.14,0,2.68,1.72,4.72,4.12,4.72a3.456,3.456,0,0,0,3.08-1.62h.04v1.08c0,2.44-1.32,3.38-3.12,3.38a5.458,5.458,0,0,1-2.84-.76l-.44,1.34a6.248,6.248,0,0,0,3.22.8,5.132,5.132,0,0,0,3.52-1.16c.94-.84,1.38-2.2,1.38-4.42v-5.62c0-1.18.04-1.96.08-2.66Zm-.28,5.56a3.062,3.062,0,0,1-.14.94,2.573,2.573,0,0,1-2.44,1.8c-1.9,0-2.86-1.58-2.86-3.48,0-2.24,1.2-3.66,2.88-3.66a2.535,2.535,0,0,1,2.46,1.86,2.506,2.506,0,0,1,.1.8Zm12.76-5.56h-1.76v5.94a2.574,2.574,0,0,1-.16.9,2.544,2.544,0,0,1-2.32,1.6c-1.6,0-2.16-1.24-2.16-3.08v-5.36h-1.76v5.66c0,3.4,1.82,4.24,3.34,4.24a3.642,3.642,0,0,0,3.2-1.8h.04l.1,1.58h1.56c-.06-.76-.08-1.64-.08-2.64Zm4.68,9.68v-9.68h-1.76V135Zm-.88-13.5a1.072,1.072,0,0,0-1.1,1.1,1.09,1.09,0,1,0,1.1-1.1Zm3.8,13.5h1.74v-5.16a4.954,4.954,0,0,1,.08-.82,2.469,2.469,0,0,1,2.36-2.26,2.644,2.644,0,0,1,.6.06v-1.66a1.9,1.9,0,0,0-.5-.06,2.9,2.9,0,0,0-2.68,2.12h-.08l-.06-1.9h-1.54c.06.9.08,1.88.08,3.02Zm13.4,0a13.63,13.63,0,0,1-.16-2.32v-3.62c0-1.94-.72-3.96-3.68-3.96a6.008,6.008,0,0,0-3.18.86l.4,1.16a4.823,4.823,0,0,1,2.52-.72,2,2,0,0,1,2.2,2.24v.2c-3.74-.02-5.82,1.26-5.82,3.6a2.758,2.758,0,0,0,2.96,2.78,3.605,3.605,0,0,0,2.96-1.44h.06l.14,1.22Zm-1.86-3.26a1.837,1.837,0,0,1-.1.56,2.408,2.408,0,0,1-2.34,1.62,1.557,1.557,0,0,1-1.66-1.68c0-1.88,2.18-2.22,4.1-2.18Zm-1.06-10.6L146.36,124h1.26l2.44-2.86ZM157.96,135h1.72v-5.84a2.623,2.623,0,0,1,2.32-2.62c1.34,0,2.02,1.12,2.02,2.66V135h1.72v-5.98a2.9,2.9,0,0,1,.14-.88,2.279,2.279,0,0,1,2.08-1.6c1.42,0,2.1,1.12,2.1,2.98V135h1.72v-5.7c0-3.36-1.9-4.2-3.18-4.2a3.3,3.3,0,0,0-2.14.68,3.988,3.988,0,0,0-1.08,1.26h-.04a2.862,2.862,0,0,0-2.74-1.94,3.336,3.336,0,0,0-3.04,1.78h-.06l-.08-1.56h-1.54c.06.8.08,1.62.08,2.62Zm24.46-4.52a6.64,6.64,0,0,0,.06-.82c0-1.78-.84-4.56-4-4.56-2.82,0-4.54,2.3-4.54,5.22s1.78,4.88,4.76,4.88a7.841,7.841,0,0,0,3.22-.6l-.3-1.26a6.364,6.364,0,0,1-2.68.5,3.1,3.1,0,0,1-3.32-3.36Zm-6.78-1.26c.14-1.22.92-2.86,2.7-2.86,1.98,0,2.46,1.74,2.44,2.86Zm15.62-8.42v5.78h-.04a3.237,3.237,0,0,0-2.92-1.48c-2.36,0-4.36,1.98-4.34,5.2,0,2.94,1.8,4.92,4.14,4.92a3.581,3.581,0,0,0,3.3-1.9h.04l.08,1.68h1.58c-.06-.66-.08-1.64-.08-2.5V120.8Zm0,10.14a3.057,3.057,0,0,1-.08.76,2.646,2.646,0,0,1-2.58,2.1c-1.9,0-2.86-1.62-2.86-3.58,0-2.14,1.08-3.74,2.9-3.74a2.588,2.588,0,0,1,2.54,2.04,3.107,3.107,0,0,1,.08.74ZM197.7,135v-9.68h-1.76V135Zm-.88-13.5a1.072,1.072,0,0,0-1.1,1.1,1.09,1.09,0,1,0,1.1-1.1ZM207.58,135a13.63,13.63,0,0,1-.16-2.32v-3.62c0-1.94-.72-3.96-3.68-3.96a6.008,6.008,0,0,0-3.18.86l.4,1.16a4.823,4.823,0,0,1,2.52-.72,2,2,0,0,1,2.2,2.24v.2c-3.74-.02-5.82,1.26-5.82,3.6a2.758,2.758,0,0,0,2.96,2.78,3.605,3.605,0,0,0,2.96-1.44h.06l.14,1.22Zm-1.86-3.26a1.837,1.837,0,0,1-.1.56,2.408,2.408,0,0,1-2.34,1.62,1.557,1.557,0,0,1-1.66-1.68c0-1.88,2.18-2.22,4.1-2.18Zm4.54,3.26h1.76v-5.82a2.531,2.531,0,0,1,.12-.82,2.5,2.5,0,0,1,2.36-1.8c1.66,0,2.24,1.3,2.24,2.86V135h1.76v-5.78c0-3.32-2.08-4.12-3.42-4.12a3.56,3.56,0,0,0-3.2,1.82h-.04l-.1-1.6h-1.56c.06.8.08,1.62.08,2.62Zm11.42-12v2.32h-1.5v1.34h1.5v5.28a3.586,3.586,0,0,0,.68,2.52,2.439,2.439,0,0,0,1.9.74,4.308,4.308,0,0,0,1.56-.24l-.08-1.32a3.915,3.915,0,0,1-1.02.12c-.98,0-1.32-.68-1.32-1.88v-5.22h2.52v-1.34H223.4v-2.78Zm13.88,7.48a6.64,6.64,0,0,0,.06-.82c0-1.78-.84-4.56-4-4.56-2.82,0-4.54,2.3-4.54,5.22s1.78,4.88,4.76,4.88a7.841,7.841,0,0,0,3.22-.6l-.3-1.26a6.364,6.364,0,0,1-2.68.5,3.1,3.1,0,0,1-3.32-3.36Zm-6.78-1.26c.14-1.22.92-2.86,2.7-2.86,1.98,0,2.46,1.74,2.44,2.86ZM9.24,154.48a6.638,6.638,0,0,0,.06-.82c0-1.78-.84-4.56-4-4.56-2.82,0-4.54,2.3-4.54,5.22s1.78,4.88,4.76,4.88a7.84,7.84,0,0,0,3.22-.6l-.3-1.26a6.364,6.364,0,0,1-2.68.5,3.1,3.1,0,0,1-3.32-3.36Zm-6.78-1.26c.14-1.22.92-2.86,2.7-2.86,1.98,0,2.46,1.74,2.44,2.86ZM11.48,159h1.76V144.8H11.48Zm17.06-9.68H26.78v5.94a2.574,2.574,0,0,1-.16.9,2.544,2.544,0,0,1-2.32,1.6c-1.6,0-2.16-1.24-2.16-3.08v-5.36H20.38v5.66c0,3.4,1.82,4.24,3.34,4.24a3.642,3.642,0,0,0,3.2-1.8h.04l.1,1.58h1.56c-.06-.76-.08-1.64-.08-2.64Zm2.24,9.22a5.52,5.52,0,0,0,2.72.66c2.3,0,3.62-1.2,3.62-2.9,0-1.44-.86-2.28-2.54-2.92-1.26-.48-1.84-.84-1.84-1.64,0-.72.58-1.32,1.62-1.32a3.767,3.767,0,0,1,1.98.56l.44-1.28a4.832,4.832,0,0,0-2.38-.6c-2.08,0-3.34,1.28-3.34,2.84,0,1.16.82,2.12,2.56,2.74,1.3.48,1.8.94,1.8,1.78,0,.8-.6,1.44-1.88,1.44a4.613,4.613,0,0,1-2.32-.7Zm12.7-9.44c-2.68,0-4.8,1.9-4.8,5.14,0,3.06,2.02,4.98,4.64,4.98,2.34,0,4.82-1.56,4.82-5.14C48.14,151.12,46.26,149.1,43.48,149.1Zm-.04,1.32c2.08,0,2.9,2.08,2.9,3.72,0,2.18-1.26,3.76-2.94,3.76-1.72,0-2.94-1.6-2.94-3.72C40.46,152.34,41.36,150.42,43.44,150.42ZM61.2,144.8v5.78h-.04a3.237,3.237,0,0,0-2.92-1.48c-2.36,0-4.36,1.98-4.34,5.2,0,2.94,1.8,4.92,4.14,4.92a3.581,3.581,0,0,0,3.3-1.9h.04l.08,1.68h1.58c-.06-.66-.08-1.64-.08-2.5V144.8Zm0,10.14a3.057,3.057,0,0,1-.08.76,2.646,2.646,0,0,1-2.58,2.1c-1.9,0-2.86-1.62-2.86-3.58,0-2.14,1.08-3.74,2.9-3.74a2.588,2.588,0,0,1,2.54,2.04,3.107,3.107,0,0,1,.08.74Zm12.46-.46a6.637,6.637,0,0,0,.06-.82c0-1.78-.84-4.56-4-4.56-2.82,0-4.54,2.3-4.54,5.22s1.78,4.88,4.76,4.88a7.84,7.84,0,0,0,3.22-.6l-.3-1.26a6.364,6.364,0,0,1-2.68.5,3.1,3.1,0,0,1-3.32-3.36Zm-6.78-1.26c.14-1.22.92-2.86,2.7-2.86,1.98,0,2.46,1.74,2.44,2.86ZM82.06,159v-8.34H84.4v-1.34H82.06v-.52c0-1.48.38-2.8,1.88-2.8a2.628,2.628,0,0,1,1.12.22l.24-1.36a4.081,4.081,0,0,0-1.5-.28,3.368,3.368,0,0,0-2.36.9,4.563,4.563,0,0,0-1.12,3.38v.46H78.96v1.34h1.36V159Zm7.76-9.9c-2.68,0-4.8,1.9-4.8,5.14,0,3.06,2.02,4.98,4.64,4.98,2.34,0,4.82-1.56,4.82-5.14C94.48,151.12,92.6,149.1,89.82,149.1Zm-.04,1.32c2.08,0,2.9,2.08,2.9,3.72,0,2.18-1.26,3.76-2.94,3.76-1.72,0-2.94-1.6-2.94-3.72C86.8,152.34,87.7,150.42,89.78,150.42ZM96.7,159h1.74v-5.16a4.953,4.953,0,0,1,.08-.82,2.469,2.469,0,0,1,2.36-2.26,2.643,2.643,0,0,1,.6.06v-1.66a1.9,1.9,0,0,0-.5-.06,2.9,2.9,0,0,0-2.68,2.12h-.08l-.06-1.9H96.62c.06.9.08,1.88.08,3.02Zm6.62,0h1.72v-5.84a2.623,2.623,0,0,1,2.32-2.62c1.34,0,2.02,1.12,2.02,2.66V159h1.72v-5.98a2.9,2.9,0,0,1,.14-.88,2.279,2.279,0,0,1,2.08-1.6c1.42,0,2.1,1.12,2.1,2.98V159h1.72v-5.7c0-3.36-1.9-4.2-3.18-4.2a3.3,3.3,0,0,0-2.14.68,3.988,3.988,0,0,0-1.08,1.26h-.04a2.862,2.862,0,0,0-2.74-1.94,3.336,3.336,0,0,0-3.04,1.78h-.06l-.08-1.56h-1.54c.06.8.08,1.62.08,2.62Zm23.64,0a13.63,13.63,0,0,1-.16-2.32v-3.62c0-1.94-.72-3.96-3.68-3.96a6.008,6.008,0,0,0-3.18.86l.4,1.16a4.823,4.823,0,0,1,2.52-.72,2,2,0,0,1,2.2,2.24v.2c-3.74-.02-5.82,1.26-5.82,3.6a2.758,2.758,0,0,0,2.96,2.78,3.605,3.605,0,0,0,2.96-1.44h.06l.14,1.22Zm-1.86-3.26a1.837,1.837,0,0,1-.1.56,2.408,2.408,0,0,1-2.34,1.62,1.557,1.557,0,0,1-1.66-1.68c0-1.88,2.18-2.22,4.1-2.18Zm3.86,2.8a5.52,5.52,0,0,0,2.72.66c2.3,0,3.62-1.2,3.62-2.9,0-1.44-.86-2.28-2.54-2.92-1.26-.48-1.84-.84-1.84-1.64,0-.72.58-1.32,1.62-1.32a3.767,3.767,0,0,1,1.98.56l.44-1.28a4.832,4.832,0,0,0-2.38-.6c-2.08,0-3.34,1.28-3.34,2.84,0,1.16.82,2.12,2.56,2.74,1.3.48,1.8.94,1.8,1.78,0,.8-.6,1.44-1.88,1.44a4.613,4.613,0,0,1-2.32-.7Zm12.16,0a5.52,5.52,0,0,0,2.72.66c2.3,0,3.62-1.2,3.62-2.9,0-1.44-.86-2.28-2.54-2.92-1.26-.48-1.84-.84-1.84-1.64,0-.72.58-1.32,1.62-1.32a3.767,3.767,0,0,1,1.98.56l.44-1.28a4.832,4.832,0,0,0-2.38-.6c-2.08,0-3.34,1.28-3.34,2.84,0,1.16.82,2.12,2.56,2.74,1.3.48,1.8.94,1.8,1.78,0,.8-.6,1.44-1.88,1.44a4.613,4.613,0,0,1-2.32-.7Zm16.38-4.06a6.64,6.64,0,0,0,.06-.82c0-1.78-.84-4.56-4-4.56-2.82,0-4.54,2.3-4.54,5.22s1.78,4.88,4.76,4.88a7.841,7.841,0,0,0,3.22-.6l-.3-1.26a6.364,6.364,0,0,1-2.68.5,3.1,3.1,0,0,1-3.32-3.36Zm-6.78-1.26c.14-1.22.92-2.86,2.7-2.86,1.98,0,2.46,1.74,2.44,2.86Zm9.02,5.78h1.76v-5.82a2.531,2.531,0,0,1,.12-.82,2.5,2.5,0,0,1,2.36-1.8c1.66,0,2.24,1.3,2.24,2.86V159h1.76v-5.78c0-3.32-2.08-4.12-3.42-4.12a3.56,3.56,0,0,0-3.2,1.82h-.04l-.1-1.6h-1.56c.06.8.08,1.62.08,2.62Zm17.7-1.68a5,5,0,0,1-2.16.48,3.649,3.649,0,0,1,.06-7.28,4.081,4.081,0,0,1,2.04.46l.4-1.36a5.883,5.883,0,0,0-2.44-.5,4.918,4.918,0,0,0-5.2,5.14,4.6,4.6,0,0,0,4.82,4.94,6.483,6.483,0,0,0,2.78-.56Zm4.12,1.68v-9.68H179.8V159Zm-.88-13.5a1.072,1.072,0,0,0-1.1,1.1,1.09,1.09,0,1,0,1.1-1.1Zm3.8,13.5h1.76V144.8h-1.76Zm4.72,0h1.76V144.8H189.2Zm11.68,0a13.63,13.63,0,0,1-.16-2.32v-3.62c0-1.94-.72-3.96-3.68-3.96a6.008,6.008,0,0,0-3.18.86l.4,1.16a4.823,4.823,0,0,1,2.52-.72,2,2,0,0,1,2.2,2.24v.2c-3.74-.02-5.82,1.26-5.82,3.6a2.758,2.758,0,0,0,2.96,2.78,3.605,3.605,0,0,0,2.96-1.44h.06l.14,1.22Zm-1.86-3.26a1.837,1.837,0,0,1-.1.56,2.408,2.408,0,0,1-2.34,1.62,1.557,1.557,0,0,1-1.66-1.68c0-1.88,2.18-2.22,4.1-2.18Zm3.86,2.8a5.52,5.52,0,0,0,2.72.66c2.3,0,3.62-1.2,3.62-2.9,0-1.44-.86-2.28-2.54-2.92-1.26-.48-1.84-.84-1.84-1.64,0-.72.58-1.32,1.62-1.32a3.767,3.767,0,0,1,1.98.56l.44-1.28a4.832,4.832,0,0,0-2.38-.6c-2.08,0-3.34,1.28-3.34,2.84,0,1.16.82,2.12,2.56,2.74,1.3.48,1.8.94,1.8,1.78,0,.8-.6,1.44-1.88,1.44a4.613,4.613,0,0,1-2.32-.7Zm11.56-9.22,3.58,8.92a1.535,1.535,0,0,1,.12.46,1.263,1.263,0,0,1-.14.42,5.336,5.336,0,0,1-1.48,1.96,4.655,4.655,0,0,1-1.54.86l.44,1.48a4.769,4.769,0,0,0,2.16-1.14c1.2-1.04,2.06-2.74,3.32-6.06l2.64-6.9h-1.86L219.76,155c-.24.7-.44,1.44-.62,2.02h-.04c-.16-.58-.4-1.34-.62-1.98l-2.12-5.72ZM1.46,183H3.2v-5.16a4.953,4.953,0,0,1,.08-.82,2.469,2.469,0,0,1,2.36-2.26,2.643,2.643,0,0,1,.6.06v-1.66a1.9,1.9,0,0,0-.5-.06,2.9,2.9,0,0,0-2.68,2.12H2.98l-.06-1.9H1.38c.06.9.08,1.88.08,3.02Zm14.12-4.52a6.638,6.638,0,0,0,.06-.82c0-1.78-.84-4.56-4-4.56-2.82,0-4.54,2.3-4.54,5.22s1.78,4.88,4.76,4.88a7.84,7.84,0,0,0,3.22-.6l-.3-1.26a6.364,6.364,0,0,1-2.68.5,3.1,3.1,0,0,1-3.32-3.36ZM8.8,177.22c.14-1.22.92-2.86,2.7-2.86,1.98,0,2.46,1.74,2.44,2.86Zm9.02,9.74h1.74V181.7h.04a3.4,3.4,0,0,0,2.98,1.52c2.28,0,4.4-1.72,4.4-5.2,0-2.94-1.76-4.92-4.1-4.92a3.806,3.806,0,0,0-3.44,1.88H19.4l-.08-1.66H17.74c.04.92.08,1.92.08,3.16Zm1.74-9.56a2.854,2.854,0,0,1,.12-.72,2.808,2.808,0,0,1,2.66-2.18c1.86,0,2.88,1.66,2.88,3.6,0,2.22-1.08,3.74-2.94,3.74a2.716,2.716,0,0,1-2.64-2.06,3.963,3.963,0,0,1-.08-.72Zm17.42,1.08a6.637,6.637,0,0,0,.06-.82c0-1.78-.84-4.56-4-4.56-2.82,0-4.54,2.3-4.54,5.22s1.78,4.88,4.76,4.88a7.84,7.84,0,0,0,3.22-.6l-.3-1.26a6.364,6.364,0,0,1-2.68.5,3.1,3.1,0,0,1-3.32-3.36Zm-6.78-1.26c.14-1.22.92-2.86,2.7-2.86,1.98,0,2.46,1.74,2.44,2.86ZM39.62,171v2.32h-1.5v1.34h1.5v5.28a3.586,3.586,0,0,0,.68,2.52,2.439,2.439,0,0,0,1.9.74,4.308,4.308,0,0,0,1.56-.24l-.08-1.32a3.915,3.915,0,0,1-1.02.12c-.98,0-1.32-.68-1.32-1.88v-5.22h2.52v-1.34H41.34v-2.78Zm7.98,12v-9.68H45.84V183Zm-.88-13.5a1.072,1.072,0,0,0-1.1,1.1,1.09,1.09,0,1,0,1.1-1.1Zm4.2,1.5v2.32h-1.5v1.34h1.5v5.28a3.586,3.586,0,0,0,.68,2.52,2.439,2.439,0,0,0,1.9.74,4.308,4.308,0,0,0,1.56-.24l-.08-1.32a3.915,3.915,0,0,1-1.02.12c-.98,0-1.32-.68-1.32-1.88v-5.22h2.52v-1.34H52.64v-2.78Zm7.98,12v-9.68H57.14V183Zm-.88-13.5a1.072,1.072,0,0,0-1.1,1.1,1.09,1.09,0,1,0,1.1-1.1Zm2.6,3.82L64.3,183h1.68l3.8-9.68H67.94l-1.88,5.44c-.32.88-.6,1.68-.82,2.48h-.06a24.9,24.9,0,0,0-.78-2.48l-1.9-5.44ZM78.32,183a13.63,13.63,0,0,1-.16-2.32v-3.62c0-1.94-.72-3.96-3.68-3.96a6.008,6.008,0,0,0-3.18.86l.4,1.16a4.823,4.823,0,0,1,2.52-.72,2,2,0,0,1,2.2,2.24v.2c-3.74-.02-5.82,1.26-5.82,3.6a2.758,2.758,0,0,0,2.96,2.78,3.605,3.605,0,0,0,2.96-1.44h.06l.14,1.22Zm-1.86-3.26a1.837,1.837,0,0,1-.1.56,2.408,2.408,0,0,1-2.34,1.62,1.557,1.557,0,0,1-1.66-1.68c0-1.88,2.18-2.22,4.1-2.18Zm3.86,2.8a5.52,5.52,0,0,0,2.72.66c2.3,0,3.62-1.2,3.62-2.9,0-1.44-.86-2.28-2.54-2.92-1.26-.48-1.84-.84-1.84-1.64,0-.72.58-1.32,1.62-1.32a3.767,3.767,0,0,1,1.98.56l.44-1.28a4.832,4.832,0,0,0-2.38-.6c-2.08,0-3.34,1.28-3.34,2.84,0,1.16.82,2.12,2.56,2.74,1.3.48,1.8.94,1.8,1.78,0,.8-.6,1.44-1.88,1.44a4.613,4.613,0,0,1-2.32-.7Zm8.5,2.8a24.383,24.383,0,0,0,1.9-4.86l-1.96.2a28.776,28.776,0,0,1-1.2,4.78Zm7.58-2.8a5.52,5.52,0,0,0,2.72.66c2.3,0,3.62-1.2,3.62-2.9,0-1.44-.86-2.28-2.54-2.92-1.26-.48-1.84-.84-1.84-1.64,0-.72.58-1.32,1.62-1.32a3.767,3.767,0,0,1,1.98.56l.44-1.28a4.832,4.832,0,0,0-2.38-.6c-2.08,0-3.34,1.28-3.34,2.84,0,1.16.82,2.12,2.56,2.74,1.3.48,1.8.94,1.8,1.78,0,.8-.6,1.44-1.88,1.44a4.613,4.613,0,0,1-2.32-.7Zm16.38-4.06a6.637,6.637,0,0,0,.06-.82c0-1.78-.84-4.56-4-4.56-2.82,0-4.54,2.3-4.54,5.22s1.78,4.88,4.76,4.88a7.84,7.84,0,0,0,3.22-.6l-.3-1.26a6.364,6.364,0,0,1-2.68.5,3.1,3.1,0,0,1-3.32-3.36ZM106,177.22c.14-1.22.92-2.86,2.7-2.86,1.98,0,2.46,1.74,2.44,2.86Zm15.82-3.9-.08,1.46h-.04a3.22,3.22,0,0,0-3.02-1.68c-2.22,0-4.36,1.86-4.36,5.14,0,2.68,1.72,4.72,4.12,4.72a3.456,3.456,0,0,0,3.08-1.62h.04v1.08c0,2.44-1.32,3.38-3.12,3.38a5.458,5.458,0,0,1-2.84-.76l-.44,1.34a6.248,6.248,0,0,0,3.22.8,5.132,5.132,0,0,0,3.52-1.16c.94-.84,1.38-2.2,1.38-4.42v-5.62c0-1.18.04-1.96.08-2.66Zm-.28,5.56a3.062,3.062,0,0,1-.14.94,2.573,2.573,0,0,1-2.44,1.8c-1.9,0-2.86-1.58-2.86-3.48,0-2.24,1.2-3.66,2.88-3.66a2.535,2.535,0,0,1,2.46,1.86,2.506,2.506,0,0,1,.1.8Zm4.54,4.12h1.72v-5.84a2.623,2.623,0,0,1,2.32-2.62c1.34,0,2.02,1.12,2.02,2.66V183h1.72v-5.98a2.9,2.9,0,0,1,.14-.88,2.279,2.279,0,0,1,2.08-1.6c1.42,0,2.1,1.12,2.1,2.98V183h1.72v-5.7c0-3.36-1.9-4.2-3.18-4.2a3.3,3.3,0,0,0-2.14.68,3.988,3.988,0,0,0-1.08,1.26h-.04a2.862,2.862,0,0,0-2.74-1.94,3.336,3.336,0,0,0-3.04,1.78h-.06l-.08-1.56H126c.06.8.08,1.62.08,2.62Zm24.46-4.52a6.64,6.64,0,0,0,.06-.82c0-1.78-.84-4.56-4-4.56-2.82,0-4.54,2.3-4.54,5.22s1.78,4.88,4.76,4.88a7.841,7.841,0,0,0,3.22-.6l-.3-1.26a6.364,6.364,0,0,1-2.68.5,3.1,3.1,0,0,1-3.32-3.36Zm-6.78-1.26c.14-1.22.92-2.86,2.7-2.86,1.98,0,2.46,1.74,2.44,2.86Zm9.02,5.78h1.76v-5.82a2.531,2.531,0,0,1,.12-.82,2.5,2.5,0,0,1,2.36-1.8c1.66,0,2.24,1.3,2.24,2.86V183h1.76v-5.78c0-3.32-2.08-4.12-3.42-4.12a3.56,3.56,0,0,0-3.2,1.82h-.04l-.1-1.6H152.7c.06.8.08,1.62.08,2.62Zm11.42-12v2.32h-1.5v1.34h1.5v5.28a3.586,3.586,0,0,0,.68,2.52,2.439,2.439,0,0,0,1.9.74,4.308,4.308,0,0,0,1.56-.24l-.08-1.32a3.915,3.915,0,0,1-1.02.12c-.98,0-1.32-.68-1.32-1.88v-5.22h2.52v-1.34h-2.52v-2.78Zm13.18,12a13.63,13.63,0,0,1-.16-2.32v-3.62c0-1.94-.72-3.96-3.68-3.96a6.008,6.008,0,0,0-3.18.86l.4,1.16a4.823,4.823,0,0,1,2.52-.72,2,2,0,0,1,2.2,2.24v.2c-3.74-.02-5.82,1.26-5.82,3.6a2.758,2.758,0,0,0,2.96,2.78,3.605,3.605,0,0,0,2.96-1.44h.06l.14,1.22Zm-1.86-3.26a1.837,1.837,0,0,1-.1.56,2.408,2.408,0,0,1-2.34,1.62,1.557,1.557,0,0,1-1.66-1.68c0-1.88,2.18-2.22,4.1-2.18Zm4.54,3.26h1.76v-5.82a2.531,2.531,0,0,1,.12-.82,2.5,2.5,0,0,1,2.36-1.8c1.66,0,2.24,1.3,2.24,2.86V183h1.76v-5.78c0-3.32-2.08-4.12-3.42-4.12a3.56,3.56,0,0,0-3.2,1.82h-.04l-.1-1.6h-1.56c.06.8.08,1.62.08,2.62Zm17.7-14.2v5.78h-.04a3.237,3.237,0,0,0-2.92-1.48c-2.36,0-4.36,1.98-4.34,5.2,0,2.94,1.8,4.92,4.14,4.92a3.581,3.581,0,0,0,3.3-1.9h.04l.08,1.68h1.58c-.06-.66-.08-1.64-.08-2.5V168.8Zm0,10.14a3.057,3.057,0,0,1-.08.76,2.646,2.646,0,0,1-2.58,2.1c-1.9,0-2.86-1.62-2.86-3.58,0-2.14,1.08-3.74,2.9-3.74a2.588,2.588,0,0,1,2.54,2.04,3.107,3.107,0,0,1,.08.74Zm8.78-5.84c-2.68,0-4.8,1.9-4.8,5.14,0,3.06,2.02,4.98,4.64,4.98,2.34,0,4.82-1.56,4.82-5.14C211.2,175.12,209.32,173.1,206.54,173.1Zm-.04,1.32c2.08,0,2.9,2.08,2.9,3.72,0,2.18-1.26,3.76-2.94,3.76-1.72,0-2.94-1.6-2.94-3.72C203.52,176.34,204.42,174.42,206.5,174.42Zm11.16,12.54h1.74V181.7h.04a3.4,3.4,0,0,0,2.98,1.52c2.28,0,4.4-1.72,4.4-5.2,0-2.94-1.76-4.92-4.1-4.92a3.806,3.806,0,0,0-3.44,1.88h-.04l-.08-1.66h-1.58c.04.92.08,1.92.08,3.16Zm1.74-9.56a2.854,2.854,0,0,1,.12-.72,2.808,2.808,0,0,1,2.66-2.18c1.86,0,2.88,1.66,2.88,3.6,0,2.22-1.08,3.74-2.94,3.74a2.716,2.716,0,0,1-2.64-2.06,3.964,3.964,0,0,1-.08-.72Zm13.74-4.3c-2.68,0-4.8,1.9-4.8,5.14,0,3.06,2.02,4.98,4.64,4.98,2.34,0,4.82-1.56,4.82-5.14C237.8,175.12,235.92,173.1,233.14,173.1Zm-.04,1.32c2.08,0,2.9,2.08,2.9,3.72,0,2.18-1.26,3.76-2.94,3.76-1.72,0-2.94-1.6-2.94-3.72C230.12,176.34,231.02,174.42,233.1,174.42Zm6.92,8.58h1.74v-5.16a4.954,4.954,0,0,1,.08-.82,2.469,2.469,0,0,1,2.36-2.26,2.643,2.643,0,0,1,.6.06v-1.66a1.9,1.9,0,0,0-.5-.06,2.9,2.9,0,0,0-2.68,2.12h-.08l-.06-1.9h-1.54c.06.9.08,1.88.08,3.02ZM8.06,205.32a5,5,0,0,1-2.16.48,3.649,3.649,0,0,1,.06-7.28,4.081,4.081,0,0,1,2.04.46l.4-1.36a5.883,5.883,0,0,0-2.44-.5,4.918,4.918,0,0,0-5.2,5.14,4.6,4.6,0,0,0,4.82,4.94,6.483,6.483,0,0,0,2.78-.56Zm6.34-8.22c-2.68,0-4.8,1.9-4.8,5.14,0,3.06,2.02,4.98,4.64,4.98,2.34,0,4.82-1.56,4.82-5.14C19.06,199.12,17.18,197.1,14.4,197.1Zm-.04,1.32c2.08,0,2.9,2.08,2.9,3.72,0,2.18-1.26,3.76-2.94,3.76-1.72,0-2.94-1.6-2.94-3.72C11.38,200.34,12.28,198.42,14.36,198.42ZM21.28,207h1.76V192.8H21.28Zm8.82-9.9c-2.68,0-4.8,1.9-4.8,5.14,0,3.06,2.02,4.98,4.64,4.98,2.34,0,4.82-1.56,4.82-5.14C34.76,199.12,32.88,197.1,30.1,197.1Zm-.04,1.32c2.08,0,2.9,2.08,2.9,3.72,0,2.18-1.26,3.76-2.94,3.76-1.72,0-2.94-1.6-2.94-3.72C27.08,200.34,27.98,198.42,30.06,198.42ZM36.98,207h1.74v-5.16a4.954,4.954,0,0,1,.08-.82,2.469,2.469,0,0,1,2.36-2.26,2.643,2.643,0,0,1,.6.06v-1.66a1.9,1.9,0,0,0-.5-.06,2.9,2.9,0,0,0-2.68,2.12H38.5l-.06-1.9H36.9c.06.9.08,1.88.08,3.02Zm14.12-4.52a6.639,6.639,0,0,0,.06-.82c0-1.78-.84-4.56-4-4.56-2.82,0-4.54,2.3-4.54,5.22s1.78,4.88,4.76,4.88a7.84,7.84,0,0,0,3.22-.6l-.3-1.26a6.364,6.364,0,0,1-2.68.5,3.1,3.1,0,0,1-3.32-3.36Zm-6.78-1.26c.14-1.22.92-2.86,2.7-2.86,1.98,0,2.46,1.74,2.44,2.86Zm8.34,5.32a5.52,5.52,0,0,0,2.72.66c2.3,0,3.62-1.2,3.62-2.9,0-1.44-.86-2.28-2.54-2.92-1.26-.48-1.84-.84-1.84-1.64,0-.72.58-1.32,1.62-1.32a3.767,3.767,0,0,1,1.98.56l.44-1.28a4.832,4.832,0,0,0-2.38-.6c-2.08,0-3.34,1.28-3.34,2.84,0,1.16.82,2.12,2.56,2.74,1.3.48,1.8.94,1.8,1.78,0,.8-.6,1.44-1.88,1.44a4.613,4.613,0,0,1-2.32-.7Zm11.56-9.22,3.58,8.92a1.535,1.535,0,0,1,.12.46,1.263,1.263,0,0,1-.14.42,5.336,5.336,0,0,1-1.48,1.96,4.655,4.655,0,0,1-1.54.86l.44,1.48a4.769,4.769,0,0,0,2.16-1.14c1.2-1.04,2.06-2.74,3.32-6.06l2.64-6.9H71.46L69.54,203c-.24.7-.44,1.44-.62,2.02h-.04c-.16-.58-.4-1.34-.62-1.98l-2.12-5.72ZM86.12,207a13.63,13.63,0,0,1-.16-2.32v-3.62c0-1.94-.72-3.96-3.68-3.96a6.008,6.008,0,0,0-3.18.86l.4,1.16a4.823,4.823,0,0,1,2.52-.72,2,2,0,0,1,2.2,2.24v.2c-3.74-.02-5.82,1.26-5.82,3.6a2.758,2.758,0,0,0,2.96,2.78,3.605,3.605,0,0,0,2.96-1.44h.06l.14,1.22Zm-1.86-3.26a1.837,1.837,0,0,1-.1.56,2.408,2.408,0,0,1-2.34,1.62,1.557,1.557,0,0,1-1.66-1.68c0-1.88,2.18-2.22,4.1-2.18Zm4.54,7.22h1.74V205.7h.04a3.4,3.4,0,0,0,2.98,1.52c2.28,0,4.4-1.72,4.4-5.2,0-2.94-1.76-4.92-4.1-4.92a3.806,3.806,0,0,0-3.44,1.88h-.04l-.08-1.66H88.72c.04.92.08,1.92.08,3.16Zm1.74-9.56a2.855,2.855,0,0,1,.12-.72,2.808,2.808,0,0,1,2.66-2.18c1.86,0,2.88,1.66,2.88,3.6,0,2.22-1.08,3.74-2.94,3.74a2.716,2.716,0,0,1-2.64-2.06,3.963,3.963,0,0,1-.08-.72Zm13.74-4.3c-2.68,0-4.8,1.9-4.8,5.14,0,3.06,2.02,4.98,4.64,4.98,2.34,0,4.82-1.56,4.82-5.14C108.94,199.12,107.06,197.1,104.28,197.1Zm-.04,1.32c2.08,0,2.9,2.08,2.9,3.72,0,2.18-1.26,3.76-2.94,3.76-1.72,0-2.94-1.6-2.94-3.72C101.26,200.34,102.16,198.42,104.24,198.42Zm5.5-1.1,3.58,8.92a1.535,1.535,0,0,1,.12.46,1.263,1.263,0,0,1-.14.42,5.336,5.336,0,0,1-1.48,1.96,4.655,4.655,0,0,1-1.54.86l.44,1.48a4.769,4.769,0,0,0,2.16-1.14c1.2-1.04,2.06-2.74,3.32-6.06l2.64-6.9h-1.86L115.06,203c-.24.7-.44,1.44-.62,2.02h-.04c-.16-.58-.4-1.34-.62-1.98l-2.12-5.72ZM127.32,207a13.63,13.63,0,0,1-.16-2.32v-3.62c0-1.94-.72-3.96-3.68-3.96a6.008,6.008,0,0,0-3.18.86l.4,1.16a4.823,4.823,0,0,1,2.52-.72,2,2,0,0,1,2.2,2.24v.2c-3.74-.02-5.82,1.26-5.82,3.6a2.758,2.758,0,0,0,2.96,2.78,3.605,3.605,0,0,0,2.96-1.44h.06l.14,1.22Zm-1.86-3.26a1.837,1.837,0,0,1-.1.56,2.408,2.408,0,0,1-2.34,1.62,1.557,1.557,0,0,1-1.66-1.68c0-1.88,2.18-2.22,4.1-2.18Zm-1.06-10.6L122.64,196h1.26l2.44-2.86ZM130,207h1.76v-5.82a2.531,2.531,0,0,1,.12-.82,2.5,2.5,0,0,1,2.36-1.8c1.66,0,2.24,1.3,2.24,2.86V207h1.76v-5.78c0-3.32-2.08-4.12-3.42-4.12a3.56,3.56,0,0,0-3.2,1.82h-.04l-.1-1.6h-1.56c.06.8.08,1.62.08,2.62Zm17.7-14.2v5.78h-.04a3.237,3.237,0,0,0-2.92-1.48c-2.36,0-4.36,1.98-4.34,5.2,0,2.94,1.8,4.92,4.14,4.92a3.581,3.581,0,0,0,3.3-1.9h.04l.08,1.68h1.58c-.06-.66-.08-1.64-.08-2.5V192.8Zm0,10.14a3.057,3.057,0,0,1-.08.76,2.646,2.646,0,0,1-2.58,2.1c-1.9,0-2.86-1.62-2.86-3.58,0-2.14,1.08-3.74,2.9-3.74a2.588,2.588,0,0,1,2.54,2.04,3.107,3.107,0,0,1,.08.74Zm8.78-5.84c-2.68,0-4.8,1.9-4.8,5.14,0,3.06,2.02,4.98,4.64,4.98,2.34,0,4.82-1.56,4.82-5.14C161.14,199.12,159.26,197.1,156.48,197.1Zm-.04,1.32c2.08,0,2.9,2.08,2.9,3.72,0,2.18-1.26,3.76-2.94,3.76-1.72,0-2.94-1.6-2.94-3.72C153.46,200.34,154.36,198.42,156.44,198.42Zm6.24,8.12a5.52,5.52,0,0,0,2.72.66c2.3,0,3.62-1.2,3.62-2.9,0-1.44-.86-2.28-2.54-2.92-1.26-.48-1.84-.84-1.84-1.64,0-.72.58-1.32,1.62-1.32a3.767,3.767,0,0,1,1.98.56l.44-1.28a4.832,4.832,0,0,0-2.38-.6c-2.08,0-3.34,1.28-3.34,2.84,0,1.16.82,2.12,2.56,2.74,1.3.48,1.8.94,1.8,1.78,0,.8-.6,1.44-1.88,1.44a4.613,4.613,0,0,1-2.32-.7Zm16.38-4.06a6.64,6.64,0,0,0,.06-.82c0-1.78-.84-4.56-4-4.56-2.82,0-4.54,2.3-4.54,5.22s1.78,4.88,4.76,4.88a7.841,7.841,0,0,0,3.22-.6l-.3-1.26a6.364,6.364,0,0,1-2.68.5,3.1,3.1,0,0,1-3.32-3.36Zm-6.78-1.26c.14-1.22.92-2.86,2.7-2.86,1.98,0,2.46,1.74,2.44,2.86ZM185.54,207h1.72v-5.84a2.623,2.623,0,0,1,2.32-2.62c1.34,0,2.02,1.12,2.02,2.66V207h1.72v-5.98a2.9,2.9,0,0,1,.14-.88,2.279,2.279,0,0,1,2.08-1.6c1.42,0,2.1,1.12,2.1,2.98V207h1.72v-5.7c0-3.36-1.9-4.2-3.18-4.2a3.3,3.3,0,0,0-2.14.68,3.987,3.987,0,0,0-1.08,1.26h-.04a2.862,2.862,0,0,0-2.74-1.94,3.336,3.336,0,0,0-3.04,1.78h-.06l-.08-1.56h-1.54c.06.8.08,1.62.08,2.62Zm23.64,0a13.63,13.63,0,0,1-.16-2.32v-3.62c0-1.94-.72-3.96-3.68-3.96a6.008,6.008,0,0,0-3.18.86l.4,1.16a4.823,4.823,0,0,1,2.52-.72,2,2,0,0,1,2.2,2.24v.2c-3.74-.02-5.82,1.26-5.82,3.6a2.758,2.758,0,0,0,2.96,2.78,3.605,3.605,0,0,0,2.96-1.44h.06l.14,1.22Zm-1.86-3.26a1.837,1.837,0,0,1-.1.56,2.408,2.408,0,0,1-2.34,1.62,1.557,1.557,0,0,1-1.66-1.68c0-1.88,2.18-2.22,4.1-2.18Zm-1.06-10.6L204.5,196h1.26l2.44-2.86Zm4.92,13.4a5.52,5.52,0,0,0,2.72.66c2.3,0,3.62-1.2,3.62-2.9,0-1.44-.86-2.28-2.54-2.92-1.26-.48-1.84-.84-1.84-1.64,0-.72.58-1.32,1.62-1.32a3.767,3.767,0,0,1,1.98.56l.44-1.28a4.832,4.832,0,0,0-2.38-.6c-2.08,0-3.34,1.28-3.34,2.84,0,1.16.82,2.12,2.56,2.74,1.3.48,1.8.94,1.8,1.78,0,.8-.6,1.44-1.88,1.44a4.613,4.613,0,0,1-2.32-.7ZM8.42,231a13.629,13.629,0,0,1-.16-2.32v-3.62c0-1.94-.72-3.96-3.68-3.96a6.008,6.008,0,0,0-3.18.86l.4,1.16a4.823,4.823,0,0,1,2.52-.72,2,2,0,0,1,2.2,2.24v.2C2.78,224.82.7,226.1.7,228.44a2.758,2.758,0,0,0,2.96,2.78,3.605,3.605,0,0,0,2.96-1.44h.06L6.82,231Zm-1.86-3.26a1.837,1.837,0,0,1-.1.56,2.408,2.408,0,0,1-2.34,1.62,1.557,1.557,0,0,1-1.66-1.68c0-1.88,2.18-2.22,4.1-2.18ZM17.7,216.8v5.78h-.04a3.237,3.237,0,0,0-2.92-1.48c-2.36,0-4.36,1.98-4.34,5.2,0,2.94,1.8,4.92,4.14,4.92a3.581,3.581,0,0,0,3.3-1.9h.04l.08,1.68h1.58c-.06-.66-.08-1.64-.08-2.5V216.8Zm0,10.14a3.057,3.057,0,0,1-.08.76,2.646,2.646,0,0,1-2.58,2.1c-1.9,0-2.86-1.62-2.86-3.58,0-2.14,1.08-3.74,2.9-3.74a2.588,2.588,0,0,1,2.54,2.04,3.107,3.107,0,0,1,.08.74Zm12.46-.46a6.638,6.638,0,0,0,.06-.82c0-1.78-.84-4.56-4-4.56-2.82,0-4.54,2.3-4.54,5.22s1.78,4.88,4.76,4.88a7.84,7.84,0,0,0,3.22-.6l-.3-1.26a6.364,6.364,0,0,1-2.68.5,3.1,3.1,0,0,1-3.32-3.36Zm-6.78-1.26c.14-1.22.92-2.86,2.7-2.86,1.98,0,2.46,1.74,2.44,2.86ZM32.4,231h1.76V216.8H32.4Zm11.68,0a13.629,13.629,0,0,1-.16-2.32v-3.62c0-1.94-.72-3.96-3.68-3.96a6.008,6.008,0,0,0-3.18.86l.4,1.16a4.823,4.823,0,0,1,2.52-.72,2,2,0,0,1,2.2,2.24v.2c-3.74-.02-5.82,1.26-5.82,3.6a2.758,2.758,0,0,0,2.96,2.78,3.605,3.605,0,0,0,2.96-1.44h.06l.14,1.22Zm-1.86-3.26a1.837,1.837,0,0,1-.1.56,2.408,2.408,0,0,1-2.34,1.62,1.557,1.557,0,0,1-1.66-1.68c0-1.88,2.18-2.22,4.1-2.18ZM46.76,231h1.76v-5.82a2.531,2.531,0,0,1,.12-.82,2.5,2.5,0,0,1,2.36-1.8c1.66,0,2.24,1.3,2.24,2.86V231H55v-5.78c0-3.32-2.08-4.12-3.42-4.12a3.56,3.56,0,0,0-3.2,1.82h-.04l-.1-1.6H46.68c.06.8.08,1.62.08,2.62Zm11.42-12v2.32h-1.5v1.34h1.5v5.28a3.586,3.586,0,0,0,.68,2.52,2.439,2.439,0,0,0,1.9.74,4.308,4.308,0,0,0,1.56-.24l-.08-1.32a3.915,3.915,0,0,1-1.02.12c-.98,0-1.32-.68-1.32-1.88v-5.22h2.52v-1.34H59.9v-2.78Zm13.88,7.48a6.637,6.637,0,0,0,.06-.82c0-1.78-.84-4.56-4-4.56-2.82,0-4.54,2.3-4.54,5.22s1.78,4.88,4.76,4.88a7.84,7.84,0,0,0,3.22-.6l-.3-1.26a6.364,6.364,0,0,1-2.68.5,3.1,3.1,0,0,1-3.32-3.36Zm-6.78-1.26c.14-1.22.92-2.86,2.7-2.86,1.98,0,2.46,1.74,2.44,2.86Zm19.86,4.1a5,5,0,0,1-2.16.48,3.649,3.649,0,0,1,.06-7.28,4.081,4.081,0,0,1,2.04.46l.4-1.36a5.883,5.883,0,0,0-2.44-.5,4.918,4.918,0,0,0-5.2,5.14,4.6,4.6,0,0,0,4.82,4.94,6.483,6.483,0,0,0,2.78-.56Zm6.34-8.22c-2.68,0-4.8,1.9-4.8,5.14,0,3.06,2.02,4.98,4.64,4.98,2.34,0,4.82-1.56,4.82-5.14C96.14,223.12,94.26,221.1,91.48,221.1Zm-.04,1.32c2.08,0,2.9,2.08,2.9,3.72,0,2.18-1.26,3.76-2.94,3.76-1.72,0-2.94-1.6-2.94-3.72C88.46,224.34,89.36,222.42,91.44,222.42ZM98.36,231h1.76v-5.82a2.531,2.531,0,0,1,.12-.82,2.5,2.5,0,0,1,2.36-1.8c1.66,0,2.24,1.3,2.24,2.86V231h1.76v-5.78c0-3.32-2.08-4.12-3.42-4.12a3.56,3.56,0,0,0-3.2,1.82h-.04l-.1-1.6H98.28c.06.8.08,1.62.08,2.62Zm23.12-4.52a6.637,6.637,0,0,0,.06-.82c0-1.78-.84-4.56-4-4.56-2.82,0-4.54,2.3-4.54,5.22s1.78,4.88,4.76,4.88a7.84,7.84,0,0,0,3.22-.6l-.3-1.26a6.364,6.364,0,0,1-2.68.5,3.1,3.1,0,0,1-3.32-3.36Zm-6.78-1.26c.14-1.22.92-2.86,2.7-2.86,1.98,0,2.46,1.74,2.44,2.86Zm9.02,5.78h1.76V216.8h-1.76Zm8.96,3.96h1.74V229.7h.04a3.4,3.4,0,0,0,2.98,1.52c2.28,0,4.4-1.72,4.4-5.2,0-2.94-1.76-4.92-4.1-4.92a3.806,3.806,0,0,0-3.44,1.88h-.04l-.08-1.66H132.6c.04.92.08,1.92.08,3.16Zm1.74-9.56a2.854,2.854,0,0,1,.12-.72,2.808,2.808,0,0,1,2.66-2.18c1.86,0,2.88,1.66,2.88,3.6,0,2.22-1.08,3.74-2.94,3.74a2.716,2.716,0,0,1-2.64-2.06,3.964,3.964,0,0,1-.08-.72Zm9.64,5.6h1.74v-5.16a4.954,4.954,0,0,1,.08-.82,2.469,2.469,0,0,1,2.36-2.26,2.643,2.643,0,0,1,.6.06v-1.66a1.9,1.9,0,0,0-.5-.06,2.9,2.9,0,0,0-2.68,2.12h-.08l-.06-1.9h-1.54c.06.9.08,1.88.08,3.02Zm10.44-9.9c-2.68,0-4.8,1.9-4.8,5.14,0,3.06,2.02,4.98,4.64,4.98,2.34,0,4.82-1.56,4.82-5.14C159.16,223.12,157.28,221.1,154.5,221.1Zm-.04,1.32c2.08,0,2.9,2.08,2.9,3.72,0,2.18-1.26,3.76-2.94,3.76-1.72,0-2.94-1.6-2.94-3.72C151.48,224.34,152.38,222.42,154.46,222.42Zm13.52,6.9a5,5,0,0,1-2.16.48,3.649,3.649,0,0,1,.06-7.28,4.081,4.081,0,0,1,2.04.46l.4-1.36a5.883,5.883,0,0,0-2.44-.5,4.918,4.918,0,0,0-5.2,5.14,4.6,4.6,0,0,0,4.82,4.94,6.483,6.483,0,0,0,2.78-.56ZM178,226.48a6.64,6.64,0,0,0,.06-.82c0-1.78-.84-4.56-4-4.56-2.82,0-4.54,2.3-4.54,5.22s1.78,4.88,4.76,4.88a7.841,7.841,0,0,0,3.22-.6l-.3-1.26a6.364,6.364,0,0,1-2.68.5,3.1,3.1,0,0,1-3.32-3.36Zm-6.78-1.26c.14-1.22.92-2.86,2.7-2.86,1.98,0,2.46,1.74,2.44,2.86Zm8.34,5.32a5.52,5.52,0,0,0,2.72.66c2.3,0,3.62-1.2,3.62-2.9,0-1.44-.86-2.28-2.54-2.92-1.26-.48-1.84-.84-1.84-1.64,0-.72.58-1.32,1.62-1.32a3.767,3.767,0,0,1,1.98.56l.44-1.28a4.832,4.832,0,0,0-2.38-.6c-2.08,0-3.34,1.28-3.34,2.84,0,1.16.82,2.12,2.56,2.74,1.3.48,1.8.94,1.8,1.78,0,.8-.6,1.44-1.88,1.44a4.613,4.613,0,0,1-2.32-.7Zm12.7-9.44c-2.68,0-4.8,1.9-4.8,5.14,0,3.06,2.02,4.98,4.64,4.98,2.34,0,4.82-1.56,4.82-5.14C196.92,223.12,195.04,221.1,192.26,221.1Zm-.04,1.32c2.08,0,2.9,2.08,2.9,3.72,0,2.18-1.26,3.76-2.94,3.76-1.72,0-2.94-1.6-2.94-3.72C189.24,224.34,190.14,222.42,192.22,222.42Zm17.76-5.62v5.78h-.04a3.237,3.237,0,0,0-2.92-1.48c-2.36,0-4.36,1.98-4.34,5.2,0,2.94,1.8,4.92,4.14,4.92a3.581,3.581,0,0,0,3.3-1.9h.04l.08,1.68h1.58c-.06-.66-.08-1.64-.08-2.5V216.8Zm0,10.14a3.057,3.057,0,0,1-.08.76,2.646,2.646,0,0,1-2.58,2.1c-1.9,0-2.86-1.62-2.86-3.58,0-2.14,1.08-3.74,2.9-3.74a2.588,2.588,0,0,1,2.54,2.04,3.107,3.107,0,0,1,.08.74Zm12.46-.46a6.64,6.64,0,0,0,.06-.82c0-1.78-.84-4.56-4-4.56-2.82,0-4.54,2.3-4.54,5.22s1.78,4.88,4.76,4.88a7.841,7.841,0,0,0,3.22-.6l-.3-1.26a6.364,6.364,0,0,1-2.68.5,3.1,3.1,0,0,1-3.32-3.36Zm-6.78-1.26c.14-1.22.92-2.86,2.7-2.86,1.98,0,2.46,1.74,2.44,2.86ZM.78,254.54a5.52,5.52,0,0,0,2.72.66c2.3,0,3.62-1.2,3.62-2.9,0-1.44-.86-2.28-2.54-2.92-1.26-.48-1.84-.84-1.84-1.64,0-.72.58-1.32,1.62-1.32a3.767,3.767,0,0,1,1.98.56l.44-1.28a4.832,4.832,0,0,0-2.38-.6c-2.08,0-3.34,1.28-3.34,2.84,0,1.16.82,2.12,2.56,2.74,1.3.48,1.8.94,1.8,1.78,0,.8-.6,1.44-1.88,1.44a4.613,4.613,0,0,1-2.32-.7Zm15.2-1.22a5,5,0,0,1-2.16.48,3.649,3.649,0,0,1,.06-7.28,4.081,4.081,0,0,1,2.04.46l.4-1.36a5.883,5.883,0,0,0-2.44-.5,4.918,4.918,0,0,0-5.2,5.14,4.6,4.6,0,0,0,4.82,4.94,6.483,6.483,0,0,0,2.78-.56ZM18.34,255h1.74v-5.16a4.953,4.953,0,0,1,.08-.82,2.469,2.469,0,0,1,2.36-2.26,2.643,2.643,0,0,1,.6.06v-1.66a1.9,1.9,0,0,0-.5-.06,2.9,2.9,0,0,0-2.68,2.12h-.08l-.06-1.9H18.26c.06.9.08,1.88.08,3.02Zm8.38,0v-9.68H24.96V255Zm-.88-13.5a1.072,1.072,0,0,0-1.1,1.1,1.09,1.09,0,1,0,1.1-1.1Zm3.8,17.46h1.74V253.7h.04a3.4,3.4,0,0,0,2.98,1.52c2.28,0,4.4-1.72,4.4-5.2,0-2.94-1.76-4.92-4.1-4.92a3.806,3.806,0,0,0-3.44,1.88h-.04l-.08-1.66H29.56c.04.92.08,1.92.08,3.16Zm1.74-9.56a2.854,2.854,0,0,1,.12-.72,2.808,2.808,0,0,1,2.66-2.18c1.86,0,2.88,1.66,2.88,3.6,0,2.22-1.08,3.74-2.94,3.74a2.716,2.716,0,0,1-2.64-2.06,3.963,3.963,0,0,1-.08-.72ZM41.42,243v2.32h-1.5v1.34h1.5v5.28a3.586,3.586,0,0,0,.68,2.52,2.439,2.439,0,0,0,1.9.74,4.308,4.308,0,0,0,1.56-.24l-.08-1.32a3.915,3.915,0,0,1-1.02.12c-.98,0-1.32-.68-1.32-1.88v-5.22h2.52v-1.34H43.14v-2.78Zm7.98,12v-9.68H47.64V255Zm-.88-13.5a1.072,1.072,0,0,0-1.1,1.1,1.09,1.09,0,1,0,1.1-1.1Zm3.8,13.5h1.76v-5.82a2.531,2.531,0,0,1,.12-.82,2.5,2.5,0,0,1,2.36-1.8c1.66,0,2.24,1.3,2.24,2.86V255h1.76v-5.78c0-3.32-2.08-4.12-3.42-4.12a3.56,3.56,0,0,0-3.2,1.82H53.9l-.1-1.6H52.24c.06.8.08,1.62.08,2.62Zm17.9-9.68-.08,1.46H70.1a3.22,3.22,0,0,0-3.02-1.68c-2.22,0-4.36,1.86-4.36,5.14,0,2.68,1.72,4.72,4.12,4.72a3.456,3.456,0,0,0,3.08-1.62h.04v1.08c0,2.44-1.32,3.38-3.12,3.38a5.459,5.459,0,0,1-2.84-.76l-.44,1.34a6.248,6.248,0,0,0,3.22.8,5.131,5.131,0,0,0,3.52-1.16c.94-.84,1.38-2.2,1.38-4.42v-5.62c0-1.18.04-1.96.08-2.66Zm-.28,5.56a3.062,3.062,0,0,1-.14.94,2.573,2.573,0,0,1-2.44,1.8c-1.9,0-2.86-1.58-2.86-3.48,0-2.24,1.2-3.66,2.88-3.66a2.535,2.535,0,0,1,2.46,1.86,2.506,2.506,0,0,1,.1.8Zm8.9,8.08h1.74V253.7h.04a3.4,3.4,0,0,0,2.98,1.52c2.28,0,4.4-1.72,4.4-5.2,0-2.94-1.76-4.92-4.1-4.92a3.806,3.806,0,0,0-3.44,1.88h-.04l-.08-1.66H78.76c.04.92.08,1.92.08,3.16Zm1.74-9.56a2.855,2.855,0,0,1,.12-.72,2.808,2.808,0,0,1,2.66-2.18c1.86,0,2.88,1.66,2.88,3.6,0,2.22-1.08,3.74-2.94,3.74a2.716,2.716,0,0,1-2.64-2.06,3.963,3.963,0,0,1-.08-.72Zm16.6,5.6a13.63,13.63,0,0,1-.16-2.32v-3.62c0-1.94-.72-3.96-3.68-3.96a6.008,6.008,0,0,0-3.18.86l.4,1.16a4.823,4.823,0,0,1,2.52-.72,2,2,0,0,1,2.2,2.24v.2c-3.74-.02-5.82,1.26-5.82,3.6a2.758,2.758,0,0,0,2.96,2.78,3.605,3.605,0,0,0,2.96-1.44h.06l.14,1.22Zm-1.86-3.26a1.837,1.837,0,0,1-.1.56,2.408,2.408,0,0,1-2.34,1.62,1.557,1.557,0,0,1-1.66-1.68c0-1.88,2.18-2.22,4.1-2.18ZM99.86,255h1.74v-5.16a4.953,4.953,0,0,1,.08-.82,2.469,2.469,0,0,1,2.36-2.26,2.643,2.643,0,0,1,.6.06v-1.66a1.9,1.9,0,0,0-.5-.06,2.9,2.9,0,0,0-2.68,2.12h-.08l-.06-1.9H99.78c.06.9.08,1.88.08,3.02Zm13.4,0a13.63,13.63,0,0,1-.16-2.32v-3.62c0-1.94-.72-3.96-3.68-3.96a6.008,6.008,0,0,0-3.18.86l.4,1.16a4.823,4.823,0,0,1,2.52-.72,2,2,0,0,1,2.2,2.24v.2c-3.74-.02-5.82,1.26-5.82,3.6a2.758,2.758,0,0,0,2.96,2.78,3.605,3.605,0,0,0,2.96-1.44h.06l.14,1.22Zm-1.86-3.26a1.837,1.837,0,0,1-.1.56,2.408,2.408,0,0,1-2.34,1.62,1.557,1.557,0,0,1-1.66-1.68c0-1.88,2.18-2.22,4.1-2.18Zm15.38,1.58a5,5,0,0,1-2.16.48,3.649,3.649,0,0,1,.06-7.28,4.081,4.081,0,0,1,2.04.46l.4-1.36a5.883,5.883,0,0,0-2.44-.5,4.918,4.918,0,0,0-5.2,5.14,4.6,4.6,0,0,0,4.82,4.94,6.483,6.483,0,0,0,2.78-.56Zm6.34-8.22c-2.68,0-4.8,1.9-4.8,5.14,0,3.06,2.02,4.98,4.64,4.98,2.34,0,4.82-1.56,4.82-5.14C137.78,247.12,135.9,245.1,133.12,245.1Zm-.04,1.32c2.08,0,2.9,2.08,2.9,3.72,0,2.18-1.26,3.76-2.94,3.76-1.72,0-2.94-1.6-2.94-3.72C130.1,248.34,131,246.42,133.08,246.42ZM140,255h1.76v-5.82a2.531,2.531,0,0,1,.12-.82,2.5,2.5,0,0,1,2.36-1.8c1.66,0,2.24,1.3,2.24,2.86V255h1.76v-5.78c0-3.32-2.08-4.12-3.42-4.12a3.56,3.56,0,0,0-3.2,1.82h-.04l-.1-1.6h-1.56c.06.8.08,1.62.08,2.62Zm10.42-.46a5.52,5.52,0,0,0,2.72.66c2.3,0,3.62-1.2,3.62-2.9,0-1.44-.86-2.28-2.54-2.92-1.26-.48-1.84-.84-1.84-1.64,0-.72.58-1.32,1.62-1.32a3.767,3.767,0,0,1,1.98.56l.44-1.28a4.832,4.832,0,0,0-2.38-.6c-2.08,0-3.34,1.28-3.34,2.84,0,1.16.82,2.12,2.56,2.74,1.3.48,1.8.94,1.8,1.78,0,.8-.6,1.44-1.88,1.44a4.613,4.613,0,0,1-2.32-.7Zm16.38-4.06a6.64,6.64,0,0,0,.06-.82c0-1.78-.84-4.56-4-4.56-2.82,0-4.54,2.3-4.54,5.22s1.78,4.88,4.76,4.88a7.841,7.841,0,0,0,3.22-.6l-.3-1.26a6.364,6.364,0,0,1-2.68.5,3.1,3.1,0,0,1-3.32-3.36Zm-6.78-1.26c.14-1.22.92-2.86,2.7-2.86,1.98,0,2.46,1.74,2.44,2.86Zm15.82-3.9-.08,1.46h-.04a3.22,3.22,0,0,0-3.02-1.68c-2.22,0-4.36,1.86-4.36,5.14,0,2.68,1.72,4.72,4.12,4.72a3.456,3.456,0,0,0,3.08-1.62h.04v1.08c0,2.44-1.32,3.38-3.12,3.38a5.459,5.459,0,0,1-2.84-.76l-.44,1.34a6.248,6.248,0,0,0,3.22.8,5.131,5.131,0,0,0,3.52-1.16c.94-.84,1.38-2.2,1.38-4.42v-5.62c0-1.18.04-1.96.08-2.66Zm-.28,5.56a3.062,3.062,0,0,1-.14.94,2.573,2.573,0,0,1-2.44,1.8c-1.9,0-2.86-1.58-2.86-3.48,0-2.24,1.2-3.66,2.88-3.66a2.535,2.535,0,0,1,2.46,1.86,2.506,2.506,0,0,1,.1.8Zm12.76-5.56h-1.76v5.94a2.574,2.574,0,0,1-.16.9,2.544,2.544,0,0,1-2.32,1.6c-1.6,0-2.16-1.24-2.16-3.08v-5.36h-1.76v5.66c0,3.4,1.82,4.24,3.34,4.24a3.642,3.642,0,0,0,3.2-1.8h.04l.1,1.58h1.56c-.06-.76-.08-1.64-.08-2.64ZM193,255v-9.68h-1.76V255Zm-.88-13.5a1.072,1.072,0,0,0-1.1,1.1,1.09,1.09,0,1,0,1.1-1.1Zm3.8,13.5h1.74v-5.16a4.954,4.954,0,0,1,.08-.82,2.469,2.469,0,0,1,2.36-2.26,2.643,2.643,0,0,1,.6.06v-1.66a1.9,1.9,0,0,0-.5-.06,2.9,2.9,0,0,0-2.68,2.12h-.08l-.06-1.9h-1.54c.06.9.08,1.88.08,3.02Zm17.38,3.96h1.76V247.98c0-1,.02-1.84.06-2.66h-1.66l-.06,1.46h-.04a3.181,3.181,0,0,0-2.98-1.68c-2.04,0-4.38,1.6-4.38,5.22,0,2.94,1.84,4.9,4.1,4.9a3.446,3.446,0,0,0,3.16-1.72h.04Zm0-7.9a2.956,2.956,0,0,1-.14.84,2.622,2.622,0,0,1-2.52,1.92c-1.94,0-2.86-1.68-2.86-3.6,0-2.18,1.1-3.72,2.92-3.72a2.572,2.572,0,0,1,2.52,2,3,3,0,0,1,.08.74Zm12.76-5.74H224.3v5.94a2.574,2.574,0,0,1-.16.9,2.544,2.544,0,0,1-2.32,1.6c-1.6,0-2.16-1.24-2.16-3.08v-5.36H217.9v5.66c0,3.4,1.82,4.24,3.34,4.24a3.642,3.642,0,0,0,3.2-1.8h.04l.1,1.58h1.56c-.06-.76-.08-1.64-.08-2.64Zm10.7,5.16a6.64,6.64,0,0,0,.06-.82c0-1.78-.84-4.56-4-4.56-2.82,0-4.54,2.3-4.54,5.22s1.78,4.88,4.76,4.88a7.841,7.841,0,0,0,3.22-.6l-.3-1.26a6.364,6.364,0,0,1-2.68.5,3.1,3.1,0,0,1-3.32-3.36Zm-6.78-1.26c.14-1.22.92-2.86,2.7-2.86,1.98,0,2.46,1.74,2.44,2.86ZM1.46,282.96H3.2V277.7h.04a3.4,3.4,0,0,0,2.98,1.52c2.28,0,4.4-1.72,4.4-5.2,0-2.94-1.76-4.92-4.1-4.92a3.806,3.806,0,0,0-3.44,1.88H3.04l-.08-1.66H1.38c.04.92.08,1.92.08,3.16ZM3.2,273.4a2.854,2.854,0,0,1,.12-.72,2.808,2.808,0,0,1,2.66-2.18c1.86,0,2.88,1.66,2.88,3.6,0,2.22-1.08,3.74-2.94,3.74a2.716,2.716,0,0,1-2.64-2.06,3.963,3.963,0,0,1-.08-.72Zm9.64,5.6h1.74v-5.16a4.954,4.954,0,0,1,.08-.82,2.469,2.469,0,0,1,2.36-2.26,2.643,2.643,0,0,1,.6.06v-1.66a1.9,1.9,0,0,0-.5-.06,2.9,2.9,0,0,0-2.68,2.12h-.08l-.06-1.9H12.76c.06.9.08,1.88.08,3.02Zm10.44-9.9c-2.68,0-4.8,1.9-4.8,5.14,0,3.06,2.02,4.98,4.64,4.98,2.34,0,4.82-1.56,4.82-5.14C27.94,271.12,26.06,269.1,23.28,269.1Zm-.04,1.32c2.08,0,2.9,2.08,2.9,3.72,0,2.18-1.26,3.76-2.94,3.76-1.72,0-2.94-1.6-2.94-3.72C20.26,272.34,21.16,270.42,23.24,270.42Zm6.92,12.54H31.9V277.7h.04a3.4,3.4,0,0,0,2.98,1.52c2.28,0,4.4-1.72,4.4-5.2,0-2.94-1.76-4.92-4.1-4.92a3.806,3.806,0,0,0-3.44,1.88h-.04l-.08-1.66H30.08c.04.92.08,1.92.08,3.16Zm1.74-9.56a2.854,2.854,0,0,1,.12-.72,2.808,2.808,0,0,1,2.66-2.18c1.86,0,2.88,1.66,2.88,3.6,0,2.22-1.08,3.74-2.94,3.74a2.716,2.716,0,0,1-2.64-2.06,3.963,3.963,0,0,1-.08-.72ZM43.3,279v-9.68H41.54V279Zm-.88-13.5a1.072,1.072,0,0,0-1.1,1.1,1.09,1.09,0,1,0,1.1-1.1ZM54,274.48a6.64,6.64,0,0,0,.06-.82c0-1.78-.84-4.56-4-4.56-2.82,0-4.54,2.3-4.54,5.22s1.78,4.88,4.76,4.88a7.84,7.84,0,0,0,3.22-.6l-.3-1.26a6.364,6.364,0,0,1-2.68.5,3.1,3.1,0,0,1-3.32-3.36Zm-6.78-1.26c.14-1.22.92-2.86,2.7-2.86,1.98,0,2.46,1.74,2.44,2.86Zm15.62-8.42v5.78H62.8a3.237,3.237,0,0,0-2.92-1.48c-2.36,0-4.36,1.98-4.34,5.2,0,2.94,1.8,4.92,4.14,4.92a3.581,3.581,0,0,0,3.3-1.9h.04L63.1,279h1.58c-.06-.66-.08-1.64-.08-2.5V264.8Zm0,10.14a3.057,3.057,0,0,1-.08.76,2.646,2.646,0,0,1-2.58,2.1c-1.9,0-2.86-1.62-2.86-3.58,0-2.14,1.08-3.74,2.9-3.74a2.588,2.588,0,0,1,2.54,2.04,3.107,3.107,0,0,1,.08.74ZM74.48,279a13.63,13.63,0,0,1-.16-2.32v-3.62c0-1.94-.72-3.96-3.68-3.96a6.008,6.008,0,0,0-3.18.86l.4,1.16a4.823,4.823,0,0,1,2.52-.72,2,2,0,0,1,2.2,2.24v.2c-3.74-.02-5.82,1.26-5.82,3.6a2.758,2.758,0,0,0,2.96,2.78,3.605,3.605,0,0,0,2.96-1.44h.06l.14,1.22Zm-1.86-3.26a1.837,1.837,0,0,1-.1.56,2.408,2.408,0,0,1-2.34,1.62,1.557,1.557,0,0,1-1.66-1.68c0-1.88,2.18-2.22,4.1-2.18ZM83.76,264.8v5.78h-.04a3.237,3.237,0,0,0-2.92-1.48c-2.36,0-4.36,1.98-4.34,5.2,0,2.94,1.8,4.92,4.14,4.92a3.581,3.581,0,0,0,3.3-1.9h.04l.08,1.68H85.6c-.06-.66-.08-1.64-.08-2.5V264.8Zm0,10.14a3.057,3.057,0,0,1-.08.76,2.646,2.646,0,0,1-2.58,2.1c-1.9,0-2.86-1.62-2.86-3.58,0-2.14,1.08-3.74,2.9-3.74a2.588,2.588,0,0,1,2.54,2.04,3.107,3.107,0,0,1,.08.74Zm12.46-.46a6.638,6.638,0,0,0,.06-.82c0-1.78-.84-4.56-4-4.56-2.82,0-4.54,2.3-4.54,5.22s1.78,4.88,4.76,4.88a7.84,7.84,0,0,0,3.22-.6l-.3-1.26a6.364,6.364,0,0,1-2.68.5,3.1,3.1,0,0,1-3.32-3.36Zm-6.78-1.26c.14-1.22.92-2.86,2.7-2.86,1.98,0,2.46,1.74,2.44,2.86Zm8.34,5.32a5.52,5.52,0,0,0,2.72.66c2.3,0,3.62-1.2,3.62-2.9,0-1.44-.86-2.28-2.54-2.92-1.26-.48-1.84-.84-1.84-1.64,0-.72.58-1.32,1.62-1.32a3.767,3.767,0,0,1,1.98.56l.44-1.28a4.831,4.831,0,0,0-2.38-.6c-2.08,0-3.34,1.28-3.34,2.84,0,1.16.82,2.12,2.56,2.74,1.3.48,1.8.94,1.8,1.78,0,.8-.6,1.44-1.88,1.44a4.613,4.613,0,0,1-2.32-.7Zm20.62-4.06a6.638,6.638,0,0,0,.06-.82c0-1.78-.84-4.56-4-4.56-2.82,0-4.54,2.3-4.54,5.22s1.78,4.88,4.76,4.88a7.84,7.84,0,0,0,3.22-.6l-.3-1.26a6.364,6.364,0,0,1-2.68.5,3.1,3.1,0,0,1-3.32-3.36Zm-6.78-1.26c.14-1.22.92-2.86,2.7-2.86,1.98,0,2.46,1.74,2.44,2.86Zm8.34,5.32a5.52,5.52,0,0,0,2.72.66c2.3,0,3.62-1.2,3.62-2.9,0-1.44-.86-2.28-2.54-2.92-1.26-.48-1.84-.84-1.84-1.64,0-.72.58-1.32,1.62-1.32a3.767,3.767,0,0,1,1.98.56l.44-1.28a4.831,4.831,0,0,0-2.38-.6c-2.08,0-3.34,1.28-3.34,2.84,0,1.16.82,2.12,2.56,2.74,1.3.48,1.8.94,1.8,1.78,0,.8-.6,1.44-1.88,1.44a4.613,4.613,0,0,1-2.32-.7Zm8.6,4.42h1.74V277.7h.04a3.4,3.4,0,0,0,2.98,1.52c2.28,0,4.4-1.72,4.4-5.2,0-2.94-1.76-4.92-4.1-4.92a3.806,3.806,0,0,0-3.44,1.88h-.04l-.08-1.66h-1.58c.04.92.08,1.92.08,3.16Zm1.74-9.56a2.855,2.855,0,0,1,.12-.72,2.808,2.808,0,0,1,2.66-2.18c1.86,0,2.88,1.66,2.88,3.6,0,2.22-1.08,3.74-2.94,3.74a2.716,2.716,0,0,1-2.64-2.06,3.962,3.962,0,0,1-.08-.72Zm17.42,1.08a6.641,6.641,0,0,0,.06-.82c0-1.78-.84-4.56-4-4.56-2.82,0-4.54,2.3-4.54,5.22s1.78,4.88,4.76,4.88a7.84,7.84,0,0,0,3.22-.6l-.3-1.26a6.364,6.364,0,0,1-2.68.5,3.1,3.1,0,0,1-3.32-3.36Zm-6.78-1.26c.14-1.22.92-2.86,2.7-2.86,1.98,0,2.46,1.74,2.44,2.86Zm15.62,4.1a5,5,0,0,1-2.16.48,3.649,3.649,0,0,1,.06-7.28,4.081,4.081,0,0,1,2.04.46l.4-1.36a5.883,5.883,0,0,0-2.44-.5,4.918,4.918,0,0,0-5.2,5.14,4.6,4.6,0,0,0,4.82,4.94,6.483,6.483,0,0,0,2.78-.56Zm4.12,1.68v-9.68h-1.76V279Zm-.88-13.5a1.072,1.072,0,0,0-1.1,1.1,1.09,1.09,0,1,0,1.1-1.1ZM170.56,279a13.63,13.63,0,0,1-.16-2.32v-3.62c0-1.94-.72-3.96-3.68-3.96a6.008,6.008,0,0,0-3.18.86l.4,1.16a4.823,4.823,0,0,1,2.52-.72,2,2,0,0,1,2.2,2.24v.2c-3.74-.02-5.82,1.26-5.82,3.6a2.758,2.758,0,0,0,2.96,2.78,3.605,3.605,0,0,0,2.96-1.44h.06l.14,1.22Zm-1.86-3.26a1.837,1.837,0,0,1-.1.56,2.408,2.408,0,0,1-2.34,1.62,1.557,1.557,0,0,1-1.66-1.68c0-1.88,2.18-2.22,4.1-2.18Zm4.54,3.26H175V264.8h-1.76Zm12.5-4.52a6.641,6.641,0,0,0,.06-.82c0-1.78-.84-4.56-4-4.56-2.82,0-4.54,2.3-4.54,5.22s1.78,4.88,4.76,4.88a7.84,7.84,0,0,0,3.22-.6l-.3-1.26a6.364,6.364,0,0,1-2.68.5,3.1,3.1,0,0,1-3.32-3.36Zm-6.78-1.26c.14-1.22.92-2.86,2.7-2.86,1.98,0,2.46,1.74,2.44,2.86Zm8.34,5.32a5.52,5.52,0,0,0,2.72.66c2.3,0,3.62-1.2,3.62-2.9,0-1.44-.86-2.28-2.54-2.92-1.26-.48-1.84-.84-1.84-1.64,0-.72.58-1.32,1.62-1.32a3.767,3.767,0,0,1,1.98.56l.44-1.28a4.831,4.831,0,0,0-2.38-.6c-2.08,0-3.34,1.28-3.34,2.84,0,1.16.82,2.12,2.56,2.74,1.3.48,1.8.94,1.8,1.78,0,.8-.6,1.44-1.88,1.44a4.613,4.613,0,0,1-2.32-.7Zm19.44-13.74v5.78h-.04a3.237,3.237,0,0,0-2.92-1.48c-2.36,0-4.36,1.98-4.34,5.2,0,2.94,1.8,4.92,4.14,4.92a3.581,3.581,0,0,0,3.3-1.9h.04L207,279h1.58c-.06-.66-.08-1.64-.08-2.5V264.8Zm0,10.14a3.057,3.057,0,0,1-.08.76,2.646,2.646,0,0,1-2.58,2.1c-1.9,0-2.86-1.62-2.86-3.58,0-2.14,1.08-3.74,2.9-3.74a2.588,2.588,0,0,1,2.54,2.04,3.107,3.107,0,0,1,.08.74Zm12.46-.46a6.641,6.641,0,0,0,.06-.82c0-1.78-.84-4.56-4-4.56-2.82,0-4.54,2.3-4.54,5.22s1.78,4.88,4.76,4.88a7.84,7.84,0,0,0,3.22-.6l-.3-1.26a6.364,6.364,0,0,1-2.68.5,3.1,3.1,0,0,1-3.32-3.36Zm-6.78-1.26c.14-1.22.92-2.86,2.7-2.86,1.98,0,2.46,1.74,2.44,2.86ZM8.06,301.32a5,5,0,0,1-2.16.48,3.649,3.649,0,0,1,.06-7.28,4.081,4.081,0,0,1,2.04.46l.4-1.36a5.883,5.883,0,0,0-2.44-.5,4.918,4.918,0,0,0-5.2,5.14,4.6,4.6,0,0,0,4.82,4.94,6.483,6.483,0,0,0,2.78-.56ZM12.18,303v-9.68H10.42V303Zm-.88-13.5a1.072,1.072,0,0,0-1.1,1.1,1.09,1.09,0,1,0,1.1-1.1Zm11.58,8.98a6.639,6.639,0,0,0,.06-.82c0-1.78-.84-4.56-4-4.56-2.82,0-4.54,2.3-4.54,5.22s1.78,4.88,4.76,4.88a7.84,7.84,0,0,0,3.22-.6l-.3-1.26a6.364,6.364,0,0,1-2.68.5,3.1,3.1,0,0,1-3.32-3.36Zm-6.78-1.26c.14-1.22.92-2.86,2.7-2.86,1.98,0,2.46,1.74,2.44,2.86ZM25.12,303h1.74v-5.16a4.954,4.954,0,0,1,.08-.82,2.469,2.469,0,0,1,2.36-2.26,2.643,2.643,0,0,1,.6.06v-1.66a1.9,1.9,0,0,0-.5-.06,2.9,2.9,0,0,0-2.68,2.12h-.08l-.06-1.9H25.04c.06.9.08,1.88.08,3.02Zm7.42-12v2.32h-1.5v1.34h1.5v5.28a3.586,3.586,0,0,0,.68,2.52,2.439,2.439,0,0,0,1.9.74,4.308,4.308,0,0,0,1.56-.24l-.08-1.32a3.915,3.915,0,0,1-1.02.12c-.98,0-1.32-.68-1.32-1.88v-5.22h2.52v-1.34H34.26v-2.78Zm10.2,2.1c-2.68,0-4.8,1.9-4.8,5.14,0,3.06,2.02,4.98,4.64,4.98,2.34,0,4.82-1.56,4.82-5.14C47.4,295.12,45.52,293.1,42.74,293.1Zm-.04,1.32c2.08,0,2.9,2.08,2.9,3.72,0,2.18-1.26,3.76-2.94,3.76-1.72,0-2.94-1.6-2.94-3.72C39.72,296.34,40.62,294.42,42.7,294.42Zm6.24,8.12a5.52,5.52,0,0,0,2.72.66c2.3,0,3.62-1.2,3.62-2.9,0-1.44-.86-2.28-2.54-2.92-1.26-.48-1.84-.84-1.84-1.64,0-.72.58-1.32,1.62-1.32a3.767,3.767,0,0,1,1.98.56l.44-1.28a4.831,4.831,0,0,0-2.38-.6c-2.08,0-3.34,1.28-3.34,2.84,0,1.16.82,2.12,2.56,2.74,1.3.48,1.8.94,1.8,1.78,0,.8-.6,1.44-1.88,1.44a4.613,4.613,0,0,1-2.32-.7Zm12.16,0a5.52,5.52,0,0,0,2.72.66c2.3,0,3.62-1.2,3.62-2.9,0-1.44-.86-2.28-2.54-2.92-1.26-.48-1.84-.84-1.84-1.64,0-.72.58-1.32,1.62-1.32a3.767,3.767,0,0,1,1.98.56l.44-1.28a4.831,4.831,0,0,0-2.38-.6c-2.08,0-3.34,1.28-3.34,2.84,0,1.16.82,2.12,2.56,2.74,1.3.48,1.8.94,1.8,1.78,0,.8-.6,1.44-1.88,1.44a4.613,4.613,0,0,1-2.32-.7Zm10.36.46v-9.68H69.7V303Zm-.88-13.5a1.072,1.072,0,0,0-1.1,1.1,1.09,1.09,0,1,0,1.1-1.1Zm3.12,13.04a5.52,5.52,0,0,0,2.72.66c2.3,0,3.62-1.2,3.62-2.9,0-1.44-.86-2.28-2.54-2.92-1.26-.48-1.84-.84-1.84-1.64,0-.72.58-1.32,1.62-1.32a3.767,3.767,0,0,1,1.98.56l.44-1.28a4.831,4.831,0,0,0-2.38-.6c-2.08,0-3.34,1.28-3.34,2.84,0,1.16.82,2.12,2.56,2.74,1.3.48,1.8.94,1.8,1.78,0,.8-.6,1.44-1.88,1.44a4.613,4.613,0,0,1-2.32-.7Zm9-11.54v2.32H81.2v1.34h1.5v5.28a3.586,3.586,0,0,0,.68,2.52,2.439,2.439,0,0,0,1.9.74,4.308,4.308,0,0,0,1.56-.24l-.08-1.32a3.915,3.915,0,0,1-1.02.12c-.98,0-1.32-.68-1.32-1.88v-5.22h2.52v-1.34H84.42v-2.78Zm13.88,7.48a6.638,6.638,0,0,0,.06-.82c0-1.78-.84-4.56-4-4.56-2.82,0-4.54,2.3-4.54,5.22s1.78,4.88,4.76,4.88a7.84,7.84,0,0,0,3.22-.6l-.3-1.26a6.364,6.364,0,0,1-2.68.5,3.1,3.1,0,0,1-3.32-3.36Zm-6.78-1.26c.14-1.22.92-2.86,2.7-2.86,1.98,0,2.46,1.74,2.44,2.86ZM98.82,303h1.72v-5.84a2.623,2.623,0,0,1,2.32-2.62c1.34,0,2.02,1.12,2.02,2.66V303h1.72v-5.98a2.9,2.9,0,0,1,.14-.88,2.279,2.279,0,0,1,2.08-1.6c1.42,0,2.1,1.12,2.1,2.98V303h1.72v-5.7c0-3.36-1.9-4.2-3.18-4.2a3.3,3.3,0,0,0-2.14.68,3.987,3.987,0,0,0-1.08,1.26h-.04a2.862,2.862,0,0,0-2.74-1.94,3.336,3.336,0,0,0-3.04,1.78h-.06l-.08-1.56H98.74c.06.8.08,1.62.08,2.62Zm23.64,0a13.63,13.63,0,0,1-.16-2.32v-3.62c0-1.94-.72-3.96-3.68-3.96a6.008,6.008,0,0,0-3.18.86l.4,1.16a4.823,4.823,0,0,1,2.52-.72,2,2,0,0,1,2.2,2.24v.2c-3.74-.02-5.82,1.26-5.82,3.6a2.758,2.758,0,0,0,2.96,2.78,3.605,3.605,0,0,0,2.96-1.44h.06l.14,1.22Zm-1.86-3.26a1.837,1.837,0,0,1-.1.56,2.408,2.408,0,0,1-2.34,1.62,1.557,1.557,0,0,1-1.66-1.68c0-1.88,2.18-2.22,4.1-2.18Zm3.86,2.8a5.52,5.52,0,0,0,2.72.66c2.3,0,3.62-1.2,3.62-2.9,0-1.44-.86-2.28-2.54-2.92-1.26-.48-1.84-.84-1.84-1.64,0-.72.58-1.32,1.62-1.32a3.767,3.767,0,0,1,1.98.56l.44-1.28a4.831,4.831,0,0,0-2.38-.6c-2.08,0-3.34,1.28-3.34,2.84,0,1.16.82,2.12,2.56,2.74,1.3.48,1.8.94,1.8,1.78,0,.8-.6,1.44-1.88,1.44a4.613,4.613,0,0,1-2.32-.7Zm8.5,2.8a24.383,24.383,0,0,0,1.9-4.86l-1.96.2a28.777,28.777,0,0,1-1.2,4.78Zm14.86-4.02a5,5,0,0,1-2.16.48,3.649,3.649,0,0,1,.06-7.28,4.081,4.081,0,0,1,2.04.46l.4-1.36a5.883,5.883,0,0,0-2.44-.5,4.918,4.918,0,0,0-5.2,5.14,4.6,4.6,0,0,0,4.82,4.94,6.483,6.483,0,0,0,2.78-.56Zm6.34-8.22c-2.68,0-4.8,1.9-4.8,5.14,0,3.06,2.02,4.98,4.64,4.98,2.34,0,4.82-1.56,4.82-5.14C158.82,295.12,156.94,293.1,154.16,293.1Zm-.04,1.32c2.08,0,2.9,2.08,2.9,3.72,0,2.18-1.26,3.76-2.94,3.76-1.72,0-2.94-1.6-2.94-3.72C151.14,296.34,152.04,294.42,154.12,294.42Zm6.92,8.58h1.72v-5.84a2.623,2.623,0,0,1,2.32-2.62c1.34,0,2.02,1.12,2.02,2.66V303h1.72v-5.98a2.9,2.9,0,0,1,.14-.88,2.279,2.279,0,0,1,2.08-1.6c1.42,0,2.1,1.12,2.1,2.98V303h1.72v-5.7c0-3.36-1.9-4.2-3.18-4.2a3.3,3.3,0,0,0-2.14.68,3.987,3.987,0,0,0-1.08,1.26h-.04a2.862,2.862,0,0,0-2.74-1.94,3.336,3.336,0,0,0-3.04,1.78h-.06l-.08-1.56h-1.54c.06.8.08,1.62.08,2.62Zm20.78-9.9c-2.68,0-4.8,1.9-4.8,5.14,0,3.06,2.02,4.98,4.64,4.98,2.34,0,4.82-1.56,4.82-5.14C186.48,295.12,184.6,293.1,181.82,293.1Zm-.04,1.32c2.08,0,2.9,2.08,2.9,3.72,0,2.18-1.26,3.76-2.94,3.76-1.72,0-2.94-1.6-2.94-3.72C178.8,296.34,179.7,294.42,181.78,294.42ZM192.94,303h1.76V288.8h-1.76Zm8.82-9.9c-2.68,0-4.8,1.9-4.8,5.14,0,3.06,2.02,4.98,4.64,4.98,2.34,0,4.82-1.56,4.82-5.14C206.42,295.12,204.54,293.1,201.76,293.1Zm-.04,1.32c2.08,0,2.9,2.08,2.9,3.72,0,2.18-1.26,3.76-2.94,3.76-1.72,0-2.94-1.6-2.94-3.72C198.74,296.34,199.64,294.42,201.72,294.42Zm18.94,4.06a6.641,6.641,0,0,0,.06-.82c0-1.78-.84-4.56-4-4.56-2.82,0-4.54,2.3-4.54,5.22s1.78,4.88,4.76,4.88a7.84,7.84,0,0,0,3.22-.6l-.3-1.26a6.364,6.364,0,0,1-2.68.5,3.1,3.1,0,0,1-3.32-3.36Zm-6.78-1.26c.14-1.22.92-2.86,2.7-2.86,1.98,0,2.46,1.74,2.44,2.86Zm8.34,5.32a5.52,5.52,0,0,0,2.72.66c2.3,0,3.62-1.2,3.62-2.9,0-1.44-.86-2.28-2.54-2.92-1.26-.48-1.84-.84-1.84-1.64,0-.72.58-1.32,1.62-1.32a3.767,3.767,0,0,1,1.98.56l.44-1.28a4.831,4.831,0,0,0-2.38-.6c-2.08,0-3.34,1.28-3.34,2.84,0,1.16.82,2.12,2.56,2.74,1.3.48,1.8.94,1.8,1.78,0,.8-.6,1.44-1.88,1.44a4.613,4.613,0,0,1-2.32-.7Zm20.62-4.06a6.641,6.641,0,0,0,.06-.82c0-1.78-.84-4.56-4-4.56-2.82,0-4.54,2.3-4.54,5.22s1.78,4.88,4.76,4.88a7.84,7.84,0,0,0,3.22-.6l-.3-1.26a6.364,6.364,0,0,1-2.68.5,3.1,3.1,0,0,1-3.32-3.36Zm-6.78-1.26c.14-1.22.92-2.86,2.7-2.86,1.98,0,2.46,1.74,2.44,2.86Zm9.02,5.78h1.76V288.8h-1.76ZM.24,326.28a5.579,5.579,0,0,0,3.24.92c3.02,0,4.86-1.82,4.86-4.16,0-1.66-.92-2.72-2.58-3.6-1.4-.78-2.08-1.4-2.08-2.5a2.418,2.418,0,0,1,2.66-2.2,4.585,4.585,0,0,1,2.34.62l.6-1.34a5.169,5.169,0,0,0-2.76-.72c-2.48,0-4.56,1.56-4.56,3.96,0,1.46.96,2.54,2.68,3.46,1.4.78,1.98,1.52,1.98,2.52a2.653,2.653,0,0,1-2.92,2.54,5.1,5.1,0,0,1-2.86-.86Zm10.1-8.96.9,9.68h1.54l2.78-5.3c.44-.86.72-1.6,1.12-2.52h.04a22.7,22.7,0,0,0,.14,2.56L17.5,327h1.54l4.78-9.68H22.14l-2.62,5.6c-.38.92-.66,1.66-.92,2.44h-.04a22.469,22.469,0,0,0-.16-2.52l-.6-5.52H16.36l-2.88,5.62a22.569,22.569,0,0,0-1.06,2.42h-.06a23.76,23.76,0,0,0-.04-2.6l-.34-5.44ZM25.48,327l1.86-9.68H25.68L23.82,327Zm1.46-11.34a1.094,1.094,0,0,0,1.12-1.12.961.961,0,0,0-.98-1.04,1.1,1.1,0,0,0-1.1,1.12A.957.957,0,0,0,26.94,315.66Zm4.08-.52-.42,2.18H29.22l-.26,1.3h1.4l-.96,4.9a9.009,9.009,0,0,0-.2,1.82,1.8,1.8,0,0,0,2.04,1.88,3.864,3.864,0,0,0,1.28-.18l.08-1.3a4.58,4.58,0,0,1-.78.06.816.816,0,0,1-.92-.92,8.486,8.486,0,0,1,.18-1.56l.9-4.7H34.3l.26-1.3H32.24l.5-2.6ZM41.08,325.3a5.093,5.093,0,0,1-2.24.54,2.281,2.281,0,0,1-2.4-2.58c0-2.28,1.58-4.76,4.1-4.76a3.762,3.762,0,0,1,1.64.36l.48-1.32a4.939,4.939,0,0,0-2.02-.42,6.129,6.129,0,0,0-5.92,6.34,3.477,3.477,0,0,0,3.72,3.74,6.686,6.686,0,0,0,2.8-.58ZM44.7,327l.9-4.84c.4-2.18,2.02-3.68,3.3-3.68a1.4,1.4,0,0,1,1.5,1.6,7.9,7.9,0,0,1-.12,1.34L49.2,327h1.66l1.08-5.66a8.938,8.938,0,0,0,.16-1.64,2.347,2.347,0,0,0-2.4-2.6,4.159,4.159,0,0,0-3.46,1.94H46.2l1.2-6.24H45.74L43.04,327Zm15.26-13.48L57.4,327h1.66l2.56-13.48ZM62.08,327h1.64l.98-5.12,1.62-1.5L69.26,327h1.82l-3.48-7.68,5.68-5.8H71.2l-4.74,5.04c-.4.46-.86.94-1.32,1.5l-.1.02,1.26-6.56H64.64Zm13.58.8,8.06-14.5H82.36l-8.04,14.5Zm10.52-.8h1.66L89,320.9h4.76l.28-1.42H89.26l.88-4.54h5.18l.26-1.42H88.74Zm9.3,0h1.64l.98-5.12,1.62-1.5,2.94,6.62h1.82L101,319.32l5.68-5.8H104.6l-4.74,5.04c-.4.46-.86.94-1.32,1.5l-.1.02,1.26-6.56H98.04Zm14.7-.46a5.52,5.52,0,0,0,2.72.66c2.3,0,3.62-1.2,3.62-2.9,0-1.44-.86-2.28-2.54-2.92-1.26-.48-1.84-.84-1.84-1.64,0-.72.58-1.32,1.62-1.32a3.767,3.767,0,0,1,1.98.56l.44-1.28a4.831,4.831,0,0,0-2.38-.6c-2.08,0-3.34,1.28-3.34,2.84,0,1.16.82,2.12,2.56,2.74,1.3.48,1.8.94,1.8,1.78,0,.8-.6,1.44-1.88,1.44a4.613,4.613,0,0,1-2.32-.7Zm16.38-4.06a6.638,6.638,0,0,0,.06-.82c0-1.78-.84-4.56-4-4.56-2.82,0-4.54,2.3-4.54,5.22s1.78,4.88,4.76,4.88a7.84,7.84,0,0,0,3.22-.6l-.3-1.26a6.364,6.364,0,0,1-2.68.5,3.1,3.1,0,0,1-3.32-3.36Zm-6.78-1.26c.14-1.22.92-2.86,2.7-2.86,1.98,0,2.46,1.74,2.44,2.86Zm13.26,9.74h1.74V325.7h.04a3.4,3.4,0,0,0,2.98,1.52c2.28,0,4.4-1.72,4.4-5.2,0-2.94-1.76-4.92-4.1-4.92a3.806,3.806,0,0,0-3.44,1.88h-.04l-.08-1.66h-1.58c.04.92.08,1.92.08,3.16Zm1.74-9.56a2.854,2.854,0,0,1,.12-.72,2.808,2.808,0,0,1,2.66-2.18c1.86,0,2.88,1.66,2.88,3.6,0,2.22-1.08,3.74-2.94,3.74a2.716,2.716,0,0,1-2.64-2.06,3.964,3.964,0,0,1-.08-.72Zm17.74-4.08h-1.76v5.94a2.574,2.574,0,0,1-.16.9,2.544,2.544,0,0,1-2.32,1.6c-1.6,0-2.16-1.24-2.16-3.08v-5.36h-1.76v5.66c0,3.4,1.82,4.24,3.34,4.24a3.642,3.642,0,0,0,3.2-1.8h.04l.1,1.58h1.56c-.06-.76-.08-1.64-.08-2.64Zm10.7,5.16a6.641,6.641,0,0,0,.06-.82c0-1.78-.84-4.56-4-4.56-2.82,0-4.54,2.3-4.54,5.22s1.78,4.88,4.76,4.88a7.84,7.84,0,0,0,3.22-.6l-.3-1.26a6.364,6.364,0,0,1-2.68.5,3.1,3.1,0,0,1-3.32-3.36Zm-6.78-1.26c.14-1.22.92-2.86,2.7-2.86,1.98,0,2.46,1.74,2.44,2.86Zm15.62-8.42v5.78h-.04a3.237,3.237,0,0,0-2.92-1.48c-2.36,0-4.36,1.98-4.34,5.2,0,2.94,1.8,4.92,4.14,4.92a3.581,3.581,0,0,0,3.3-1.9h.04l.08,1.68h1.58c-.06-.66-.08-1.64-.08-2.5V312.8Zm0,10.14a3.057,3.057,0,0,1-.08.76,2.646,2.646,0,0,1-2.58,2.1c-1.9,0-2.86-1.62-2.86-3.58,0-2.14,1.08-3.74,2.9-3.74a2.588,2.588,0,0,1,2.54,2.04,3.107,3.107,0,0,1,.08.74ZM183.7,327a13.63,13.63,0,0,1-.16-2.32v-3.62c0-1.94-.72-3.96-3.68-3.96a6.008,6.008,0,0,0-3.18.86l.4,1.16a4.823,4.823,0,0,1,2.52-.72,2,2,0,0,1,2.2,2.24v.2c-3.74-.02-5.82,1.26-5.82,3.6a2.758,2.758,0,0,0,2.96,2.78,3.605,3.605,0,0,0,2.96-1.44h.06l.14,1.22Zm-1.86-3.26a1.837,1.837,0,0,1-.1.56,2.408,2.408,0,0,1-2.34,1.62,1.557,1.557,0,0,1-1.66-1.68c0-1.88,2.18-2.22,4.1-2.18ZM8.42,351a13.63,13.63,0,0,1-.16-2.32v-3.62c0-1.94-.72-3.96-3.68-3.96a6.008,6.008,0,0,0-3.18.86l.4,1.16a4.823,4.823,0,0,1,2.52-.72,2,2,0,0,1,2.2,2.24v.2C2.78,344.82.7,346.1.7,348.44a2.758,2.758,0,0,0,2.96,2.78,3.605,3.605,0,0,0,2.96-1.44h.06L6.82,351Zm-1.86-3.26a1.837,1.837,0,0,1-.1.56,2.408,2.408,0,0,1-2.34,1.62,1.557,1.557,0,0,1-1.66-1.68c0-1.88,2.18-2.22,4.1-2.18Zm11.14,1.58a5,5,0,0,1-2.16.48,3.649,3.649,0,0,1,.06-7.28,4.081,4.081,0,0,1,2.04.46l.4-1.36a5.883,5.883,0,0,0-2.44-.5,4.918,4.918,0,0,0-5.2,5.14,4.6,4.6,0,0,0,4.82,4.94,6.483,6.483,0,0,0,2.78-.56Zm8.84,0a5,5,0,0,1-2.16.48,3.649,3.649,0,0,1,.06-7.28,4.081,4.081,0,0,1,2.04.46l.4-1.36a5.883,5.883,0,0,0-2.44-.5,4.918,4.918,0,0,0-5.2,5.14,4.6,4.6,0,0,0,4.82,4.94,6.483,6.483,0,0,0,2.78-.56Zm10.02-2.84a6.638,6.638,0,0,0,.06-.82c0-1.78-.84-4.56-4-4.56-2.82,0-4.54,2.3-4.54,5.22s1.78,4.88,4.76,4.88a7.84,7.84,0,0,0,3.22-.6l-.3-1.26a6.364,6.364,0,0,1-2.68.5,3.1,3.1,0,0,1-3.32-3.36Zm-6.78-1.26c.14-1.22.92-2.86,2.7-2.86,1.98,0,2.46,1.74,2.44,2.86ZM45.4,336.8v5.78h-.04a3.237,3.237,0,0,0-2.92-1.48c-2.36,0-4.36,1.98-4.34,5.2,0,2.94,1.8,4.92,4.14,4.92a3.581,3.581,0,0,0,3.3-1.9h.04l.08,1.68h1.58c-.06-.66-.08-1.64-.08-2.5V336.8Zm0,10.14a3.057,3.057,0,0,1-.08.76,2.646,2.646,0,0,1-2.58,2.1c-1.9,0-2.86-1.62-2.86-3.58,0-2.14,1.08-3.74,2.9-3.74a2.588,2.588,0,0,1,2.54,2.04,3.107,3.107,0,0,1,.08.74Zm12.46-.46a6.64,6.64,0,0,0,.06-.82c0-1.78-.84-4.56-4-4.56-2.82,0-4.54,2.3-4.54,5.22s1.78,4.88,4.76,4.88a7.84,7.84,0,0,0,3.22-.6l-.3-1.26a6.364,6.364,0,0,1-2.68.5,3.1,3.1,0,0,1-3.32-3.36Zm-6.78-1.26c.14-1.22.92-2.86,2.7-2.86,1.98,0,2.46,1.74,2.44,2.86ZM60.1,351h1.74v-5.16a4.955,4.955,0,0,1,.08-.82,2.469,2.469,0,0,1,2.36-2.26,2.643,2.643,0,0,1,.6.06v-1.66a1.9,1.9,0,0,0-.5-.06,2.9,2.9,0,0,0-2.68,2.12h-.08l-.06-1.9H60.02c.06.9.08,1.88.08,3.02Zm12.7,0v-8.34h2.34v-1.34H72.8v-.52c0-1.48.38-2.8,1.88-2.8a2.628,2.628,0,0,1,1.12.22l.24-1.36a4.082,4.082,0,0,0-1.5-.28,3.368,3.368,0,0,0-2.36.9,4.563,4.563,0,0,0-1.12,3.38v.46H69.7v1.34h1.36V351Zm10.88,0a13.63,13.63,0,0,1-.16-2.32v-3.62c0-1.94-.72-3.96-3.68-3.96a6.008,6.008,0,0,0-3.18.86l.4,1.16a4.823,4.823,0,0,1,2.52-.72,2,2,0,0,1,2.2,2.24v.2c-3.74-.02-5.82,1.26-5.82,3.6a2.758,2.758,0,0,0,2.96,2.78,3.605,3.605,0,0,0,2.96-1.44h.06l.14,1.22Zm-1.86-3.26a1.837,1.837,0,0,1-.1.56,2.408,2.408,0,0,1-2.34,1.62,1.557,1.557,0,0,1-1.66-1.68c0-1.88,2.18-2.22,4.1-2.18Zm-1.06-10.6L79,340h1.26l2.44-2.86Zm12.2,12.18a5,5,0,0,1-2.16.48,3.649,3.649,0,0,1,.06-7.28,4.081,4.081,0,0,1,2.04.46l.4-1.36a5.883,5.883,0,0,0-2.44-.5,4.918,4.918,0,0,0-5.2,5.14,4.6,4.6,0,0,0,4.82,4.94,6.483,6.483,0,0,0,2.78-.56ZM97.08,351v-9.68H95.32V351Zm-.88-13.5a1.072,1.072,0,0,0-1.1,1.1,1.09,1.09,0,1,0,1.1-1.1ZM100,351h1.76V336.8H100Zm4.72,0h1.72v-5.84a2.623,2.623,0,0,1,2.32-2.62c1.34,0,2.02,1.12,2.02,2.66V351h1.72v-5.98a2.9,2.9,0,0,1,.14-.88,2.279,2.279,0,0,1,2.08-1.6c1.42,0,2.1,1.12,2.1,2.98V351h1.72v-5.7c0-3.36-1.9-4.2-3.18-4.2a3.3,3.3,0,0,0-2.14.68,3.987,3.987,0,0,0-1.08,1.26h-.04a2.862,2.862,0,0,0-2.74-1.94,3.336,3.336,0,0,0-3.04,1.78h-.06l-.08-1.56h-1.54c.06.8.08,1.62.08,2.62Zm24.46-4.52a6.638,6.638,0,0,0,.06-.82c0-1.78-.84-4.56-4-4.56-2.82,0-4.54,2.3-4.54,5.22s1.78,4.88,4.76,4.88a7.84,7.84,0,0,0,3.22-.6l-.3-1.26a6.364,6.364,0,0,1-2.68.5,3.1,3.1,0,0,1-3.32-3.36Zm-6.78-1.26c.14-1.22.92-2.86,2.7-2.86,1.98,0,2.46,1.74,2.44,2.86Zm9.02,5.78h1.76v-5.82a2.531,2.531,0,0,1,.12-.82,2.5,2.5,0,0,1,2.36-1.8c1.66,0,2.24,1.3,2.24,2.86V351h1.76v-5.78c0-3.32-2.08-4.12-3.42-4.12a3.56,3.56,0,0,0-3.2,1.82H133l-.1-1.6h-1.56c.06.8.08,1.62.08,2.62Zm11.42-12v2.32h-1.5v1.34h1.5v5.28a3.586,3.586,0,0,0,.68,2.52,2.439,2.439,0,0,0,1.9.74,4.308,4.308,0,0,0,1.56-.24l-.08-1.32a3.915,3.915,0,0,1-1.02.12c-.98,0-1.32-.68-1.32-1.88v-5.22h2.52v-1.34h-2.52v-2.78Zm13.88,7.48a6.641,6.641,0,0,0,.06-.82c0-1.78-.84-4.56-4-4.56-2.82,0-4.54,2.3-4.54,5.22s1.78,4.88,4.76,4.88a7.84,7.84,0,0,0,3.22-.6l-.3-1.26a6.364,6.364,0,0,1-2.68.5,3.1,3.1,0,0,1-3.32-3.36Zm-6.78-1.26c.14-1.22.92-2.86,2.7-2.86,1.98,0,2.46,1.74,2.44,2.86Zm9.54,6a1.262,1.262,0,1,0-1.18-1.26A1.171,1.171,0,0,0,159.48,351.22Z" transform="translate(925.819 1129.062)" fill="#6a2825"/>
    <g id="Grupo_64467" data-name="Grupo 64467" transform="translate(911.039 1134.492)">
      <path id="Trazado_132820" data-name="Trazado 132820" d="M784.239,2730h-.452a.746.746,0,0,0-.088-.018,5.366,5.366,0,0,1-2.292-.663,5.684,5.684,0,0,1-3.062-4.865,5.307,5.307,0,0,1,.67-2.958,5.67,5.67,0,0,1,4.863-3.065,5.389,5.389,0,0,1,3.193.8,5.721,5.721,0,0,1,2.754,3.979c.041.217.061.439.09.658v.611q-.035.307-.069.614a.442.442,0,0,1-.4.437.726.726,0,0,1-.305-.058,3.434,3.434,0,0,0-2.128-.141.167.167,0,0,1-.136-.038c-.344-.337-.685-.679-1.025-1.021a.2.2,0,0,1-.054-.1,1.578,1.578,0,0,0-1.206-1.455,8.082,8.082,0,0,0-1.847-.293c-.16-.01-.321-.016-.491-.023.014.249.02.481.039.713a7.385,7.385,0,0,0,.291,1.666,1.566,1.566,0,0,0,1.406,1.161.285.285,0,0,1,.155.074c.251.245.495.5.747.74a.127.127,0,0,1,.025.189,3.172,3.172,0,0,0-.449,1.736,7.857,7.857,0,0,0,.1.806.447.447,0,0,1-.242.469C784.3,2729.973,784.268,2729.99,784.239,2730Zm-3.724-6.874a.664.664,0,0,0,.672-.651.667.667,0,1,0-.672.651Zm-.118,3.239a.669.669,0,0,0,.675-.661.667.667,0,0,0-1.334-.014A.664.664,0,0,0,780.4,2726.369Zm6.471-5.569a.665.665,0,1,0-.7.655A.665.665,0,0,0,786.868,2720.8Zm-3.213-.424a.664.664,0,1,0-1.327-.008.664.664,0,0,0,1.327.008Zm-.266,7.607a.666.666,0,1,0-.681.653A.666.666,0,0,0,783.389,2727.983Zm4.677-5.2a.667.667,0,1,0,.662.673A.667.667,0,0,0,788.066,2722.787Z" transform="translate(-778.335 -2718.424)" fill="#6a2825"/>
      <path id="Trazado_132821" data-name="Trazado 132821" d="M784.9,2726.09a1.7,1.7,0,0,0,1.042-1.044c.033.03.058.052.081.076l3.1,3.1a.741.741,0,0,1-.954,1.135c-.035-.029-.069-.059-.1-.091l-3.093-3.094C784.952,2726.15,784.931,2726.125,784.9,2726.09Z" transform="translate(-778.557 -2718.648)" fill="#6a2825"/>
      <path id="Trazado_132822" data-name="Trazado 132822" d="M782.913,2723.054c.246.025.48.035.707.077a11.041,11.041,0,0,1,1.109.247,1.126,1.126,0,0,1,.638,1.578,1.155,1.155,0,0,1-2.185-.2A7.315,7.315,0,0,1,782.913,2723.054Z" transform="translate(-778.49 -2718.581)" fill="#6a2825"/>
    </g>
    <g id="Grupo_64468" data-name="Grupo 64468" transform="translate(911.039 1250.178)">
      <path id="Trazado_132823" data-name="Trazado 132823" d="M784.239,2849.746h-.452a.7.7,0,0,0-.088-.018,5.366,5.366,0,0,1-2.292-.663,5.685,5.685,0,0,1-3.062-4.867,5.3,5.3,0,0,1,.67-2.957,5.672,5.672,0,0,1,4.863-3.066,5.4,5.4,0,0,1,3.193.806,5.721,5.721,0,0,1,2.754,3.979c.041.216.061.438.09.657v.611c-.023.206-.046.411-.069.615a.443.443,0,0,1-.4.437.705.705,0,0,1-.305-.059,3.439,3.439,0,0,0-2.128-.14.174.174,0,0,1-.136-.038c-.344-.337-.685-.679-1.025-1.022a.193.193,0,0,1-.054-.1,1.579,1.579,0,0,0-1.206-1.456,8.053,8.053,0,0,0-1.847-.292c-.16-.01-.321-.016-.491-.023.014.248.02.481.039.713a7.394,7.394,0,0,0,.291,1.666,1.564,1.564,0,0,0,1.406,1.16.291.291,0,0,1,.155.074c.251.245.495.5.747.74a.127.127,0,0,1,.025.189,3.177,3.177,0,0,0-.449,1.737,7.849,7.849,0,0,0,.1.806.449.449,0,0,1-.242.469Zm-3.724-6.875a.666.666,0,0,0,.016-1.333.666.666,0,1,0-.016,1.333Zm-.118,3.238a.668.668,0,0,0,.675-.661.667.667,0,0,0-1.334-.014A.662.662,0,0,0,780.4,2846.109Zm6.471-5.568a.665.665,0,1,0-.7.655A.666.666,0,0,0,786.868,2840.542Zm-3.213-.424a.664.664,0,1,0-1.327-.009.664.664,0,0,0,1.327.009Zm-.266,7.606a.666.666,0,1,0-.681.653A.665.665,0,0,0,783.389,2847.724Zm4.677-5.2a.667.667,0,1,0,0,1.333.667.667,0,0,0,0-1.333Z" transform="translate(-778.335 -2838.164)" fill="#6a2825"/>
      <path id="Trazado_132824" data-name="Trazado 132824" d="M784.9,2845.83a1.7,1.7,0,0,0,1.042-1.044c.033.031.058.052.081.076l3.1,3.1a.741.741,0,0,1-.954,1.135c-.035-.029-.069-.059-.1-.091l-3.093-3.094C784.952,2845.891,784.931,2845.865,784.9,2845.83Z" transform="translate(-778.557 -2838.388)" fill="#6a2825"/>
      <path id="Trazado_132825" data-name="Trazado 132825" d="M782.913,2842.794c.246.026.48.035.707.077a11.042,11.042,0,0,1,1.109.247,1.126,1.126,0,0,1,.638,1.579,1.187,1.187,0,0,1-1.878.358,1.2,1.2,0,0,1-.307-.558A7.307,7.307,0,0,1,782.913,2842.794Z" transform="translate(-778.49 -2838.321)" fill="#6a2825"/>
    </g>
  </g>
</svg>
