<?xml version="1.0" encoding="utf-8"?>
<!-- Generator: Adobe Illustrator 25.4.1, SVG Export Plug-In . SVG Version: 6.00 Build 0)  -->
<svg version="1.1" id="Capa_1" xmlns="http://www.w3.org/2000/svg" xmlns:xlink="http://www.w3.org/1999/xlink" x="0px" y="0px"
	 viewBox="0 0 42.8 50" style="enable-background:new 0 0 42.8 50;" xml:space="preserve">
<style type="text/css">
	.st0{fill:#FFFFFF;}
	.st1{fill:#86C3BB;}
	.st2{fill:#F8F8F8;}
</style>
<g transform="translate(0.001)">
	<path class="st0" d="M9.1,0h21.1c1.4,1.4,9.6,9.7,12.5,12.6V46c0,2.2-1.8,4-4,4H9.1c-2.2,0-4-1.8-4-4V4C5.2,1.8,6.9,0,9.1,0z"/>
	<path class="st1" d="M30.3,0H9.2C6.9,0,5.1,1.9,5.1,4.1v41.7c0,2.3,1.8,4.1,4.1,4.1h29.4c2.3,0,4.1-1.9,4.1-4.1V12.6L30.3,0z
		 M40.4,45.8c0,1-0.8,1.8-1.8,1.8H9.2c-1,0-1.8-0.8-1.8-1.8V4.1c0-1,0.8-1.8,1.8-1.8h20.1l0,0v11.2h11.1l0,0V45.8z"/>
	<path class="st1" d="M36.9,41c0,0.9-0.7,1.6-1.5,1.6H1.5C0.7,42.6,0,41.9,0,41V24.6C0,23.8,0.7,23,1.5,23h33.8
		c0.9,0,1.6,0.8,1.5,1.6V41z"/>
	<path class="st2" d="M14.7,36v2H6.5v-1.6l4.6-5.4H6.6v-2h7.8v1.6L9.9,36H14.7z M16.3,28.9h2.6V38h-2.6V28.9z M25.4,28.9
		c0.7,0,1.5,0.1,2.1,0.4c0.6,0.2,1.1,0.7,1.4,1.2c0.3,0.5,0.5,1.2,0.5,1.8c0,0.6-0.2,1.2-0.5,1.8c-0.3,0.5-0.8,0.9-1.4,1.2
		c-0.7,0.3-1.4,0.4-2.1,0.4h-1.6V38h-2.6v-9.1H25.4z M25.3,33.6c0.4,0,0.9-0.1,1.2-0.3c0.3-0.2,0.4-0.6,0.4-1c0-0.4-0.1-0.7-0.4-1
		c-0.3-0.3-0.8-0.4-1.2-0.4h-1.4v2.7L25.3,33.6z"/>
</g>
</svg>
