<svg xmlns="http://www.w3.org/2000/svg" width="333.905" height="478.908" viewBox="0 0 333.905 478.908">
  <g id="Grupo_64935" data-name="Grupo 64935" transform="translate(-390 -1066)">
    <rect id="Rectángulo_7845" data-name="Rectángulo 7845" width="224.418" height="375.7" rx="14.042" transform="translate(390 1066)" fill="#508d85"/>
    <rect id="Rectángulo_7846" data-name="Rectángulo 7846" width="224.418" height="375.7" rx="14.042" transform="translate(499.487 1169.208)" fill="#6bbcb1"/>
    <g id="Grupo_64461" data-name="Grupo 64461" transform="translate(622.64 1066.346)">
      <path id="Trazado_132810" data-name="Trazado 132810" d="M576.643,2742.007a2.636,2.636,0,0,1-2.636-2.636v-68.723a17.508,17.508,0,0,0-17.487-17.487H482.466a2.636,2.636,0,0,1,0-5.271H556.52a22.784,22.784,0,0,1,22.759,22.759v68.723A2.635,2.635,0,0,1,576.643,2742.007Z" transform="translate(-479.83 -2647.89)" fill="#365e59"/>
    </g>
    <g id="Grupo_64462" data-name="Grupo 64462" transform="translate(390 1447.186)">
      <path id="Trazado_132811" data-name="Trazado 132811" d="M241.675,3042.075a2.635,2.635,0,0,1,2.635,2.635v68.723a17.507,17.507,0,0,0,17.488,17.487h74.054a2.636,2.636,0,1,1,0,5.271H261.8a22.784,22.784,0,0,1-22.759-22.758V3044.71A2.635,2.635,0,0,1,241.675,3042.075Z" transform="translate(-239.039 -3042.075)" fill="#365e59"/>
    </g>
    <rect id="Rectángulo_7847" data-name="Rectángulo 7847" width="300.916" height="440.626" rx="12.363" transform="translate(406.495 1085.141)" fill="#dcf9f4"/>
    <path id="Trazado_133807" data-name="Trazado 133807" d="M11.367,21.414a8.214,8.214,0,0,1-3.867.82,6.236,6.236,0,0,1-4.785-1.924,7.1,7.1,0,0,1-1.8-5.049,7.44,7.44,0,0,1,2.021-5.43,6.861,6.861,0,0,1,5.127-2.07,8.22,8.22,0,0,1,3.3.576v1.748a6.694,6.694,0,0,0-3.32-.84,5.1,5.1,0,0,0-3.911,1.611,6.07,6.07,0,0,0-1.5,4.307,5.776,5.776,0,0,0,1.4,4.077A4.768,4.768,0,0,0,7.715,20.76a6.9,6.9,0,0,0,3.652-.937Zm6.816.82a4.638,4.638,0,0,1-3.54-1.4,5.191,5.191,0,0,1-1.323-3.716A5.407,5.407,0,0,1,14.7,13.182a4.95,4.95,0,0,1,3.721-1.416,4.485,4.485,0,0,1,3.491,1.377,5.46,5.46,0,0,1,1.255,3.818,5.372,5.372,0,0,1-1.353,3.833A4.739,4.739,0,0,1,18.184,22.234Zm.117-9.121a3.046,3.046,0,0,0-2.441,1.05,4.312,4.312,0,0,0-.9,2.9,4.078,4.078,0,0,0,.908,2.8A3.087,3.087,0,0,0,18.3,20.887a2.928,2.928,0,0,0,2.388-1.006,4.365,4.365,0,0,0,.835-2.861,4.44,4.44,0,0,0-.835-2.891A2.915,2.915,0,0,0,18.3,13.113ZM34.023,22h-1.6V16.3q0-3.184-2.324-3.184a2.521,2.521,0,0,0-1.987.9,3.348,3.348,0,0,0-.786,2.28V22h-1.6V12h1.6v1.66h.039a3.609,3.609,0,0,1,3.281-1.895,3.059,3.059,0,0,1,2.51,1.06,4.72,4.72,0,0,1,.869,3.062Zm11.553,0h-1.6V20.3h-.039A3.7,3.7,0,0,1,40.5,22.234a3.735,3.735,0,0,1-3.013-1.343,5.509,5.509,0,0,1-1.128-3.657,5.993,5.993,0,0,1,1.25-3.975,4.123,4.123,0,0,1,3.33-1.494,3.206,3.206,0,0,1,3,1.621h.039V7.2h1.6Zm-1.6-4.521V16a2.861,2.861,0,0,0-.8-2.051,2.686,2.686,0,0,0-2.031-.84,2.766,2.766,0,0,0-2.3,1.074A4.707,4.707,0,0,0,38,17.156a4.234,4.234,0,0,0,.806,2.729,2.633,2.633,0,0,0,2.163,1,2.735,2.735,0,0,0,2.173-.967A3.6,3.6,0,0,0,43.975,17.479Zm5.664-8.018a1.015,1.015,0,0,1-.732-.293.989.989,0,0,1-.3-.742,1.026,1.026,0,0,1,1.035-1.045,1.034,1.034,0,0,1,.747.3,1.043,1.043,0,0,1,0,1.479A1.025,1.025,0,0,1,49.639,9.461ZM50.42,22h-1.6V12h1.6Zm10.059-.459a5.2,5.2,0,0,1-2.734.693,4.527,4.527,0,0,1-3.452-1.392,5.043,5.043,0,0,1-1.313-3.608,5.544,5.544,0,0,1,1.416-3.97,4.954,4.954,0,0,1,3.779-1.5,5.261,5.261,0,0,1,2.324.488v1.641a4.072,4.072,0,0,0-2.383-.781,3.22,3.22,0,0,0-2.515,1.1,4.169,4.169,0,0,0-.981,2.886,3.969,3.969,0,0,0,.923,2.773,3.181,3.181,0,0,0,2.476,1.016,4.014,4.014,0,0,0,2.461-.869Zm3.242-12.08a1.015,1.015,0,0,1-.732-.293.989.989,0,0,1-.3-.742,1.026,1.026,0,0,1,1.035-1.045,1.034,1.034,0,0,1,.747.3,1.043,1.043,0,0,1,0,1.479A1.025,1.025,0,0,1,63.721,9.461ZM64.5,22H62.9V12h1.6Zm7.422.234a4.638,4.638,0,0,1-3.54-1.4,5.191,5.191,0,0,1-1.323-3.716,5.407,5.407,0,0,1,1.377-3.936,4.95,4.95,0,0,1,3.721-1.416,4.485,4.485,0,0,1,3.491,1.377A5.46,5.46,0,0,1,76.9,16.961a5.372,5.372,0,0,1-1.353,3.833A4.739,4.739,0,0,1,71.924,22.234Zm.117-9.121a3.046,3.046,0,0,0-2.441,1.05,4.312,4.312,0,0,0-.9,2.9,4.078,4.078,0,0,0,.908,2.8,3.087,3.087,0,0,0,2.432,1.025,2.928,2.928,0,0,0,2.388-1.006,4.365,4.365,0,0,0,.835-2.861,4.44,4.44,0,0,0-.835-2.891A2.915,2.915,0,0,0,72.041,13.113ZM74.385,6.9l-2.559,3.2h-1.24l2.178-3.2ZM87.764,22h-1.6V16.3q0-3.184-2.324-3.184a2.521,2.521,0,0,0-1.987.9,3.348,3.348,0,0,0-.786,2.28V22h-1.6V12h1.6v1.66H81.1a3.609,3.609,0,0,1,3.281-1.895,3.059,3.059,0,0,1,2.51,1.06,4.72,4.72,0,0,1,.869,3.062Zm13.945,0h-1.6V9.9a3.707,3.707,0,0,1-.542.425,8.835,8.835,0,0,1-.8.474q-.444.234-.937.439a6.813,6.813,0,0,1-.962.322V9.939a9.311,9.311,0,0,0,1.118-.4q.591-.249,1.162-.557t1.079-.645a8.568,8.568,0,0,0,.879-.659h.605Z" transform="translate(421.673 1099.539)" fill="#365e59"/>
    <path id="Trazado_133806" data-name="Trazado 133806" d="M1.52,15h7.5V13.54H3.26V1.52H1.52Zm16.34,0a13.629,13.629,0,0,1-.16-2.32V9.06c0-1.94-.72-3.96-3.68-3.96a6.008,6.008,0,0,0-3.18.86l.4,1.16a4.823,4.823,0,0,1,2.52-.72,2,2,0,0,1,2.2,2.24v.2c-3.74-.02-5.82,1.26-5.82,3.6a2.758,2.758,0,0,0,2.96,2.78,3.605,3.605,0,0,0,2.96-1.44h.06L16.26,15ZM16,11.74a1.837,1.837,0,0,1-.1.56,2.408,2.408,0,0,1-2.34,1.62,1.557,1.557,0,0,1-1.66-1.68c0-1.88,2.18-2.22,4.1-2.18Zm15.38,1.58a5,5,0,0,1-2.16.48,3.319,3.319,0,0,1-3.36-3.62,3.35,3.35,0,0,1,3.42-3.66,4.081,4.081,0,0,1,2.04.46l.4-1.36a5.883,5.883,0,0,0-2.44-.5,4.918,4.918,0,0,0-5.2,5.14A4.6,4.6,0,0,0,28.9,15.2a6.483,6.483,0,0,0,2.78-.56Zm10.46-8H40.08v5.94a2.574,2.574,0,0,1-.16.9,2.544,2.544,0,0,1-2.32,1.6c-1.6,0-2.16-1.24-2.16-3.08V5.32H33.68v5.66c0,3.4,1.82,4.24,3.34,4.24a3.642,3.642,0,0,0,3.2-1.8h.04l.1,1.58h1.56c-.06-.76-.08-1.64-.08-2.64ZM44.76,15H46.5V9.84a4.954,4.954,0,0,1,.08-.82,2.469,2.469,0,0,1,2.36-2.26,2.644,2.644,0,0,1,.6.06V5.16a1.9,1.9,0,0,0-.5-.06,2.9,2.9,0,0,0-2.68,2.12h-.08l-.06-1.9H44.68c.06.9.08,1.88.08,3.02ZM50.6,5.32,54.28,15h1.68l3.8-9.68H57.92l-1.88,5.44c-.32.88-.6,1.68-.82,2.48h-.06a24.894,24.894,0,0,0-.78-2.48l-1.9-5.44ZM68.3,15a13.629,13.629,0,0,1-.16-2.32V9.06c0-1.94-.72-3.96-3.68-3.96a6.008,6.008,0,0,0-3.18.86l.4,1.16A4.823,4.823,0,0,1,64.2,6.4a2,2,0,0,1,2.2,2.24v.2c-3.74-.02-5.82,1.26-5.82,3.6a2.758,2.758,0,0,0,2.96,2.78,3.605,3.605,0,0,0,2.96-1.44h.06L66.7,15Zm-1.86-3.26a1.837,1.837,0,0,1-.1.56A2.408,2.408,0,0,1,64,13.92a1.557,1.557,0,0,1-1.66-1.68c0-1.88,2.18-2.22,4.1-2.18ZM81.82.8V6.58h-.04A3.237,3.237,0,0,0,78.86,5.1c-2.36,0-4.36,1.98-4.34,5.2,0,2.94,1.8,4.92,4.14,4.92a3.581,3.581,0,0,0,3.3-1.9H82L82.08,15h1.58c-.06-.66-.08-1.64-.08-2.5V.8Zm0,10.14a3.057,3.057,0,0,1-.08.76,2.646,2.646,0,0,1-2.58,2.1c-1.9,0-2.86-1.62-2.86-3.58,0-2.14,1.08-3.74,2.9-3.74a2.588,2.588,0,0,1,2.54,2.04,3.107,3.107,0,0,1,.08.74Zm12.46-.46a6.637,6.637,0,0,0,.06-.82c0-1.78-.84-4.56-4-4.56-2.82,0-4.54,2.3-4.54,5.22s1.78,4.88,4.76,4.88a7.84,7.84,0,0,0,3.22-.6l-.3-1.26a6.364,6.364,0,0,1-2.68.5,3.1,3.1,0,0,1-3.32-3.36ZM87.5,9.22c.14-1.22.92-2.86,2.7-2.86,1.98,0,2.46,1.74,2.44,2.86ZM97.96,15l.08-1.6h.06a3.448,3.448,0,0,0,3.24,1.82c2.16,0,4.34-1.72,4.34-5.18C105.7,7.1,104,5.1,101.6,5.1a3.605,3.605,0,0,0-3.3,1.78h-.04V.8H96.52V12.5c0,.86-.04,1.84-.08,2.5Zm.3-5.62a3.469,3.469,0,0,1,.1-.72,2.806,2.806,0,0,1,2.68-2.16c1.88,0,2.88,1.66,2.88,3.6,0,2.22-1.1,3.72-2.94,3.72a2.716,2.716,0,0,1-2.64-2.06,3.3,3.3,0,0,1-.08-.64Zm17.42,1.1a6.637,6.637,0,0,0,.06-.82c0-1.78-.84-4.56-4-4.56-2.82,0-4.54,2.3-4.54,5.22s1.78,4.88,4.76,4.88a7.84,7.84,0,0,0,3.22-.6l-.3-1.26a6.364,6.364,0,0,1-2.68.5,3.1,3.1,0,0,1-3.32-3.36ZM108.9,9.22c.14-1.22.92-2.86,2.7-2.86,1.98,0,2.46,1.74,2.44,2.86Zm12.58,5.32a5.52,5.52,0,0,0,2.72.66c2.3,0,3.62-1.2,3.62-2.9,0-1.44-.86-2.28-2.54-2.92-1.26-.48-1.84-.84-1.84-1.64,0-.72.58-1.32,1.62-1.32a3.767,3.767,0,0,1,1.98.56l.44-1.28a4.832,4.832,0,0,0-2.38-.6c-2.08,0-3.34,1.28-3.34,2.84,0,1.16.82,2.12,2.56,2.74,1.3.48,1.8.94,1.8,1.78,0,.8-.6,1.44-1.88,1.44a4.613,4.613,0,0,1-2.32-.7Zm16.38-4.06a6.64,6.64,0,0,0,.06-.82c0-1.78-.84-4.56-4-4.56-2.82,0-4.54,2.3-4.54,5.22s1.78,4.88,4.76,4.88a7.84,7.84,0,0,0,3.22-.6l-.3-1.26a6.364,6.364,0,0,1-2.68.5,3.1,3.1,0,0,1-3.32-3.36Zm-6.78-1.26c.14-1.22.92-2.86,2.7-2.86,1.98,0,2.46,1.74,2.44,2.86ZM140.1,15h1.74V9.84a4.954,4.954,0,0,1,.08-.82,2.469,2.469,0,0,1,2.36-2.26,2.644,2.644,0,0,1,.6.06V5.16a1.9,1.9,0,0,0-.5-.06,2.9,2.9,0,0,0-2.68,2.12h-.08l-.06-1.9h-1.54c.06.9.08,1.88.08,3.02Zm12.7,0V6.66h2.34V5.32H152.8V4.8c0-1.48.38-2.8,1.88-2.8a2.628,2.628,0,0,1,1.12.22l.24-1.36a4.081,4.081,0,0,0-1.5-.28,3.368,3.368,0,0,0-2.36.9,4.563,4.563,0,0,0-1.12,3.38v.46H149.7V6.66h1.36V15Zm10.88,0a13.63,13.63,0,0,1-.16-2.32V9.06c0-1.94-.72-3.96-3.68-3.96a6.008,6.008,0,0,0-3.18.86l.4,1.16a4.823,4.823,0,0,1,2.52-.72,2,2,0,0,1,2.2,2.24v.2c-3.74-.02-5.82,1.26-5.82,3.6a2.758,2.758,0,0,0,2.96,2.78,3.605,3.605,0,0,0,2.96-1.44h.06l.14,1.22Zm-1.86-3.26a1.837,1.837,0,0,1-.1.56,2.408,2.408,0,0,1-2.34,1.62,1.557,1.557,0,0,1-1.66-1.68c0-1.88,2.18-2.22,4.1-2.18Zm-1.06-10.6L159,4h1.26l2.44-2.86Zm12.2,12.18a5,5,0,0,1-2.16.48,3.319,3.319,0,0,1-3.36-3.62,3.35,3.35,0,0,1,3.42-3.66,4.081,4.081,0,0,1,2.04.46l.4-1.36a5.883,5.883,0,0,0-2.44-.5,4.918,4.918,0,0,0-5.2,5.14,4.6,4.6,0,0,0,4.82,4.94,6.483,6.483,0,0,0,2.78-.56ZM177.08,15V5.32h-1.76V15ZM176.2,1.5a1.072,1.072,0,0,0-1.1,1.1,1.09,1.09,0,0,0,2.18,0A1.045,1.045,0,0,0,176.2,1.5ZM180,15h1.76V.8H180Zm4.72,0h1.72V9.16a2.426,2.426,0,0,1,.14-.86,2.4,2.4,0,0,1,2.18-1.76c1.34,0,2.02,1.12,2.02,2.66V15h1.72V9.02a2.9,2.9,0,0,1,.14-.88,2.279,2.279,0,0,1,2.08-1.6c1.42,0,2.1,1.12,2.1,2.98V15h1.72V9.3c0-3.36-1.9-4.2-3.18-4.2a3.3,3.3,0,0,0-2.14.68,3.988,3.988,0,0,0-1.08,1.26h-.04a2.862,2.862,0,0,0-2.74-1.94,3.336,3.336,0,0,0-3.04,1.78h-.06l-.08-1.56h-1.54c.06.8.08,1.62.08,2.62Zm24.46-4.52a6.64,6.64,0,0,0,.06-.82c0-1.78-.84-4.56-4-4.56-2.82,0-4.54,2.3-4.54,5.22s1.78,4.88,4.76,4.88a7.84,7.84,0,0,0,3.22-.6l-.3-1.26a6.364,6.364,0,0,1-2.68.5,3.1,3.1,0,0,1-3.32-3.36ZM202.4,9.22c.14-1.22.92-2.86,2.7-2.86,1.98,0,2.46,1.74,2.44,2.86ZM211.42,15h1.76V9.18a2.531,2.531,0,0,1,.12-.82,2.5,2.5,0,0,1,2.36-1.8c1.66,0,2.24,1.3,2.24,2.86V15h1.76V9.22c0-3.32-2.08-4.12-3.42-4.12a3.56,3.56,0,0,0-3.2,1.82H213l-.1-1.6h-1.56c.06.8.08,1.62.08,2.62ZM222.84,3V5.32h-1.5V6.66h1.5v5.28a3.586,3.586,0,0,0,.68,2.52,2.439,2.439,0,0,0,1.9.74,4.308,4.308,0,0,0,1.56-.24l-.08-1.32a3.915,3.915,0,0,1-1.02.12c-.98,0-1.32-.68-1.32-1.88V6.66h2.52V5.32h-2.52V2.54Zm13.88,7.48a6.64,6.64,0,0,0,.06-.82c0-1.78-.84-4.56-4-4.56-2.82,0-4.54,2.3-4.54,5.22s1.78,4.88,4.76,4.88a7.84,7.84,0,0,0,3.22-.6l-.3-1.26a6.364,6.364,0,0,1-2.68.5,3.1,3.1,0,0,1-3.32-3.36Zm-6.78-1.26c.14-1.22.92-2.86,2.7-2.86,1.98,0,2.46,1.74,2.44,2.86ZM.78,38.54a5.52,5.52,0,0,0,2.72.66c2.3,0,3.62-1.2,3.62-2.9,0-1.44-.86-2.28-2.54-2.92-1.26-.48-1.84-.84-1.84-1.64,0-.72.58-1.32,1.62-1.32a3.767,3.767,0,0,1,1.98.56l.44-1.28a4.832,4.832,0,0,0-2.38-.6c-2.08,0-3.34,1.28-3.34,2.84,0,1.16.82,2.12,2.56,2.74,1.3.48,1.8.94,1.8,1.78,0,.8-.6,1.44-1.88,1.44a4.613,4.613,0,0,1-2.32-.7Zm16.38-4.06a6.638,6.638,0,0,0,.06-.82c0-1.78-.84-4.56-4-4.56-2.82,0-4.54,2.3-4.54,5.22s1.78,4.88,4.76,4.88a7.84,7.84,0,0,0,3.22-.6l-.3-1.26a6.364,6.364,0,0,1-2.68.5,3.1,3.1,0,0,1-3.32-3.36Zm-6.78-1.26c.14-1.22.92-2.86,2.7-2.86,1.98,0,2.46,1.74,2.44,2.86ZM19.4,39h1.76V24.8H19.4Zm12.5-4.52a6.638,6.638,0,0,0,.06-.82c0-1.78-.84-4.56-4-4.56-2.82,0-4.54,2.3-4.54,5.22s1.78,4.88,4.76,4.88a7.84,7.84,0,0,0,3.22-.6l-.3-1.26a6.364,6.364,0,0,1-2.68.5,3.1,3.1,0,0,1-3.32-3.36Zm-6.78-1.26c.14-1.22.92-2.86,2.7-2.86,1.98,0,2.46,1.74,2.44,2.86Zm15.62,4.1a5,5,0,0,1-2.16.48,3.319,3.319,0,0,1-3.36-3.62,3.35,3.35,0,0,1,3.42-3.66,4.081,4.081,0,0,1,2.04.46l.4-1.36a5.883,5.883,0,0,0-2.44-.5,4.918,4.918,0,0,0-5.2,5.14,4.6,4.6,0,0,0,4.82,4.94,6.483,6.483,0,0,0,2.78-.56Zm8.84,0a5,5,0,0,1-2.16.48,3.319,3.319,0,0,1-3.36-3.62,3.35,3.35,0,0,1,3.42-3.66,4.081,4.081,0,0,1,2.04.46l.4-1.36a5.883,5.883,0,0,0-2.44-.5,4.918,4.918,0,0,0-5.2,5.14A4.6,4.6,0,0,0,47.1,39.2a6.483,6.483,0,0,0,2.78-.56ZM53.7,39V29.32H51.94V39Zm-.88-13.5a1.072,1.072,0,0,0-1.1,1.1,1.09,1.09,0,1,0,1.1-1.1Zm7.9,3.6c-2.68,0-4.8,1.9-4.8,5.14,0,3.06,2.02,4.98,4.64,4.98,2.34,0,4.82-1.56,4.82-5.14C65.38,31.12,63.5,29.1,60.72,29.1Zm-.04,1.32c2.08,0,2.9,2.08,2.9,3.72,0,2.18-1.26,3.76-2.94,3.76-1.72,0-2.94-1.6-2.94-3.72C57.7,32.34,58.6,30.42,60.68,30.42ZM67.6,39h1.76V33.18a2.531,2.531,0,0,1,.12-.82,2.5,2.5,0,0,1,2.36-1.8c1.66,0,2.24,1.3,2.24,2.86V39h1.76V33.22c0-3.32-2.08-4.12-3.42-4.12a3.56,3.56,0,0,0-3.2,1.82h-.04l-.1-1.6H67.52c.06.8.08,1.62.08,2.62Zm18.06,0a13.63,13.63,0,0,1-.16-2.32V33.06c0-1.94-.72-3.96-3.68-3.96a6.008,6.008,0,0,0-3.18.86l.4,1.16a4.823,4.823,0,0,1,2.52-.72,2,2,0,0,1,2.2,2.24v.2c-3.74-.02-5.82,1.26-5.82,3.6a2.758,2.758,0,0,0,2.96,2.78,3.605,3.605,0,0,0,2.96-1.44h.06L84.06,39ZM83.8,35.74a1.837,1.837,0,0,1-.1.56,2.408,2.408,0,0,1-2.34,1.62,1.557,1.557,0,0,1-1.66-1.68c0-1.88,2.18-2.22,4.1-2.18ZM89.78,39l.08-1.6h.06a3.448,3.448,0,0,0,3.24,1.82c2.16,0,4.34-1.72,4.34-5.18.02-2.94-1.68-4.94-4.08-4.94a3.605,3.605,0,0,0-3.3,1.78h-.04V24.8H88.34V36.5c0,.86-.04,1.84-.08,2.5Zm.3-5.62a3.469,3.469,0,0,1,.1-.72,2.806,2.806,0,0,1,2.68-2.16c1.88,0,2.88,1.66,2.88,3.6,0,2.22-1.1,3.72-2.94,3.72a2.716,2.716,0,0,1-2.64-2.06,3.3,3.3,0,0,1-.08-.64ZM99.72,39h1.76V24.8H99.72Zm12.5-4.52a6.637,6.637,0,0,0,.06-.82c0-1.78-.84-4.56-4-4.56-2.82,0-4.54,2.3-4.54,5.22s1.78,4.88,4.76,4.88a7.84,7.84,0,0,0,3.22-.6l-.3-1.26a6.364,6.364,0,0,1-2.68.5,3.1,3.1,0,0,1-3.32-3.36Zm-6.78-1.26c.14-1.22.92-2.86,2.7-2.86,1.98,0,2.46,1.74,2.44,2.86Zm13.26,9.74h1.74V37.7h.04a3.4,3.4,0,0,0,2.98,1.52c2.28,0,4.4-1.72,4.4-5.2,0-2.94-1.76-4.92-4.1-4.92a3.806,3.806,0,0,0-3.44,1.88h-.04l-.08-1.66h-1.58c.04.92.08,1.92.08,3.16Zm1.74-9.56a2.854,2.854,0,0,1,.12-.72,2.808,2.808,0,0,1,2.66-2.18c1.86,0,2.88,1.66,2.88,3.6,0,2.22-1.08,3.74-2.94,3.74a2.716,2.716,0,0,1-2.64-2.06,3.963,3.963,0,0,1-.08-.72Zm13.74-4.3c-2.68,0-4.8,1.9-4.8,5.14,0,3.06,2.02,4.98,4.64,4.98,2.34,0,4.82-1.56,4.82-5.14C138.84,31.12,136.96,29.1,134.18,29.1Zm-.04,1.32c2.08,0,2.9,2.08,2.9,3.72,0,2.18-1.26,3.76-2.94,3.76-1.72,0-2.94-1.6-2.94-3.72C131.16,32.34,132.06,30.42,134.14,30.42ZM141.06,39h1.74V33.84a4.954,4.954,0,0,1,.08-.82,2.469,2.469,0,0,1,2.36-2.26,2.644,2.644,0,0,1,.6.06V29.16a1.9,1.9,0,0,0-.5-.06,2.9,2.9,0,0,0-2.68,2.12h-.08l-.06-1.9h-1.54c.06.9.08,1.88.08,3.02Zm10.78,3.96h1.74V37.7h.04a3.4,3.4,0,0,0,2.98,1.52c2.28,0,4.4-1.72,4.4-5.2,0-2.94-1.76-4.92-4.1-4.92a3.806,3.806,0,0,0-3.44,1.88h-.04l-.08-1.66h-1.58c.04.92.08,1.92.08,3.16Zm1.74-9.56a2.854,2.854,0,0,1,.12-.72,2.808,2.808,0,0,1,2.66-2.18c1.86,0,2.88,1.66,2.88,3.6,0,2.22-1.08,3.74-2.94,3.74a2.716,2.716,0,0,1-2.64-2.06,3.964,3.964,0,0,1-.08-.72Zm16.6,5.6a13.63,13.63,0,0,1-.16-2.32V33.06c0-1.94-.72-3.96-3.68-3.96a6.008,6.008,0,0,0-3.18.86l.4,1.16a4.823,4.823,0,0,1,2.52-.72,2,2,0,0,1,2.2,2.24v.2c-3.74-.02-5.82,1.26-5.82,3.6a2.758,2.758,0,0,0,2.96,2.78,3.605,3.605,0,0,0,2.96-1.44h.06l.14,1.22Zm-1.86-3.26a1.837,1.837,0,0,1-.1.56,2.408,2.408,0,0,1-2.34,1.62,1.557,1.557,0,0,1-1.66-1.68c0-1.88,2.18-2.22,4.1-2.18ZM172.86,39h1.74V33.84a4.954,4.954,0,0,1,.08-.82,2.469,2.469,0,0,1,2.36-2.26,2.644,2.644,0,0,1,.6.06V29.16a1.9,1.9,0,0,0-.5-.06,2.9,2.9,0,0,0-2.68,2.12h-.08l-.06-1.9h-1.54c.06.9.08,1.88.08,3.02Zm7.42-12v2.32h-1.5v1.34h1.5v5.28a3.586,3.586,0,0,0,.68,2.52,2.439,2.439,0,0,0,1.9.74,4.308,4.308,0,0,0,1.56-.24l-.08-1.32a3.915,3.915,0,0,1-1.02.12c-.98,0-1.32-.68-1.32-1.88V30.66h2.52V29.32H182V26.54Zm13.88,7.48a6.64,6.64,0,0,0,.06-.82c0-1.78-.84-4.56-4-4.56-2.82,0-4.54,2.3-4.54,5.22s1.78,4.88,4.76,4.88a7.84,7.84,0,0,0,3.22-.6l-.3-1.26a6.364,6.364,0,0,1-2.68.5,3.1,3.1,0,0,1-3.32-3.36Zm-6.78-1.26c.14-1.22.92-2.86,2.7-2.86,1.98,0,2.46,1.74,2.44,2.86Zm19.86-8.42v5.78h-.04a3.237,3.237,0,0,0-2.92-1.48c-2.36,0-4.36,1.98-4.34,5.2,0,2.94,1.8,4.92,4.14,4.92a3.581,3.581,0,0,0,3.3-1.9h.04L207.5,39h1.58c-.06-.66-.08-1.64-.08-2.5V24.8Zm0,10.14a3.057,3.057,0,0,1-.08.76,2.646,2.646,0,0,1-2.58,2.1c-1.9,0-2.86-1.62-2.86-3.58,0-2.14,1.08-3.74,2.9-3.74a2.588,2.588,0,0,1,2.54,2.04,3.107,3.107,0,0,1,.08.74Zm12.46-.46a6.64,6.64,0,0,0,.06-.82c0-1.78-.84-4.56-4-4.56-2.82,0-4.54,2.3-4.54,5.22s1.78,4.88,4.76,4.88a7.84,7.84,0,0,0,3.22-.6l-.3-1.26a6.364,6.364,0,0,1-2.68.5,3.1,3.1,0,0,1-3.32-3.36Zm-6.78-1.26c.14-1.22.92-2.86,2.7-2.86,1.98,0,2.46,1.74,2.44,2.86ZM221.94,39h1.76V24.8h-1.76ZM9.24,58.48a6.638,6.638,0,0,0,.06-.82c0-1.78-.84-4.56-4-4.56C2.48,53.1.76,55.4.76,58.32S2.54,63.2,5.52,63.2a7.84,7.84,0,0,0,3.22-.6l-.3-1.26a6.364,6.364,0,0,1-2.68.5,3.1,3.1,0,0,1-3.32-3.36ZM2.46,57.22c.14-1.22.92-2.86,2.7-2.86,1.98,0,2.46,1.74,2.44,2.86Zm15.62,9.74h1.76V55.98c0-1,.02-1.84.06-2.66H18.24l-.06,1.46h-.04a3.181,3.181,0,0,0-2.98-1.68c-2.04,0-4.38,1.6-4.38,5.22,0,2.94,1.84,4.9,4.1,4.9a3.446,3.446,0,0,0,3.16-1.72h.04Zm0-7.9a2.956,2.956,0,0,1-.14.84,2.622,2.622,0,0,1-2.52,1.92c-1.94,0-2.86-1.68-2.86-3.6,0-2.18,1.1-3.72,2.92-3.72a2.572,2.572,0,0,1,2.52,2,3,3,0,0,1,.08.74Zm12.76-5.74H29.08v5.94a2.574,2.574,0,0,1-.16.9,2.544,2.544,0,0,1-2.32,1.6c-1.6,0-2.16-1.24-2.16-3.08V53.32H22.68v5.66c0,3.4,1.82,4.24,3.34,4.24a3.642,3.642,0,0,0,3.2-1.8h.04l.1,1.58h1.56c-.06-.76-.08-1.64-.08-2.64ZM35.52,63V53.32H33.76V63Zm-.88-13.5a1.072,1.072,0,0,0-1.1,1.1,1.09,1.09,0,1,0,1.1-1.1Zm3.8,17.46h1.74V61.7h.04a3.4,3.4,0,0,0,2.98,1.52c2.28,0,4.4-1.72,4.4-5.2,0-2.94-1.76-4.92-4.1-4.92a3.806,3.806,0,0,0-3.44,1.88h-.04l-.08-1.66H38.36c.04.92.08,1.92.08,3.16Zm1.74-9.56a2.854,2.854,0,0,1,.12-.72,2.808,2.808,0,0,1,2.66-2.18c1.86,0,2.88,1.66,2.88,3.6,0,2.22-1.08,3.74-2.94,3.74a2.716,2.716,0,0,1-2.64-2.06,3.963,3.963,0,0,1-.08-.72Zm13.74-4.3c-2.68,0-4.8,1.9-4.8,5.14,0,3.06,2.02,4.98,4.64,4.98,2.34,0,4.82-1.56,4.82-5.14C58.58,55.12,56.7,53.1,53.92,53.1Zm-.04,1.32c2.08,0,2.9,2.08,2.9,3.72,0,2.18-1.26,3.76-2.94,3.76-1.72,0-2.94-1.6-2.94-3.72C50.9,56.34,51.8,54.42,53.88,54.42ZM71.64,48.8v5.78H71.6a3.237,3.237,0,0,0-2.92-1.48c-2.36,0-4.36,1.98-4.34,5.2,0,2.94,1.8,4.92,4.14,4.92a3.581,3.581,0,0,0,3.3-1.9h.04L71.9,63h1.58c-.06-.66-.08-1.64-.08-2.5V48.8Zm0,10.14a3.057,3.057,0,0,1-.08.76,2.646,2.646,0,0,1-2.58,2.1c-1.9,0-2.86-1.62-2.86-3.58,0-2.14,1.08-3.74,2.9-3.74a2.588,2.588,0,0,1,2.54,2.04,3.107,3.107,0,0,1,.08.74Zm12.46-.46a6.637,6.637,0,0,0,.06-.82c0-1.78-.84-4.56-4-4.56-2.82,0-4.54,2.3-4.54,5.22s1.78,4.88,4.76,4.88a7.84,7.84,0,0,0,3.22-.6l-.3-1.26a6.364,6.364,0,0,1-2.68.5,3.1,3.1,0,0,1-3.32-3.36Zm-6.78-1.26c.14-1.22.92-2.86,2.7-2.86,1.98,0,2.46,1.74,2.44,2.86ZM97.54,63a13.63,13.63,0,0,1-.16-2.32V57.06c0-1.94-.72-3.96-3.68-3.96a6.008,6.008,0,0,0-3.18.86l.4,1.16a4.823,4.823,0,0,1,2.52-.72,2,2,0,0,1,2.2,2.24v.2c-3.74-.02-5.82,1.26-5.82,3.6a2.758,2.758,0,0,0,2.96,2.78,3.605,3.605,0,0,0,2.96-1.44h.06L95.94,63Zm-1.86-3.26a1.837,1.837,0,0,1-.1.56,2.408,2.408,0,0,1-2.34,1.62,1.557,1.557,0,0,1-1.66-1.68c0-1.88,2.18-2.22,4.1-2.18ZM100.22,63h1.76V57.18a2.531,2.531,0,0,1,.12-.82,2.5,2.5,0,0,1,2.36-1.8c1.66,0,2.24,1.3,2.24,2.86V63h1.76V57.22c0-3.32-2.08-4.12-3.42-4.12a3.56,3.56,0,0,0-3.2,1.82h-.04l-.1-1.6h-1.56c.06.8.08,1.62.08,2.62Zm12.86,0V53.32h-1.76V63Zm-.88-13.5a1.072,1.072,0,0,0-1.1,1.1,1.09,1.09,0,1,0,1.1-1.1ZM116,63h1.72V57.16a2.623,2.623,0,0,1,2.32-2.62c1.34,0,2.02,1.12,2.02,2.66V63h1.72V57.02a2.9,2.9,0,0,1,.14-.88,2.279,2.279,0,0,1,2.08-1.6c1.42,0,2.1,1.12,2.1,2.98V63h1.72V57.3c0-3.36-1.9-4.2-3.18-4.2a3.3,3.3,0,0,0-2.14.68,3.988,3.988,0,0,0-1.08,1.26h-.04a2.862,2.862,0,0,0-2.74-1.94,3.336,3.336,0,0,0-3.04,1.78h-.06l-.08-1.56h-1.54c.06.8.08,1.62.08,2.62Zm23.64,0a13.63,13.63,0,0,1-.16-2.32V57.06c0-1.94-.72-3.96-3.68-3.96a6.008,6.008,0,0,0-3.18.86l.4,1.16a4.823,4.823,0,0,1,2.52-.72,2,2,0,0,1,2.2,2.24v.2c-3.74-.02-5.82,1.26-5.82,3.6a2.758,2.758,0,0,0,2.96,2.78,3.605,3.605,0,0,0,2.96-1.44h.06l.14,1.22Zm-1.86-3.26a1.837,1.837,0,0,1-.1.56,2.408,2.408,0,0,1-2.34,1.62,1.557,1.557,0,0,1-1.66-1.68c0-1.88,2.18-2.22,4.1-2.18ZM148.92,48.8v5.78h-.04a3.237,3.237,0,0,0-2.92-1.48c-2.36,0-4.36,1.98-4.34,5.2,0,2.94,1.8,4.92,4.14,4.92a3.581,3.581,0,0,0,3.3-1.9h.04l.08,1.68h1.58c-.06-.66-.08-1.64-.08-2.5V48.8Zm0,10.14a3.057,3.057,0,0,1-.08.76,2.646,2.646,0,0,1-2.58,2.1c-1.9,0-2.86-1.62-2.86-3.58,0-2.14,1.08-3.74,2.9-3.74a2.588,2.588,0,0,1,2.54,2.04,3.107,3.107,0,0,1,.08.74Zm8.78-5.84c-2.68,0-4.8,1.9-4.8,5.14,0,3.06,2.02,4.98,4.64,4.98,2.34,0,4.82-1.56,4.82-5.14C162.36,55.12,160.48,53.1,157.7,53.1Zm-.04,1.32c2.08,0,2.9,2.08,2.9,3.72,0,2.18-1.26,3.76-2.94,3.76-1.72,0-2.94-1.6-2.94-3.72C154.68,56.34,155.58,54.42,157.66,54.42ZM164.58,63h1.74V57.84a4.954,4.954,0,0,1,.08-.82,2.469,2.469,0,0,1,2.36-2.26,2.644,2.644,0,0,1,.6.06V53.16a1.9,1.9,0,0,0-.5-.06,2.9,2.9,0,0,0-2.68,2.12h-.08l-.06-1.9H164.5c.06.9.08,1.88.08,3.02Zm14.12-4.52a6.64,6.64,0,0,0,.06-.82c0-1.78-.84-4.56-4-4.56-2.82,0-4.54,2.3-4.54,5.22s1.78,4.88,4.76,4.88a7.84,7.84,0,0,0,3.22-.6l-.3-1.26a6.364,6.364,0,0,1-2.68.5,3.1,3.1,0,0,1-3.32-3.36Zm-6.78-1.26c.14-1.22.92-2.86,2.7-2.86,1.98,0,2.46,1.74,2.44,2.86Zm8.34,5.32a5.52,5.52,0,0,0,2.72.66c2.3,0,3.62-1.2,3.62-2.9,0-1.44-.86-2.28-2.54-2.92-1.26-.48-1.84-.84-1.84-1.64,0-.72.58-1.32,1.62-1.32a3.767,3.767,0,0,1,1.98.56l.44-1.28a4.831,4.831,0,0,0-2.38-.6c-2.08,0-3.34,1.28-3.34,2.84,0,1.16.82,2.12,2.56,2.74,1.3.48,1.8.94,1.8,1.78,0,.8-.6,1.44-1.88,1.44a4.613,4.613,0,0,1-2.32-.7Zm9.14.68a1.262,1.262,0,1,0-1.18-1.26A1.171,1.171,0,0,0,189.4,63.22ZM1.52,111h7.5v-1.46H3.26V97.52H1.52Zm16.34,0a13.629,13.629,0,0,1-.16-2.32v-3.62c0-1.94-.72-3.96-3.68-3.96a6.008,6.008,0,0,0-3.18.86l.4,1.16a4.823,4.823,0,0,1,2.52-.72,2,2,0,0,1,2.2,2.24v.2c-3.74-.02-5.82,1.26-5.82,3.6a2.758,2.758,0,0,0,2.96,2.78,3.605,3.605,0,0,0,2.96-1.44h.06l.14,1.22ZM16,107.74a1.837,1.837,0,0,1-.1.56,2.408,2.408,0,0,1-2.34,1.62,1.557,1.557,0,0,1-1.66-1.68c0-1.88,2.18-2.22,4.1-2.18Zm8.1,2.8a5.52,5.52,0,0,0,2.72.66c2.3,0,3.62-1.2,3.62-2.9,0-1.44-.86-2.28-2.54-2.92-1.26-.48-1.84-.84-1.84-1.64,0-.72.58-1.32,1.62-1.32a3.767,3.767,0,0,1,1.98.56l.44-1.28a4.832,4.832,0,0,0-2.38-.6c-2.08,0-3.34,1.28-3.34,2.84,0,1.16.82,2.12,2.56,2.74,1.3.48,1.8.94,1.8,1.78,0,.8-.6,1.44-1.88,1.44a4.612,4.612,0,0,1-2.32-.7Zm12.7-9.44c-2.68,0-4.8,1.9-4.8,5.14,0,3.06,2.02,4.98,4.64,4.98,2.34,0,4.82-1.56,4.82-5.14C41.46,103.12,39.58,101.1,36.8,101.1Zm-.04,1.32c2.08,0,2.9,2.08,2.9,3.72,0,2.18-1.26,3.76-2.94,3.76-1.72,0-2.94-1.6-2.94-3.72C33.78,104.34,34.68,102.42,36.76,102.42ZM43.68,111h1.76V96.8H43.68Zm12.82-9.68H54.74v5.94a2.574,2.574,0,0,1-.16.9,2.544,2.544,0,0,1-2.32,1.6c-1.6,0-2.16-1.24-2.16-3.08v-5.36H48.34v5.66c0,3.4,1.82,4.24,3.34,4.24a3.642,3.642,0,0,0,3.2-1.8h.04l.1,1.58h1.56c-.06-.76-.08-1.64-.08-2.64Zm9.52,8a5,5,0,0,1-2.16.48,3.649,3.649,0,0,1,.06-7.28,4.081,4.081,0,0,1,2.04.46l.4-1.36a5.883,5.883,0,0,0-2.44-.5,4.918,4.918,0,0,0-5.2,5.14,4.6,4.6,0,0,0,4.82,4.94,6.483,6.483,0,0,0,2.78-.56ZM70.14,111v-9.68H68.38V111Zm-.88-13.5a1.072,1.072,0,0,0-1.1,1.1,1.09,1.09,0,1,0,1.1-1.1Zm7.9,3.6c-2.68,0-4.8,1.9-4.8,5.14,0,3.06,2.02,4.98,4.64,4.98,2.34,0,4.82-1.56,4.82-5.14C81.82,103.12,79.94,101.1,77.16,101.1Zm-.04,1.32c2.08,0,2.9,2.08,2.9,3.72,0,2.18-1.26,3.76-2.94,3.76-1.72,0-2.94-1.6-2.94-3.72C74.14,104.34,75.04,102.42,77.12,102.42Zm.66-5.28L76.02,100h1.26l2.44-2.86ZM84.04,111H85.8v-5.82a2.531,2.531,0,0,1,.12-.82,2.5,2.5,0,0,1,2.36-1.8c1.66,0,2.24,1.3,2.24,2.86V111h1.76v-5.78c0-3.32-2.08-4.12-3.42-4.12a3.56,3.56,0,0,0-3.2,1.82h-.04l-.1-1.6H83.96c.06.8.08,1.62.08,2.62Zm14.66-.46a5.52,5.52,0,0,0,2.72.66c2.3,0,3.62-1.2,3.62-2.9,0-1.44-.86-2.28-2.54-2.92-1.26-.48-1.84-.84-1.84-1.64,0-.72.58-1.32,1.62-1.32a3.767,3.767,0,0,1,1.98.56l.44-1.28a4.832,4.832,0,0,0-2.38-.6c-2.08,0-3.34,1.28-3.34,2.84,0,1.16.82,2.12,2.56,2.74,1.3.48,1.8.94,1.8,1.78,0,.8-.6,1.44-1.88,1.44a4.612,4.612,0,0,1-2.32-.7Zm16.38-4.06a6.637,6.637,0,0,0,.06-.82c0-1.78-.84-4.56-4-4.56-2.82,0-4.54,2.3-4.54,5.22s1.78,4.88,4.76,4.88a7.84,7.84,0,0,0,3.22-.6l-.3-1.26a6.364,6.364,0,0,1-2.68.5,3.1,3.1,0,0,1-3.32-3.36Zm-6.78-1.26c.14-1.22.92-2.86,2.7-2.86,1.98,0,2.46,1.74,2.44,2.86Zm9.02,5.78h1.74v-5.16a4.954,4.954,0,0,1,.08-.82,2.469,2.469,0,0,1,2.36-2.26,2.644,2.644,0,0,1,.6.06v-1.66a1.9,1.9,0,0,0-.5-.06,2.9,2.9,0,0,0-2.68,2.12h-.08l-.06-1.9h-1.54c.06.9.08,1.88.08,3.02Zm13.4,0a13.628,13.628,0,0,1-.16-2.32v-3.62c0-1.94-.72-3.96-3.68-3.96a6.008,6.008,0,0,0-3.18.86l.4,1.16a4.823,4.823,0,0,1,2.52-.72,2,2,0,0,1,2.2,2.24v.2c-3.74-.02-5.82,1.26-5.82,3.6a2.758,2.758,0,0,0,2.96,2.78,3.605,3.605,0,0,0,2.96-1.44h.06l.14,1.22Zm-1.86-3.26a1.837,1.837,0,0,1-.1.56,2.408,2.408,0,0,1-2.34,1.62,1.557,1.557,0,0,1-1.66-1.68c0-1.88,2.18-2.22,4.1-2.18Zm-1.06-10.6L126.04,100h1.26l2.44-2.86Zm16.44,12.18a5,5,0,0,1-2.16.48,3.649,3.649,0,0,1,.06-7.28,4.081,4.081,0,0,1,2.04.46l.4-1.36a5.883,5.883,0,0,0-2.44-.5,4.918,4.918,0,0,0-5.2,5.14,4.6,4.6,0,0,0,4.82,4.94,6.483,6.483,0,0,0,2.78-.56ZM146.6,111h1.74v-5.16a4.955,4.955,0,0,1,.08-.82,2.469,2.469,0,0,1,2.36-2.26,2.644,2.644,0,0,1,.6.06v-1.66a1.9,1.9,0,0,0-.5-.06,2.9,2.9,0,0,0-2.68,2.12h-.08l-.06-1.9h-1.54c.06.9.08,1.88.08,3.02Zm14.12-4.52a6.64,6.64,0,0,0,.06-.82c0-1.78-.84-4.56-4-4.56-2.82,0-4.54,2.3-4.54,5.22s1.78,4.88,4.76,4.88a7.84,7.84,0,0,0,3.22-.6l-.3-1.26a6.364,6.364,0,0,1-2.68.5,3.1,3.1,0,0,1-3.32-3.36Zm-6.78-1.26c.14-1.22.92-2.86,2.7-2.86,1.98,0,2.46,1.74,2.44,2.86ZM169.92,111a13.63,13.63,0,0,1-.16-2.32v-3.62c0-1.94-.72-3.96-3.68-3.96a6.008,6.008,0,0,0-3.18.86l.4,1.16a4.823,4.823,0,0,1,2.52-.72,2,2,0,0,1,2.2,2.24v.2c-3.74-.02-5.82,1.26-5.82,3.6a2.758,2.758,0,0,0,2.96,2.78,3.605,3.605,0,0,0,2.96-1.44h.06l.14,1.22Zm-1.86-3.26a1.837,1.837,0,0,1-.1.56,2.408,2.408,0,0,1-2.34,1.62,1.557,1.557,0,0,1-1.66-1.68c0-1.88,2.18-2.22,4.1-2.18ZM172.6,111h1.74v-5.16a4.955,4.955,0,0,1,.08-.82,2.469,2.469,0,0,1,2.36-2.26,2.644,2.644,0,0,1,.6.06v-1.66a1.9,1.9,0,0,0-.5-.06,2.9,2.9,0,0,0-2.68,2.12h-.08l-.06-1.9h-1.54c.06.9.08,1.88.08,3.02Zm17.38-1.68a5,5,0,0,1-2.16.48,3.649,3.649,0,0,1,.06-7.28,4.081,4.081,0,0,1,2.04.46l.4-1.36a5.883,5.883,0,0,0-2.44-.5,4.918,4.918,0,0,0-5.2,5.14,4.6,4.6,0,0,0,4.82,4.94,6.483,6.483,0,0,0,2.78-.56Zm10.46-8h-1.76v5.94a2.574,2.574,0,0,1-.16.9,2.544,2.544,0,0,1-2.32,1.6c-1.6,0-2.16-1.24-2.16-3.08v-5.36h-1.76v5.66c0,3.4,1.82,4.24,3.34,4.24a3.642,3.642,0,0,0,3.2-1.8h.04l.1,1.58h1.56c-.06-.76-.08-1.64-.08-2.64Zm2.92,9.68h1.74v-5.16a4.955,4.955,0,0,1,.08-.82,2.469,2.469,0,0,1,2.36-2.26,2.644,2.644,0,0,1,.6.06v-1.66a1.9,1.9,0,0,0-.5-.06,2.9,2.9,0,0,0-2.68,2.12h-.08l-.06-1.9h-1.54c.06.9.08,1.88.08,3.02Zm5.84-9.68,3.68,9.68h1.68l3.8-9.68h-1.84l-1.88,5.44c-.32.88-.6,1.68-.82,2.48h-.06a24.9,24.9,0,0,0-.78-2.48l-1.9-5.44ZM226.9,111a13.63,13.63,0,0,1-.16-2.32v-3.62c0-1.94-.72-3.96-3.68-3.96a6.008,6.008,0,0,0-3.18.86l.4,1.16a4.823,4.823,0,0,1,2.52-.72,2,2,0,0,1,2.2,2.24v.2c-3.74-.02-5.82,1.26-5.82,3.6a2.758,2.758,0,0,0,2.96,2.78,3.605,3.605,0,0,0,2.96-1.44h.06l.14,1.22Zm-1.86-3.26a1.837,1.837,0,0,1-.1.56,2.408,2.408,0,0,1-2.34,1.62,1.557,1.557,0,0,1-1.66-1.68c0-1.88,2.18-2.22,4.1-2.18Zm3.86,2.8a5.52,5.52,0,0,0,2.72.66c2.3,0,3.62-1.2,3.62-2.9,0-1.44-.86-2.28-2.54-2.92-1.26-.48-1.84-.84-1.84-1.64,0-.72.58-1.32,1.62-1.32a3.767,3.767,0,0,1,1.98.56l.44-1.28a4.831,4.831,0,0,0-2.38-.6c-2.08,0-3.34,1.28-3.34,2.84,0,1.16.82,2.12,2.56,2.74,1.3.48,1.8.94,1.8,1.78,0,.8-.6,1.44-1.88,1.44a4.613,4.613,0,0,1-2.32-.7ZM8.06,138.96H9.82V127.98c0-1,.02-1.84.06-2.66H8.22l-.06,1.46H8.12a3.181,3.181,0,0,0-2.98-1.68c-2.04,0-4.38,1.6-4.38,5.22,0,2.94,1.84,4.9,4.1,4.9a3.446,3.446,0,0,0,3.16-1.72h.04Zm0-7.9a2.956,2.956,0,0,1-.14.84,2.622,2.622,0,0,1-2.52,1.92c-1.94,0-2.86-1.68-2.86-3.6,0-2.18,1.1-3.72,2.92-3.72a2.572,2.572,0,0,1,2.52,2,3,3,0,0,1,.08.74Zm12.76-5.74H19.06v5.94a2.574,2.574,0,0,1-.16.9,2.544,2.544,0,0,1-2.32,1.6c-1.6,0-2.16-1.24-2.16-3.08v-5.36H12.66v5.66c0,3.4,1.82,4.24,3.34,4.24a3.642,3.642,0,0,0,3.2-1.8h.04l.1,1.58H20.9c-.06-.76-.08-1.64-.08-2.64Zm10.7,5.16a6.638,6.638,0,0,0,.06-.82c0-1.78-.84-4.56-4-4.56-2.82,0-4.54,2.3-4.54,5.22s1.78,4.88,4.76,4.88a7.84,7.84,0,0,0,3.22-.6l-.3-1.26a6.364,6.364,0,0,1-2.68.5,3.1,3.1,0,0,1-3.32-3.36Zm-6.78-1.26c.14-1.22.92-2.86,2.7-2.86,1.98,0,2.46,1.74,2.44,2.86Zm12.58,5.32a5.52,5.52,0,0,0,2.72.66c2.3,0,3.62-1.2,3.62-2.9,0-1.44-.86-2.28-2.54-2.92-1.26-.48-1.84-.84-1.84-1.64,0-.72.58-1.32,1.62-1.32a3.767,3.767,0,0,1,1.98.56l.44-1.28a4.831,4.831,0,0,0-2.38-.6c-2.08,0-3.34,1.28-3.34,2.84,0,1.16.82,2.12,2.56,2.74,1.3.48,1.8.94,1.8,1.78,0,.8-.6,1.44-1.88,1.44a4.613,4.613,0,0,1-2.32-.7Zm12.7-9.44c-2.68,0-4.8,1.9-4.8,5.14,0,3.06,2.02,4.98,4.64,4.98,2.34,0,4.82-1.56,4.82-5.14C54.68,127.12,52.8,125.1,50.02,125.1Zm-.04,1.32c2.08,0,2.9,2.08,2.9,3.72,0,2.18-1.26,3.76-2.94,3.76-1.72,0-2.94-1.6-2.94-3.72C47,128.34,47.9,126.42,49.98,126.42ZM58.34,135l.08-1.6h.06a3.448,3.448,0,0,0,3.24,1.82c2.16,0,4.34-1.72,4.34-5.18.02-2.94-1.68-4.94-4.08-4.94a3.605,3.605,0,0,0-3.3,1.78h-.04V120.8H56.9v11.7c0,.86-.04,1.84-.08,2.5Zm.3-5.62a3.469,3.469,0,0,1,.1-.72,2.806,2.806,0,0,1,2.68-2.16c1.88,0,2.88,1.66,2.88,3.6,0,2.22-1.1,3.72-2.94,3.72a2.716,2.716,0,0,1-2.64-2.06,3.3,3.3,0,0,1-.08-.64ZM68.28,135h1.74v-5.16a4.953,4.953,0,0,1,.08-.82,2.469,2.469,0,0,1,2.36-2.26,2.644,2.644,0,0,1,.6.06v-1.66a1.9,1.9,0,0,0-.5-.06,2.9,2.9,0,0,0-2.68,2.12H69.8l-.06-1.9H68.2c.06.9.08,1.88.08,3.02Zm14.12-4.52a6.637,6.637,0,0,0,.06-.82c0-1.78-.84-4.56-4-4.56-2.82,0-4.54,2.3-4.54,5.22s1.78,4.88,4.76,4.88a7.84,7.84,0,0,0,3.22-.6l-.3-1.26a6.364,6.364,0,0,1-2.68.5,3.1,3.1,0,0,1-3.32-3.36Zm-6.78-1.26c.14-1.22.92-2.86,2.7-2.86,1.98,0,2.46,1.74,2.44,2.86Zm8.34,5.32a5.52,5.52,0,0,0,2.72.66c2.3,0,3.62-1.2,3.62-2.9,0-1.44-.86-2.28-2.54-2.92-1.26-.48-1.84-.84-1.84-1.64,0-.72.58-1.32,1.62-1.32a3.767,3.767,0,0,1,1.98.56l.44-1.28a4.832,4.832,0,0,0-2.38-.6c-2.08,0-3.34,1.28-3.34,2.84,0,1.16.82,2.12,2.56,2.74,1.3.48,1.8.94,1.8,1.78,0,.8-.6,1.44-1.88,1.44a4.613,4.613,0,0,1-2.32-.7Zm15.56.46a13.63,13.63,0,0,1-.16-2.32v-3.62c0-1.94-.72-3.96-3.68-3.96a6.008,6.008,0,0,0-3.18.86l.4,1.16a4.823,4.823,0,0,1,2.52-.72,2,2,0,0,1,2.2,2.24v.2c-3.74-.02-5.82,1.26-5.82,3.6a2.758,2.758,0,0,0,2.96,2.78,3.605,3.605,0,0,0,2.96-1.44h.06l.14,1.22Zm-1.86-3.26a1.837,1.837,0,0,1-.1.56,2.408,2.408,0,0,1-2.34,1.62,1.557,1.557,0,0,1-1.66-1.68c0-1.88,2.18-2.22,4.1-2.18ZM102.2,135h1.76V120.8H102.2Zm11.52-9.68-.08,1.46h-.04a3.22,3.22,0,0,0-3.02-1.68c-2.22,0-4.36,1.86-4.36,5.14,0,2.68,1.72,4.72,4.12,4.72a3.456,3.456,0,0,0,3.08-1.62h.04v1.08c0,2.44-1.32,3.38-3.12,3.38a5.458,5.458,0,0,1-2.84-.76l-.44,1.34a6.248,6.248,0,0,0,3.22.8,5.132,5.132,0,0,0,3.52-1.16c.94-.84,1.38-2.2,1.38-4.42v-5.62c0-1.18.04-1.96.08-2.66Zm-.28,5.56a3.062,3.062,0,0,1-.14.94,2.573,2.573,0,0,1-2.44,1.8c-1.9,0-2.86-1.58-2.86-3.48,0-2.24,1.2-3.66,2.88-3.66a2.535,2.535,0,0,1,2.46,1.86,2.506,2.506,0,0,1,.1.8ZM125.06,135a13.63,13.63,0,0,1-.16-2.32v-3.62c0-1.94-.72-3.96-3.68-3.96a6.008,6.008,0,0,0-3.18.86l.4,1.16a4.823,4.823,0,0,1,2.52-.72,2,2,0,0,1,2.2,2.24v.2c-3.74-.02-5.82,1.26-5.82,3.6a2.758,2.758,0,0,0,2.96,2.78,3.605,3.605,0,0,0,2.96-1.44h.06l.14,1.22Zm-1.86-3.26a1.837,1.837,0,0,1-.1.56,2.408,2.408,0,0,1-2.34,1.62,1.557,1.557,0,0,1-1.66-1.68c0-1.88,2.18-2.22,4.1-2.18Zm4.54,3.26h1.76v-5.82a2.531,2.531,0,0,1,.12-.82,2.5,2.5,0,0,1,2.36-1.8c1.66,0,2.24,1.3,2.24,2.86V135h1.76v-5.78c0-3.32-2.08-4.12-3.42-4.12a3.56,3.56,0,0,0-3.2,1.82h-.04l-.1-1.6h-1.56c.06.8.08,1.62.08,2.62Zm21.94-14.2v5.78h-.04a3.237,3.237,0,0,0-2.92-1.48c-2.36,0-4.36,1.98-4.34,5.2,0,2.94,1.8,4.92,4.14,4.92a3.581,3.581,0,0,0,3.3-1.9h.04l.08,1.68h1.58c-.06-.66-.08-1.64-.08-2.5V120.8Zm0,10.14a3.057,3.057,0,0,1-.08.76,2.646,2.646,0,0,1-2.58,2.1c-1.9,0-2.86-1.62-2.86-3.58,0-2.14,1.08-3.74,2.9-3.74a2.588,2.588,0,0,1,2.54,2.04,3.107,3.107,0,0,1,.08.74Zm12.46-.46a6.64,6.64,0,0,0,.06-.82c0-1.78-.84-4.56-4-4.56-2.82,0-4.54,2.3-4.54,5.22s1.78,4.88,4.76,4.88a7.841,7.841,0,0,0,3.22-.6l-.3-1.26a6.364,6.364,0,0,1-2.68.5,3.1,3.1,0,0,1-3.32-3.36Zm-6.78-1.26c.14-1.22.92-2.86,2.7-2.86,1.98,0,2.46,1.74,2.44,2.86ZM168.62,135h1.76V120.8h-1.76Zm11.68,0a13.63,13.63,0,0,1-.16-2.32v-3.62c0-1.94-.72-3.96-3.68-3.96a6.008,6.008,0,0,0-3.18.86l.4,1.16a4.823,4.823,0,0,1,2.52-.72,2,2,0,0,1,2.2,2.24v.2c-3.74-.02-5.82,1.26-5.82,3.6a2.758,2.758,0,0,0,2.96,2.78,3.605,3.605,0,0,0,2.96-1.44h.06l.14,1.22Zm-1.86-3.26a1.837,1.837,0,0,1-.1.56,2.408,2.408,0,0,1-2.34,1.62,1.557,1.557,0,0,1-1.66-1.68c0-1.88,2.18-2.22,4.1-2.18ZM8.26,149.32l-.08,1.46H8.14a3.22,3.22,0,0,0-3.02-1.68c-2.22,0-4.36,1.86-4.36,5.14,0,2.68,1.72,4.72,4.12,4.72a3.456,3.456,0,0,0,3.08-1.62H8v1.08c0,2.44-1.32,3.38-3.12,3.38a5.458,5.458,0,0,1-2.84-.76l-.44,1.34a6.248,6.248,0,0,0,3.22.8,5.132,5.132,0,0,0,3.52-1.16c.94-.84,1.38-2.2,1.38-4.42v-5.62c0-1.18.04-1.96.08-2.66Zm-.28,5.56a3.062,3.062,0,0,1-.14.94,2.573,2.573,0,0,1-2.44,1.8c-1.9,0-2.86-1.58-2.86-3.48,0-2.24,1.2-3.66,2.88-3.66a2.535,2.535,0,0,1,2.46,1.86,2.507,2.507,0,0,1,.1.8Zm12.44-.4a6.638,6.638,0,0,0,.06-.82c0-1.78-.84-4.56-4-4.56-2.82,0-4.54,2.3-4.54,5.22s1.78,4.88,4.76,4.88a7.84,7.84,0,0,0,3.22-.6l-.3-1.26a6.364,6.364,0,0,1-2.68.5,3.1,3.1,0,0,1-3.32-3.36Zm-6.78-1.26c.14-1.22.92-2.86,2.7-2.86,1.98,0,2.46,1.74,2.44,2.86Zm13.12-4.12c-2.68,0-4.8,1.9-4.8,5.14,0,3.06,2.02,4.98,4.64,4.98,2.34,0,4.82-1.56,4.82-5.14C31.42,151.12,29.54,149.1,26.76,149.1Zm-.04,1.32c2.08,0,2.9,2.08,2.9,3.72,0,2.18-1.26,3.76-2.94,3.76-1.72,0-2.94-1.6-2.94-3.72C23.74,152.34,24.64,150.42,26.72,150.42ZM33.64,159h1.72v-5.84a2.623,2.623,0,0,1,2.32-2.62c1.34,0,2.02,1.12,2.02,2.66V159h1.72v-5.98a2.9,2.9,0,0,1,.14-.88,2.279,2.279,0,0,1,2.08-1.6c1.42,0,2.1,1.12,2.1,2.98V159h1.72v-5.7c0-3.36-1.9-4.2-3.18-4.2a3.3,3.3,0,0,0-2.14.68,3.988,3.988,0,0,0-1.08,1.26h-.04a2.862,2.862,0,0,0-2.74-1.94,3.336,3.336,0,0,0-3.04,1.78h-.06l-.08-1.56H33.56c.06.8.08,1.62.08,2.62Zm24.46-4.52a6.637,6.637,0,0,0,.06-.82c0-1.78-.84-4.56-4-4.56-2.82,0-4.54,2.3-4.54,5.22s1.78,4.88,4.76,4.88a7.84,7.84,0,0,0,3.22-.6l-.3-1.26a6.364,6.364,0,0,1-2.68.5,3.1,3.1,0,0,1-3.32-3.36Zm-6.78-1.26c.14-1.22.92-2.86,2.7-2.86,1.98,0,2.46,1.74,2.44,2.86ZM60.74,147v2.32h-1.5v1.34h1.5v5.28a3.586,3.586,0,0,0,.68,2.52,2.439,2.439,0,0,0,1.9.74,4.308,4.308,0,0,0,1.56-.24l-.08-1.32a3.915,3.915,0,0,1-1.02.12c-.98,0-1.32-.68-1.32-1.88v-5.22h2.52v-1.34H62.46v-2.78Zm6.22,12H68.7v-5.16a4.953,4.953,0,0,1,.08-.82,2.469,2.469,0,0,1,2.36-2.26,2.643,2.643,0,0,1,.6.06v-1.66a1.9,1.9,0,0,0-.5-.06,2.9,2.9,0,0,0-2.68,2.12h-.08l-.06-1.9H66.88c.06.9.08,1.88.08,3.02Zm8.38,0v-9.68H73.58V159Zm-.12-13.86L73.46,148h1.26l2.44-2.86Zm10,13.86a13.63,13.63,0,0,1-.16-2.32v-3.62c0-1.94-.72-3.96-3.68-3.96a6.008,6.008,0,0,0-3.18.86l.4,1.16a4.823,4.823,0,0,1,2.52-.72,2,2,0,0,1,2.2,2.24v.2c-3.74-.02-5.82,1.26-5.82,3.6a2.758,2.758,0,0,0,2.96,2.78,3.605,3.605,0,0,0,2.96-1.44h.06l.14,1.22Zm-1.86-3.26a1.837,1.837,0,0,1-.1.56,2.408,2.408,0,0,1-2.34,1.62,1.557,1.557,0,0,1-1.66-1.68c0-1.88,2.18-2.22,4.1-2.18Zm5.3,3.48a1.262,1.262,0,1,0-1.18-1.26A1.171,1.171,0,0,0,88.66,159.22Zm14.66-7.98H98.08v-4.26h5.54v-1.46H96.34V159h7.58v-1.46H98.08v-4.86h5.24Zm2.8,7.76h1.76v-5.82a2.531,2.531,0,0,1,.12-.82,2.5,2.5,0,0,1,2.36-1.8c1.66,0,2.24,1.3,2.24,2.86V159h1.76v-5.78c0-3.32-2.08-4.12-3.42-4.12a3.56,3.56,0,0,0-3.2,1.82h-.04l-.1-1.6h-1.56c.06.8.08,1.62.08,2.62Zm22.3,0a13.63,13.63,0,0,1-.16-2.32v-3.62c0-1.94-.72-3.96-3.68-3.96a6.008,6.008,0,0,0-3.18.86l.4,1.16a4.823,4.823,0,0,1,2.52-.72,2,2,0,0,1,2.2,2.24v.2c-3.74-.02-5.82,1.26-5.82,3.6a2.758,2.758,0,0,0,2.96,2.78,3.605,3.605,0,0,0,2.96-1.44h.06l.14,1.22Zm-1.86-3.26a1.837,1.837,0,0,1-.1.56,2.408,2.408,0,0,1-2.34,1.62,1.557,1.557,0,0,1-1.66-1.68c0-1.88,2.18-2.22,4.1-2.18ZM131.1,159h1.76V144.8H131.1Zm11.52-9.68-.08,1.46h-.04a3.22,3.22,0,0,0-3.02-1.68c-2.22,0-4.36,1.86-4.36,5.14,0,2.68,1.72,4.72,4.12,4.72a3.456,3.456,0,0,0,3.08-1.62h.04v1.08c0,2.44-1.32,3.38-3.12,3.38a5.458,5.458,0,0,1-2.84-.76l-.44,1.34a6.248,6.248,0,0,0,3.22.8,5.132,5.132,0,0,0,3.52-1.16c.94-.84,1.38-2.2,1.38-4.42v-5.62c0-1.18.04-1.96.08-2.66Zm-.28,5.56a3.062,3.062,0,0,1-.14.94,2.573,2.573,0,0,1-2.44,1.8c-1.9,0-2.86-1.58-2.86-3.48,0-2.24,1.2-3.66,2.88-3.66a2.535,2.535,0,0,1,2.46,1.86,2.506,2.506,0,0,1,.1.8Zm12.76-5.56h-1.76v5.94a2.574,2.574,0,0,1-.16.9,2.544,2.544,0,0,1-2.32,1.6c-1.6,0-2.16-1.24-2.16-3.08v-5.36h-1.76v5.66c0,3.4,1.82,4.24,3.34,4.24a3.642,3.642,0,0,0,3.2-1.8h.04l.1,1.58h1.56c-.06-.76-.08-1.64-.08-2.64Zm2.92,9.68h1.76v-5.82a2.531,2.531,0,0,1,.12-.82,2.5,2.5,0,0,1,2.36-1.8c1.66,0,2.24,1.3,2.24,2.86V159h1.76v-5.78c0-3.32-2.08-4.12-3.42-4.12a3.56,3.56,0,0,0-3.2,1.82h-.04l-.1-1.6h-1.56c.06.8.08,1.62.08,2.62Zm15.2-9.9c-2.68,0-4.8,1.9-4.8,5.14,0,3.06,2.02,4.98,4.64,4.98,2.34,0,4.82-1.56,4.82-5.14C177.88,151.12,176,149.1,173.22,149.1Zm-.04,1.32c2.08,0,2.9,2.08,2.9,3.72,0,2.18-1.26,3.76-2.94,3.76-1.72,0-2.94-1.6-2.94-3.72C170.2,152.34,171.1,150.42,173.18,150.42Zm6.24,8.12a5.52,5.52,0,0,0,2.72.66c2.3,0,3.62-1.2,3.62-2.9,0-1.44-.86-2.28-2.54-2.92-1.26-.48-1.84-.84-1.84-1.64,0-.72.58-1.32,1.62-1.32a3.767,3.767,0,0,1,1.98.56l.44-1.28a4.832,4.832,0,0,0-2.38-.6c-2.08,0-3.34,1.28-3.34,2.84,0,1.16.82,2.12,2.56,2.74,1.3.48,1.8.94,1.8,1.78,0,.8-.6,1.44-1.88,1.44a4.613,4.613,0,0,1-2.32-.7Zm12.84.46h1.76v-5.84a2.131,2.131,0,0,1,.12-.84,2.529,2.529,0,0,1,2.36-1.76c1.66,0,2.24,1.32,2.24,2.88V159h1.76v-5.76c0-3.34-2.08-4.14-3.38-4.14a3.622,3.622,0,0,0-1.8.5,3.266,3.266,0,0,0-1.26,1.24h-.04V144.8h-1.76Zm19.2-9.68H209.7v5.94a2.574,2.574,0,0,1-.16.9,2.544,2.544,0,0,1-2.32,1.6c-1.6,0-2.16-1.24-2.16-3.08v-5.36H203.3v5.66c0,3.4,1.82,4.24,3.34,4.24a3.642,3.642,0,0,0,3.2-1.8h.04l.1,1.58h1.56c-.06-.76-.08-1.64-.08-2.64Zm10.7,5.16a6.64,6.64,0,0,0,.06-.82c0-1.78-.84-4.56-4-4.56-2.82,0-4.54,2.3-4.54,5.22s1.78,4.88,4.76,4.88a7.841,7.841,0,0,0,3.22-.6l-.3-1.26a6.364,6.364,0,0,1-2.68.5,3.1,3.1,0,0,1-3.32-3.36Zm-6.78-1.26c.14-1.22.92-2.86,2.7-2.86,1.98,0,2.46,1.74,2.44,2.86Zm8.34,5.32a5.52,5.52,0,0,0,2.72.66c2.3,0,3.62-1.2,3.62-2.9,0-1.44-.86-2.28-2.54-2.92-1.26-.48-1.84-.84-1.84-1.64,0-.72.58-1.32,1.62-1.32a3.767,3.767,0,0,1,1.98.56l.44-1.28a4.832,4.832,0,0,0-2.38-.6c-2.08,0-3.34,1.28-3.34,2.84,0,1.16.82,2.12,2.56,2.74,1.3.48,1.8.94,1.8,1.78,0,.8-.6,1.44-1.88,1.44a4.613,4.613,0,0,1-2.32-.7Zm12.7-9.44c-2.68,0-4.8,1.9-4.8,5.14,0,3.06,2.02,4.98,4.64,4.98,2.34,0,4.82-1.56,4.82-5.14C241.08,151.12,239.2,149.1,236.42,149.1Zm-.04,1.32c2.08,0,2.9,2.08,2.9,3.72,0,2.18-1.26,3.76-2.94,3.76-1.72,0-2.94-1.6-2.94-3.72C233.4,152.34,234.3,150.42,236.38,150.42Zm6.24,8.12a5.52,5.52,0,0,0,2.72.66c2.3,0,3.62-1.2,3.62-2.9,0-1.44-.86-2.28-2.54-2.92-1.26-.48-1.84-.84-1.84-1.64,0-.72.58-1.32,1.62-1.32a3.767,3.767,0,0,1,1.98.56l.44-1.28a4.832,4.832,0,0,0-2.38-.6c-2.08,0-3.34,1.28-3.34,2.84,0,1.16.82,2.12,2.56,2.74,1.3.48,1.8.94,1.8,1.78,0,.8-.6,1.44-1.88,1.44a4.613,4.613,0,0,1-2.32-.7ZM.78,182.54a5.52,5.52,0,0,0,2.72.66c2.3,0,3.62-1.2,3.62-2.9,0-1.44-.86-2.28-2.54-2.92-1.26-.48-1.84-.84-1.84-1.64,0-.72.58-1.32,1.62-1.32a3.767,3.767,0,0,1,1.98.56l.44-1.28a4.832,4.832,0,0,0-2.38-.6c-2.08,0-3.34,1.28-3.34,2.84,0,1.16.82,2.12,2.56,2.74,1.3.48,1.8.94,1.8,1.78,0,.8-.6,1.44-1.88,1.44a4.613,4.613,0,0,1-2.32-.7Zm16.38-4.06a6.638,6.638,0,0,0,.06-.82c0-1.78-.84-4.56-4-4.56-2.82,0-4.54,2.3-4.54,5.22s1.78,4.88,4.76,4.88a7.84,7.84,0,0,0,3.22-.6l-.3-1.26a6.364,6.364,0,0,1-2.68.5,3.1,3.1,0,0,1-3.32-3.36Zm-6.78-1.26c.14-1.22.92-2.86,2.7-2.86,1.98,0,2.46,1.74,2.44,2.86ZM19.4,183h1.74v-5.16a4.953,4.953,0,0,1,.08-.82,2.469,2.469,0,0,1,2.36-2.26,2.643,2.643,0,0,1,.6.06v-1.66a1.9,1.9,0,0,0-.5-.06A2.9,2.9,0,0,0,21,175.22h-.08l-.06-1.9H19.32c.06.9.08,1.88.08,3.02Zm13.4,0a13.63,13.63,0,0,1-.16-2.32v-3.62c0-1.94-.72-3.96-3.68-3.96a6.008,6.008,0,0,0-3.18.86l.4,1.16a4.823,4.823,0,0,1,2.52-.72,2,2,0,0,1,2.2,2.24v.2c-3.74-.02-5.82,1.26-5.82,3.6a2.758,2.758,0,0,0,2.96,2.78A3.605,3.605,0,0,0,31,181.78h.06L31.2,183Zm-1.86-3.26a1.837,1.837,0,0,1-.1.56,2.408,2.408,0,0,1-2.34,1.62,1.557,1.557,0,0,1-1.66-1.68c0-1.88,2.18-2.22,4.1-2.18Zm-1.06-10.6L28.12,172h1.26l2.44-2.86ZM40.12,171v2.32h-1.5v1.34h1.5v5.28a3.586,3.586,0,0,0,.68,2.52,2.439,2.439,0,0,0,1.9.74,4.308,4.308,0,0,0,1.56-.24l-.08-1.32a3.915,3.915,0,0,1-1.02.12c-.98,0-1.32-.68-1.32-1.88v-5.22h2.52v-1.34H41.84v-2.78ZM53.3,183a13.629,13.629,0,0,1-.16-2.32v-3.62c0-1.94-.72-3.96-3.68-3.96a6.008,6.008,0,0,0-3.18.86l.4,1.16a4.823,4.823,0,0,1,2.52-.72,2,2,0,0,1,2.2,2.24v.2c-3.74-.02-5.82,1.26-5.82,3.6a2.758,2.758,0,0,0,2.96,2.78,3.605,3.605,0,0,0,2.96-1.44h.06L51.7,183Zm-1.86-3.26a1.837,1.837,0,0,1-.1.56A2.408,2.408,0,0,1,49,181.92a1.557,1.557,0,0,1-1.66-1.68c0-1.88,2.18-2.22,4.1-2.18ZM55.98,183h1.74v-5.16a4.954,4.954,0,0,1,.08-.82,2.469,2.469,0,0,1,2.36-2.26,2.643,2.643,0,0,1,.6.06v-1.66a1.9,1.9,0,0,0-.5-.06,2.9,2.9,0,0,0-2.68,2.12H57.5l-.06-1.9H55.9c.06.9.08,1.88.08,3.02Zm14.12-4.52a6.637,6.637,0,0,0,.06-.82c0-1.78-.84-4.56-4-4.56-2.82,0-4.54,2.3-4.54,5.22s1.78,4.88,4.76,4.88a7.84,7.84,0,0,0,3.22-.6l-.3-1.26a6.364,6.364,0,0,1-2.68.5,3.1,3.1,0,0,1-3.32-3.36Zm-6.78-1.26c.14-1.22.92-2.86,2.7-2.86,1.98,0,2.46,1.74,2.44,2.86ZM79.3,183a13.63,13.63,0,0,1-.16-2.32v-3.62c0-1.94-.72-3.96-3.68-3.96a6.008,6.008,0,0,0-3.18.86l.4,1.16a4.823,4.823,0,0,1,2.52-.72,2,2,0,0,1,2.2,2.24v.2c-3.74-.02-5.82,1.26-5.82,3.6a2.758,2.758,0,0,0,2.96,2.78,3.605,3.605,0,0,0,2.96-1.44h.06L77.7,183Zm-1.86-3.26a1.837,1.837,0,0,1-.1.56A2.408,2.408,0,0,1,75,181.92a1.557,1.557,0,0,1-1.66-1.68c0-1.88,2.18-2.22,4.1-2.18ZM88.14,183v-8.34h2.34v-1.34H88.14v-.52c0-1.48.38-2.8,1.88-2.8a2.628,2.628,0,0,1,1.12.22l.24-1.36a4.081,4.081,0,0,0-1.5-.28,3.368,3.368,0,0,0-2.36.9,4.563,4.563,0,0,0-1.12,3.38v.46H85.04v1.34H86.4V183Zm10.88,0a13.63,13.63,0,0,1-.16-2.32v-3.62c0-1.94-.72-3.96-3.68-3.96a6.008,6.008,0,0,0-3.18.86l.4,1.16a4.823,4.823,0,0,1,2.52-.72,2,2,0,0,1,2.2,2.24v.2c-3.74-.02-5.82,1.26-5.82,3.6a2.758,2.758,0,0,0,2.96,2.78,3.605,3.605,0,0,0,2.96-1.44h.06l.14,1.22Zm-1.86-3.26a1.837,1.837,0,0,1-.1.56,2.408,2.408,0,0,1-2.34,1.62,1.557,1.557,0,0,1-1.66-1.68c0-1.88,2.18-2.22,4.1-2.18Zm-1.06-10.6L94.34,172H95.6l2.44-2.86Zm12.2,12.18a5,5,0,0,1-2.16.48,3.649,3.649,0,0,1,.06-7.28,4.081,4.081,0,0,1,2.04.46l.4-1.36a5.883,5.883,0,0,0-2.44-.5,4.918,4.918,0,0,0-5.2,5.14,4.6,4.6,0,0,0,4.82,4.94,6.483,6.483,0,0,0,2.78-.56Zm4.12,1.68v-9.68h-1.76V183Zm-.88-13.5a1.072,1.072,0,0,0-1.1,1.1,1.09,1.09,0,1,0,1.1-1.1Zm3.8,13.5h1.76V168.8h-1.76Zm4.64,2.34a24.383,24.383,0,0,0,1.9-4.86l-1.96.2a28.776,28.776,0,0,1-1.2,4.78Zm16.04-6.86a6.637,6.637,0,0,0,.06-.82c0-1.78-.84-4.56-4-4.56-2.82,0-4.54,2.3-4.54,5.22s1.78,4.88,4.76,4.88a7.84,7.84,0,0,0,3.22-.6l-.3-1.26a6.364,6.364,0,0,1-2.68.5,3.1,3.1,0,0,1-3.32-3.36Zm-6.78-1.26c.14-1.22.92-2.86,2.7-2.86,1.98,0,2.46,1.74,2.44,2.86Zm9.02,5.78h1.76v-5.82a2.531,2.531,0,0,1,.12-.82,2.5,2.5,0,0,1,2.36-1.8c1.66,0,2.24,1.3,2.24,2.86V183h1.76v-5.78c0-3.32-2.08-4.12-3.42-4.12a3.56,3.56,0,0,0-3.2,1.82h-.04l-.1-1.6h-1.56c.06.8.08,1.62.08,2.62Zm19.44-9.9c-2.68,0-4.8,1.9-4.8,5.14,0,3.06,2.02,4.98,4.64,4.98,2.34,0,4.82-1.56,4.82-5.14C162.36,175.12,160.48,173.1,157.7,173.1Zm-.04,1.32c2.08,0,2.9,2.08,2.9,3.72,0,2.18-1.26,3.76-2.94,3.76-1.72,0-2.94-1.6-2.94-3.72C154.68,176.34,155.58,174.42,157.66,174.42Zm7.32-3.42v2.32h-1.5v1.34h1.5v5.28a3.586,3.586,0,0,0,.68,2.52,2.439,2.439,0,0,0,1.9.74,4.308,4.308,0,0,0,1.56-.24l-.08-1.32a3.915,3.915,0,0,1-1.02.12c-.98,0-1.32-.68-1.32-1.88v-5.22h2.52v-1.34H166.7v-2.78Zm6.22,12h1.74v-5.16a4.954,4.954,0,0,1,.08-.82,2.469,2.469,0,0,1,2.36-2.26,2.643,2.643,0,0,1,.6.06v-1.66a1.9,1.9,0,0,0-.5-.06,2.9,2.9,0,0,0-2.68,2.12h-.08l-.06-1.9h-1.54c.06.9.08,1.88.08,3.02Zm10.44-9.9c-2.68,0-4.8,1.9-4.8,5.14,0,3.06,2.02,4.98,4.64,4.98,2.34,0,4.82-1.56,4.82-5.14C186.3,175.12,184.42,173.1,181.64,173.1Zm-.04,1.32c2.08,0,2.9,2.08,2.9,3.72,0,2.18-1.26,3.76-2.94,3.76-1.72,0-2.94-1.6-2.94-3.72C178.62,176.34,179.52,174.42,181.6,174.42Zm6.24,8.12a5.52,5.52,0,0,0,2.72.66c2.3,0,3.62-1.2,3.62-2.9,0-1.44-.86-2.28-2.54-2.92-1.26-.48-1.84-.84-1.84-1.64,0-.72.58-1.32,1.62-1.32a3.767,3.767,0,0,1,1.98.56l.44-1.28a4.832,4.832,0,0,0-2.38-.6c-2.08,0-3.34,1.28-3.34,2.84,0,1.16.82,2.12,2.56,2.74,1.3.48,1.8.94,1.8,1.78,0,.8-.6,1.44-1.88,1.44a4.613,4.613,0,0,1-2.32-.7Zm8.5,2.8a24.382,24.382,0,0,0,1.9-4.86l-1.96.2a28.778,28.778,0,0,1-1.2,4.78Zm7.58-2.8a5.52,5.52,0,0,0,2.72.66c2.3,0,3.62-1.2,3.62-2.9,0-1.44-.86-2.28-2.54-2.92-1.26-.48-1.84-.84-1.84-1.64,0-.72.58-1.32,1.62-1.32a3.767,3.767,0,0,1,1.98.56l.44-1.28a4.832,4.832,0,0,0-2.38-.6c-2.08,0-3.34,1.28-3.34,2.84,0,1.16.82,2.12,2.56,2.74,1.3.48,1.8.94,1.8,1.78,0,.8-.6,1.44-1.88,1.44a4.613,4.613,0,0,1-2.32-.7Zm16.38-4.06a6.64,6.64,0,0,0,.06-.82c0-1.78-.84-4.56-4-4.56-2.82,0-4.54,2.3-4.54,5.22s1.78,4.88,4.76,4.88a7.841,7.841,0,0,0,3.22-.6l-.3-1.26a6.364,6.364,0,0,1-2.68.5,3.1,3.1,0,0,1-3.32-3.36Zm-6.78-1.26c.14-1.22.92-2.86,2.7-2.86,1.98,0,2.46,1.74,2.44,2.86ZM8.06,192.8v5.78H8.02A3.237,3.237,0,0,0,5.1,197.1c-2.36,0-4.36,1.98-4.34,5.2,0,2.94,1.8,4.92,4.14,4.92a3.581,3.581,0,0,0,3.3-1.9h.04L8.32,207H9.9c-.06-.66-.08-1.64-.08-2.5V192.8Zm0,10.14a3.057,3.057,0,0,1-.08.76,2.646,2.646,0,0,1-2.58,2.1c-1.9,0-2.86-1.62-2.86-3.58,0-2.14,1.08-3.74,2.9-3.74a2.588,2.588,0,0,1,2.54,2.04,3.107,3.107,0,0,1,.08.74Zm12.46-.46a6.638,6.638,0,0,0,.06-.82c0-1.78-.84-4.56-4-4.56-2.82,0-4.54,2.3-4.54,5.22s1.78,4.88,4.76,4.88a7.84,7.84,0,0,0,3.22-.6l-.3-1.26a6.364,6.364,0,0,1-2.68.5,3.1,3.1,0,0,1-3.32-3.36Zm-6.78-1.26c.14-1.22.92-2.86,2.7-2.86,1.98,0,2.46,1.74,2.44,2.86ZM24.2,207l.08-1.6h.06a3.448,3.448,0,0,0,3.24,1.82c2.16,0,4.34-1.72,4.34-5.18.02-2.94-1.68-4.94-4.08-4.94a3.605,3.605,0,0,0-3.3,1.78H24.5V192.8H22.76v11.7c0,.86-.04,1.84-.08,2.5Zm.3-5.62a3.469,3.469,0,0,1,.1-.72,2.806,2.806,0,0,1,2.68-2.16c1.88,0,2.88,1.66,2.88,3.6,0,2.22-1.1,3.72-2.94,3.72a2.716,2.716,0,0,1-2.64-2.06,3.3,3.3,0,0,1-.08-.64Zm17.42,1.1a6.637,6.637,0,0,0,.06-.82c0-1.78-.84-4.56-4-4.56-2.82,0-4.54,2.3-4.54,5.22s1.78,4.88,4.76,4.88a7.84,7.84,0,0,0,3.22-.6l-.3-1.26a6.364,6.364,0,0,1-2.68.5,3.1,3.1,0,0,1-3.32-3.36Zm-6.78-1.26c.14-1.22.92-2.86,2.7-2.86,1.98,0,2.46,1.74,2.44,2.86ZM50.16,207v-9.68H48.4V207Zm-.88-13.5a1.072,1.072,0,0,0-1.1,1.1,1.09,1.09,0,1,0,1.1-1.1Zm3.8,13.5h1.76v-5.82a2.531,2.531,0,0,1,.12-.82,2.5,2.5,0,0,1,2.36-1.8c1.66,0,2.24,1.3,2.24,2.86V207h1.76v-5.78c0-3.32-2.08-4.12-3.42-4.12a3.56,3.56,0,0,0-3.2,1.82h-.04l-.1-1.6H53c.06.8.08,1.62.08,2.62Zm9.64-9.68L66.4,207h1.68l3.8-9.68H70.04l-1.88,5.44c-.32.88-.6,1.68-.82,2.48h-.06a24.9,24.9,0,0,0-.78-2.48l-1.9-5.44Zm18.4,5.16a6.637,6.637,0,0,0,.06-.82c0-1.78-.84-4.56-4-4.56-2.82,0-4.54,2.3-4.54,5.22s1.78,4.88,4.76,4.88a7.84,7.84,0,0,0,3.22-.6l-.3-1.26a6.364,6.364,0,0,1-2.68.5,3.1,3.1,0,0,1-3.32-3.36Zm-6.78-1.26c.14-1.22.92-2.86,2.7-2.86,1.98,0,2.46,1.74,2.44,2.86ZM83.36,207H85.1v-5.16a4.953,4.953,0,0,1,.08-.82,2.469,2.469,0,0,1,2.36-2.26,2.643,2.643,0,0,1,.6.06v-1.66a1.9,1.9,0,0,0-.5-.06,2.9,2.9,0,0,0-2.68,2.12h-.08l-.06-1.9H83.28c.06.9.08,1.88.08,3.02Zm7.42-12v2.32h-1.5v1.34h1.5v5.28a3.586,3.586,0,0,0,.68,2.52,2.439,2.439,0,0,0,1.9.74,4.308,4.308,0,0,0,1.56-.24l-.08-1.32a3.915,3.915,0,0,1-1.02.12c-.98,0-1.32-.68-1.32-1.88v-5.22h2.52v-1.34H92.5v-2.78Zm7.98,12v-9.68H97V207Zm-.88-13.5a1.072,1.072,0,0,0-1.1,1.1,1.09,1.09,0,1,0,1.1-1.1Zm3.8,13.5h1.74v-5.16a4.953,4.953,0,0,1,.08-.82,2.469,2.469,0,0,1,2.36-2.26,2.643,2.643,0,0,1,.6.06v-1.66a1.9,1.9,0,0,0-.5-.06,2.9,2.9,0,0,0-2.68,2.12h-.08l-.06-1.9H101.6c.06.9.08,1.88.08,3.02Zm18.88-9.68H118.8v5.94a2.574,2.574,0,0,1-.16.9,2.544,2.544,0,0,1-2.32,1.6c-1.6,0-2.16-1.24-2.16-3.08v-5.36H112.4v5.66c0,3.4,1.82,4.24,3.34,4.24a3.642,3.642,0,0,0,3.2-1.8h.04l.1,1.58h1.56c-.06-.76-.08-1.64-.08-2.64Zm2.92,9.68h1.76v-5.82a2.531,2.531,0,0,1,.12-.82,2.5,2.5,0,0,1,2.36-1.8c1.66,0,2.24,1.3,2.24,2.86V207h1.76v-5.78c0-3.32-2.08-4.12-3.42-4.12a3.56,3.56,0,0,0-3.2,1.82h-.04l-.1-1.6H123.4c.06.8.08,1.62.08,2.62Zm15.34,3.96h1.74V205.7h.04a3.4,3.4,0,0,0,2.98,1.52c2.28,0,4.4-1.72,4.4-5.2,0-2.94-1.76-4.92-4.1-4.92a3.806,3.806,0,0,0-3.44,1.88h-.04l-.08-1.66h-1.58c.04.92.08,1.92.08,3.16Zm1.74-9.56a2.854,2.854,0,0,1,.12-.72,2.808,2.808,0,0,1,2.66-2.18c1.86,0,2.88,1.66,2.88,3.6,0,2.22-1.08,3.74-2.94,3.74a2.716,2.716,0,0,1-2.64-2.06,3.964,3.964,0,0,1-.08-.72Zm13.74-4.3c-2.68,0-4.8,1.9-4.8,5.14,0,3.06,2.02,4.98,4.64,4.98,2.34,0,4.82-1.56,4.82-5.14C158.96,199.12,157.08,197.1,154.3,197.1Zm-.04,1.32c2.08,0,2.9,2.08,2.9,3.72,0,2.18-1.26,3.76-2.94,3.76-1.72,0-2.94-1.6-2.94-3.72C151.28,200.34,152.18,198.42,154.26,198.42Zm13.52,6.9a5,5,0,0,1-2.16.48,3.649,3.649,0,0,1,.06-7.28,4.081,4.081,0,0,1,2.04.46l.4-1.36a5.883,5.883,0,0,0-2.44-.5,4.918,4.918,0,0,0-5.2,5.14,4.6,4.6,0,0,0,4.82,4.94,6.483,6.483,0,0,0,2.78-.56Zm6.34-8.22c-2.68,0-4.8,1.9-4.8,5.14,0,3.06,2.02,4.98,4.64,4.98,2.34,0,4.82-1.56,4.82-5.14C178.78,199.12,176.9,197.1,174.12,197.1Zm-.04,1.32c2.08,0,2.9,2.08,2.9,3.72,0,2.18-1.26,3.76-2.94,3.76-1.72,0-2.94-1.6-2.94-3.72C171.1,200.34,172,198.42,174.08,198.42ZM185.24,207h1.72v-5.84a2.623,2.623,0,0,1,2.32-2.62c1.34,0,2.02,1.12,2.02,2.66V207h1.72v-5.98a2.9,2.9,0,0,1,.14-.88,2.279,2.279,0,0,1,2.08-1.6c1.42,0,2.1,1.12,2.1,2.98V207h1.72v-5.7c0-3.36-1.9-4.2-3.18-4.2a3.3,3.3,0,0,0-2.14.68,3.987,3.987,0,0,0-1.08,1.26h-.04a2.862,2.862,0,0,0-2.74-1.94,3.336,3.336,0,0,0-3.04,1.78h-.06l-.08-1.56h-1.54c.06.8.08,1.62.08,2.62Zm23.64,0a13.63,13.63,0,0,1-.16-2.32v-3.62c0-1.94-.72-3.96-3.68-3.96a6.008,6.008,0,0,0-3.18.86l.4,1.16a4.823,4.823,0,0,1,2.52-.72,2,2,0,0,1,2.2,2.24v.2c-3.74-.02-5.82,1.26-5.82,3.6a2.758,2.758,0,0,0,2.96,2.78,3.605,3.605,0,0,0,2.96-1.44h.06l.14,1.22Zm-1.86-3.26a1.837,1.837,0,0,1-.1.56,2.408,2.408,0,0,1-2.34,1.62,1.557,1.557,0,0,1-1.66-1.68c0-1.88,2.18-2.22,4.1-2.18Zm-1.06-10.6L204.2,196h1.26l2.44-2.86Zm4.92,13.4a5.52,5.52,0,0,0,2.72.66c2.3,0,3.62-1.2,3.62-2.9,0-1.44-.86-2.28-2.54-2.92-1.26-.48-1.84-.84-1.84-1.64,0-.72.58-1.32,1.62-1.32a3.767,3.767,0,0,1,1.98.56l.44-1.28a4.832,4.832,0,0,0-2.38-.6c-2.08,0-3.34,1.28-3.34,2.84,0,1.16.82,2.12,2.56,2.74,1.3.48,1.8.94,1.8,1.78,0,.8-.6,1.44-1.88,1.44a4.613,4.613,0,0,1-2.32-.7Zm19.44-13.74v5.78h-.04a3.237,3.237,0,0,0-2.92-1.48c-2.36,0-4.36,1.98-4.34,5.2,0,2.94,1.8,4.92,4.14,4.92a3.581,3.581,0,0,0,3.3-1.9h.04l.08,1.68h1.58c-.06-.66-.08-1.64-.08-2.5V192.8Zm0,10.14a3.057,3.057,0,0,1-.08.76,2.646,2.646,0,0,1-2.58,2.1c-1.9,0-2.86-1.62-2.86-3.58,0-2.14,1.08-3.74,2.9-3.74a2.588,2.588,0,0,1,2.54,2.04,3.107,3.107,0,0,1,.08.74Zm12.46-.46a6.64,6.64,0,0,0,.06-.82c0-1.78-.84-4.56-4-4.56-2.82,0-4.54,2.3-4.54,5.22s1.78,4.88,4.76,4.88a7.841,7.841,0,0,0,3.22-.6l-.3-1.26a6.364,6.364,0,0,1-2.68.5,3.1,3.1,0,0,1-3.32-3.36ZM236,201.22c.14-1.22.92-2.86,2.7-2.86,1.98,0,2.46,1.74,2.44,2.86ZM1.86,219v2.32H.36v1.34h1.5v5.28a3.586,3.586,0,0,0,.68,2.52,2.439,2.439,0,0,0,1.9.74A4.308,4.308,0,0,0,6,230.96l-.08-1.32a3.915,3.915,0,0,1-1.02.12c-.98,0-1.32-.68-1.32-1.88v-5.22H6.1v-1.34H3.58v-2.78Zm7.98,12v-9.68H8.08V231Zm-.88-13.5a1.072,1.072,0,0,0-1.1,1.1,1.047,1.047,0,0,0,1.06,1.08,1.09,1.09,0,1,0,.04-2.18Zm11.58,8.98a6.638,6.638,0,0,0,.06-.82c0-1.78-.84-4.56-4-4.56-2.82,0-4.54,2.3-4.54,5.22s1.78,4.88,4.76,4.88a7.84,7.84,0,0,0,3.22-.6l-.3-1.26a6.364,6.364,0,0,1-2.68.5,3.1,3.1,0,0,1-3.32-3.36Zm-6.78-1.26c.14-1.22.92-2.86,2.7-2.86,1.98,0,2.46,1.74,2.44,2.86ZM22.78,231H24.5v-5.84a2.623,2.623,0,0,1,2.32-2.62c1.34,0,2.02,1.12,2.02,2.66V231h1.72v-5.98a2.9,2.9,0,0,1,.14-.88,2.279,2.279,0,0,1,2.08-1.6c1.42,0,2.1,1.12,2.1,2.98V231H36.6v-5.7c0-3.36-1.9-4.2-3.18-4.2a3.3,3.3,0,0,0-2.14.68,3.988,3.988,0,0,0-1.08,1.26h-.04a2.862,2.862,0,0,0-2.74-1.94,3.336,3.336,0,0,0-3.04,1.78h-.06l-.08-1.56H22.7c.06.8.08,1.62.08,2.62Zm16.68,3.96H41.2V229.7h.04a3.4,3.4,0,0,0,2.98,1.52c2.28,0,4.4-1.72,4.4-5.2,0-2.94-1.76-4.92-4.1-4.92a3.806,3.806,0,0,0-3.44,1.88h-.04l-.08-1.66H39.38c.04.92.08,1.92.08,3.16Zm1.74-9.56a2.854,2.854,0,0,1,.12-.72,2.808,2.808,0,0,1,2.66-2.18c1.86,0,2.88,1.66,2.88,3.6,0,2.22-1.08,3.74-2.94,3.74a2.716,2.716,0,0,1-2.64-2.06,3.963,3.963,0,0,1-.08-.72Zm13.74-4.3c-2.68,0-4.8,1.9-4.8,5.14,0,3.06,2.02,4.98,4.64,4.98,2.34,0,4.82-1.56,4.82-5.14C59.6,223.12,57.72,221.1,54.94,221.1Zm-.04,1.32c2.08,0,2.9,2.08,2.9,3.72,0,2.18-1.26,3.76-2.94,3.76-1.72,0-2.94-1.6-2.94-3.72C51.92,224.34,52.82,222.42,54.9,222.42Zm7.2,8.8a1.262,1.262,0,1,0-1.18-1.26A1.171,1.171,0,0,0,62.1,231.22Z" transform="translate(436.351 1138.644)" fill="#365e59"/>
    <g id="Grupo_64465" data-name="Grupo 64465" transform="translate(422.079 1144.32)">
      <path id="Trazado_132814" data-name="Trazado 132814" d="M278.145,2740.179h-.452a.736.736,0,0,0-.087-.019,5.356,5.356,0,0,1-2.292-.663,5.687,5.687,0,0,1-3.063-4.866,5.314,5.314,0,0,1,.671-2.958,5.672,5.672,0,0,1,4.863-3.067,5.4,5.4,0,0,1,3.193.806,5.717,5.717,0,0,1,2.753,3.979c.042.217.061.438.091.658v.611l-.07.615a.442.442,0,0,1-.4.437.712.712,0,0,1-.305-.058,3.436,3.436,0,0,0-2.128-.141.165.165,0,0,1-.136-.037c-.345-.337-.685-.679-1.025-1.021a.194.194,0,0,1-.054-.1,1.579,1.579,0,0,0-1.206-1.455,8.041,8.041,0,0,0-1.847-.293c-.16-.01-.321-.015-.491-.023.013.248.02.481.039.713a7.383,7.383,0,0,0,.291,1.666,1.564,1.564,0,0,0,1.406,1.161.286.286,0,0,1,.155.074c.251.244.495.5.747.74a.125.125,0,0,1,.025.188,3.187,3.187,0,0,0-.45,1.737c.01.27.062.537.1.806a.449.449,0,0,1-.242.469C278.2,2740.147,278.174,2740.164,278.145,2740.179Zm-3.724-6.874a.663.663,0,0,0,.671-.651.666.666,0,1,0-.671.651Zm-.118,3.238a.667.667,0,0,0,.674-.66.667.667,0,0,0-1.333-.014A.662.662,0,0,0,274.3,2736.543Zm6.47-5.568a.665.665,0,1,0-.7.655A.665.665,0,0,0,280.774,2730.975Zm-3.212-.424a.664.664,0,1,0-1.327-.009.664.664,0,0,0,1.327.009Zm-.267,7.606a.666.666,0,1,0-.68.653A.665.665,0,0,0,277.295,2738.157Zm4.677-5.2a.667.667,0,1,0,0,1.333.667.667,0,0,0,0-1.333Z" transform="translate(-272.241 -2728.597)" fill="#365e59"/>
      <path id="Trazado_132815" data-name="Trazado 132815" d="M278.8,2736.263a1.692,1.692,0,0,0,1.041-1.043c.033.03.058.051.082.075q1.551,1.55,3.1,3.1a.741.741,0,0,1-.954,1.135c-.034-.029-.068-.059-.1-.091q-1.548-1.547-3.093-3.094C278.858,2736.324,278.837,2736.3,278.8,2736.263Z" transform="translate(-272.463 -2728.821)" fill="#365e59"/>
      <path id="Trazado_132816" data-name="Trazado 132816" d="M276.82,2733.228c.245.025.479.035.707.077a11.033,11.033,0,0,1,1.109.247,1.125,1.125,0,0,1,.637,1.578,1.154,1.154,0,0,1-2.184-.2A7.249,7.249,0,0,1,276.82,2733.228Z" transform="translate(-272.396 -2728.754)" fill="#365e59"/>
    </g>
    <g id="Grupo_64466" data-name="Grupo 64466" transform="translate(422.079 1235.977)">
      <path id="Trazado_132817" data-name="Trazado 132817" d="M278.145,2835.047h-.452a.689.689,0,0,0-.087-.018,5.362,5.362,0,0,1-2.292-.663,5.689,5.689,0,0,1-3.063-4.866,5.312,5.312,0,0,1,.671-2.958,5.671,5.671,0,0,1,4.863-3.066,5.4,5.4,0,0,1,3.193.806,5.717,5.717,0,0,1,2.753,3.979c.042.217.061.438.091.657v.612l-.07.614a.443.443,0,0,1-.4.437.723.723,0,0,1-.305-.058,3.434,3.434,0,0,0-2.128-.141.17.17,0,0,1-.136-.038c-.345-.337-.685-.679-1.025-1.022a.188.188,0,0,1-.054-.1,1.581,1.581,0,0,0-1.206-1.456,8.08,8.08,0,0,0-1.847-.292c-.16-.01-.321-.016-.491-.023.013.248.02.481.039.713a7.4,7.4,0,0,0,.291,1.666,1.562,1.562,0,0,0,1.406,1.16.3.3,0,0,1,.155.074c.251.245.495.5.747.741a.126.126,0,0,1,.025.188,3.187,3.187,0,0,0-.45,1.737c.01.27.062.537.1.806a.449.449,0,0,1-.242.469C278.2,2835.015,278.174,2835.032,278.145,2835.047Zm-3.724-6.874a.663.663,0,0,0,.671-.651.666.666,0,1,0-.671.651Zm-.118,3.238a.667.667,0,0,0,.674-.661.667.667,0,0,0-1.333-.013A.662.662,0,0,0,274.3,2831.41Zm6.47-5.568a.665.665,0,1,0-.7.655A.665.665,0,0,0,280.774,2825.843Zm-3.212-.424a.664.664,0,1,0-1.327-.009.664.664,0,0,0,1.327.009Zm-.267,7.607a.666.666,0,1,0-.68.653A.664.664,0,0,0,277.295,2833.025Zm4.677-5.2a.667.667,0,1,0,0,1.333.667.667,0,0,0,0-1.333Z" transform="translate(-272.241 -2823.465)" fill="#365e59"/>
      <path id="Trazado_132818" data-name="Trazado 132818" d="M278.8,2831.132a1.694,1.694,0,0,0,1.041-1.044c.033.03.058.052.082.076q1.551,1.551,3.1,3.1a.741.741,0,0,1-.954,1.135c-.034-.029-.068-.059-.1-.091q-1.548-1.547-3.093-3.094C278.858,2831.192,278.837,2831.167,278.8,2831.132Z" transform="translate(-272.463 -2823.689)" fill="#365e59"/>
      <path id="Trazado_132819" data-name="Trazado 132819" d="M276.82,2828.095c.245.026.479.035.707.077a11.1,11.1,0,0,1,1.109.248,1.125,1.125,0,0,1,.637,1.578,1.154,1.154,0,0,1-2.184-.2A7.257,7.257,0,0,1,276.82,2828.095Z" transform="translate(-272.396 -2823.622)" fill="#365e59"/>
    </g>
  </g>
</svg>
